G04 #@! TF.GenerationSoftware,KiCad,Pcbnew,(5.1.9)-1*
G04 #@! TF.CreationDate,2023-04-02T16:33:38+02:00*
G04 #@! TF.ProjectId,ECMEndstopPumpInterface,45434d45-6e64-4737-946f-7050756d7049,rev?*
G04 #@! TF.SameCoordinates,Original*
G04 #@! TF.FileFunction,Soldermask,Top*
G04 #@! TF.FilePolarity,Negative*
%FSLAX46Y46*%
G04 Gerber Fmt 4.6, Leading zero omitted, Abs format (unit mm)*
G04 Created by KiCad (PCBNEW (5.1.9)-1) date 2023-04-02 16:33:38*
%MOMM*%
%LPD*%
G01*
G04 APERTURE LIST*
%ADD10C,4.300000*%
%ADD11O,1.905000X2.000000*%
%ADD12R,1.905000X2.000000*%
%ADD13O,1.700000X1.700000*%
%ADD14R,1.700000X1.700000*%
%ADD15O,2.400000X2.400000*%
%ADD16C,2.400000*%
%ADD17O,2.200000X2.200000*%
%ADD18R,2.200000X2.200000*%
G04 APERTURE END LIST*
D10*
X160020000Y-36830000D03*
X105410000Y-62230000D03*
X43815000Y-36830000D03*
D11*
X139065000Y-36195000D03*
X136525000Y-36195000D03*
D12*
X133985000Y-36195000D03*
D13*
X164465000Y-41275000D03*
D14*
X164465000Y-43815000D03*
D15*
X70485000Y-38735000D03*
D16*
X70485000Y-51435000D03*
D15*
X70485000Y-55245000D03*
D16*
X70485000Y-67945000D03*
D15*
X65405000Y-38735000D03*
D16*
X65405000Y-51435000D03*
D15*
X65405000Y-55245000D03*
D16*
X65405000Y-67945000D03*
D15*
X60325000Y-38735000D03*
D16*
X60325000Y-51435000D03*
D15*
X60325000Y-55245000D03*
D16*
X60325000Y-67945000D03*
D15*
X55245000Y-38735000D03*
D16*
X55245000Y-51435000D03*
D15*
X55245000Y-55245000D03*
D16*
X55245000Y-67945000D03*
D15*
X50165000Y-38735000D03*
D16*
X50165000Y-51435000D03*
D15*
X50165000Y-55245000D03*
D16*
X50165000Y-67945000D03*
D15*
X112395000Y-53975000D03*
D16*
X112395000Y-41275000D03*
D15*
X104775000Y-53975000D03*
D16*
X104775000Y-41275000D03*
D15*
X75565000Y-38735000D03*
D16*
X75565000Y-51435000D03*
D15*
X75565000Y-55245000D03*
D16*
X75565000Y-67945000D03*
D15*
X126365000Y-53975000D03*
D16*
X126365000Y-41275000D03*
D15*
X118745000Y-53975000D03*
D16*
X118745000Y-41275000D03*
D15*
X80645000Y-38735000D03*
D16*
X80645000Y-51435000D03*
D15*
X80645000Y-55245000D03*
D16*
X80645000Y-67945000D03*
D15*
X85725000Y-38735000D03*
D16*
X85725000Y-51435000D03*
D15*
X85725000Y-55245000D03*
D16*
X85725000Y-67945000D03*
D15*
X140335000Y-53975000D03*
D16*
X140335000Y-41275000D03*
D15*
X132715000Y-53975000D03*
D16*
X132715000Y-41275000D03*
D15*
X90805000Y-38735000D03*
D16*
X90805000Y-51435000D03*
D15*
X90805000Y-55245000D03*
D16*
X90805000Y-67945000D03*
D15*
X154305000Y-53975000D03*
D16*
X154305000Y-41275000D03*
D15*
X95885000Y-38735000D03*
D16*
X95885000Y-51435000D03*
D15*
X95885000Y-55245000D03*
D16*
X95885000Y-67945000D03*
D15*
X146685000Y-53975000D03*
D16*
X146685000Y-41275000D03*
D11*
X111125000Y-36195000D03*
X108585000Y-36195000D03*
D12*
X106045000Y-36195000D03*
D11*
X125095000Y-36195000D03*
X122555000Y-36195000D03*
D12*
X120015000Y-36195000D03*
D11*
X153035000Y-36195000D03*
X150495000Y-36195000D03*
D12*
X147955000Y-36195000D03*
D13*
X164465000Y-50165000D03*
D14*
X164465000Y-52705000D03*
D13*
X83185000Y-76835000D03*
X80645000Y-76835000D03*
D14*
X78105000Y-76835000D03*
D13*
X73025000Y-76835000D03*
X70485000Y-76835000D03*
D14*
X67945000Y-76835000D03*
D13*
X62865000Y-76835000D03*
X60325000Y-76835000D03*
D14*
X57785000Y-76835000D03*
D13*
X149225000Y-76835000D03*
D14*
X146685000Y-76835000D03*
D13*
X52705000Y-76835000D03*
X50165000Y-76835000D03*
D14*
X47625000Y-76835000D03*
D13*
X42545000Y-76835000D03*
X40005000Y-76835000D03*
D14*
X37465000Y-76835000D03*
D13*
X37465000Y-71755000D03*
X37465000Y-69215000D03*
X37465000Y-66675000D03*
X37465000Y-64135000D03*
X37465000Y-61595000D03*
X37465000Y-59055000D03*
X37465000Y-56515000D03*
X37465000Y-53975000D03*
X37465000Y-51435000D03*
D14*
X37465000Y-48895000D03*
D13*
X141605000Y-76835000D03*
D14*
X139065000Y-76835000D03*
D13*
X93345000Y-76835000D03*
X90805000Y-76835000D03*
D14*
X88265000Y-76835000D03*
D13*
X156845000Y-76835000D03*
D14*
X154305000Y-76835000D03*
D13*
X103505000Y-76835000D03*
X100965000Y-76835000D03*
D14*
X98425000Y-76835000D03*
D13*
X37465000Y-34925000D03*
X37465000Y-37465000D03*
X37465000Y-40005000D03*
D14*
X37465000Y-42545000D03*
D13*
X113665000Y-76835000D03*
X111125000Y-76835000D03*
D14*
X108585000Y-76835000D03*
D13*
X164465000Y-76835000D03*
D14*
X161925000Y-76835000D03*
D13*
X123825000Y-76835000D03*
X121285000Y-76835000D03*
D14*
X118745000Y-76835000D03*
D13*
X133985000Y-76835000D03*
X131445000Y-76835000D03*
D14*
X128905000Y-76835000D03*
D17*
X149225000Y-69215000D03*
D18*
X149225000Y-59055000D03*
D17*
X141605000Y-69215000D03*
D18*
X141605000Y-59055000D03*
D17*
X156845000Y-69215000D03*
D18*
X156845000Y-59055000D03*
D17*
X164465000Y-69215000D03*
D18*
X164465000Y-59055000D03*
M02*
