G04 #@! TF.GenerationSoftware,KiCad,Pcbnew,(5.1.9)-1*
G04 #@! TF.CreationDate,2023-04-02T16:33:38+02:00*
G04 #@! TF.ProjectId,ECMEndstopPumpInterface,45434d45-6e64-4737-946f-7050756d7049,rev?*
G04 #@! TF.SameCoordinates,Original*
G04 #@! TF.FileFunction,Copper,L1,Top*
G04 #@! TF.FilePolarity,Positive*
%FSLAX46Y46*%
G04 Gerber Fmt 4.6, Leading zero omitted, Abs format (unit mm)*
G04 Created by KiCad (PCBNEW (5.1.9)-1) date 2023-04-02 16:33:38*
%MOMM*%
%LPD*%
G01*
G04 APERTURE LIST*
G04 #@! TA.AperFunction,ComponentPad*
%ADD10O,1.905000X2.000000*%
G04 #@! TD*
G04 #@! TA.AperFunction,ComponentPad*
%ADD11R,1.905000X2.000000*%
G04 #@! TD*
G04 #@! TA.AperFunction,ComponentPad*
%ADD12O,1.700000X1.700000*%
G04 #@! TD*
G04 #@! TA.AperFunction,ComponentPad*
%ADD13R,1.700000X1.700000*%
G04 #@! TD*
G04 #@! TA.AperFunction,ComponentPad*
%ADD14O,2.400000X2.400000*%
G04 #@! TD*
G04 #@! TA.AperFunction,ComponentPad*
%ADD15C,2.400000*%
G04 #@! TD*
G04 #@! TA.AperFunction,ComponentPad*
%ADD16O,2.200000X2.200000*%
G04 #@! TD*
G04 #@! TA.AperFunction,ComponentPad*
%ADD17R,2.200000X2.200000*%
G04 #@! TD*
G04 #@! TA.AperFunction,ViaPad*
%ADD18C,0.800000*%
G04 #@! TD*
G04 #@! TA.AperFunction,Conductor*
%ADD19C,1.000000*%
G04 #@! TD*
G04 #@! TA.AperFunction,Conductor*
%ADD20C,0.250000*%
G04 #@! TD*
G04 #@! TA.AperFunction,Conductor*
%ADD21C,0.254000*%
G04 #@! TD*
G04 #@! TA.AperFunction,Conductor*
%ADD22C,0.100000*%
G04 #@! TD*
G04 APERTURE END LIST*
D10*
X139065000Y-36195000D03*
X136525000Y-36195000D03*
D11*
X133985000Y-36195000D03*
D12*
X164465000Y-41275000D03*
D13*
X164465000Y-43815000D03*
D14*
X70485000Y-38735000D03*
D15*
X70485000Y-51435000D03*
D14*
X70485000Y-55245000D03*
D15*
X70485000Y-67945000D03*
D14*
X65405000Y-38735000D03*
D15*
X65405000Y-51435000D03*
D14*
X65405000Y-55245000D03*
D15*
X65405000Y-67945000D03*
D14*
X60325000Y-38735000D03*
D15*
X60325000Y-51435000D03*
D14*
X60325000Y-55245000D03*
D15*
X60325000Y-67945000D03*
D14*
X55245000Y-38735000D03*
D15*
X55245000Y-51435000D03*
D14*
X55245000Y-55245000D03*
D15*
X55245000Y-67945000D03*
D14*
X50165000Y-38735000D03*
D15*
X50165000Y-51435000D03*
D14*
X50165000Y-55245000D03*
D15*
X50165000Y-67945000D03*
D14*
X112395000Y-53975000D03*
D15*
X112395000Y-41275000D03*
D14*
X104775000Y-53975000D03*
D15*
X104775000Y-41275000D03*
D14*
X75565000Y-38735000D03*
D15*
X75565000Y-51435000D03*
D14*
X75565000Y-55245000D03*
D15*
X75565000Y-67945000D03*
D14*
X126365000Y-53975000D03*
D15*
X126365000Y-41275000D03*
D14*
X118745000Y-53975000D03*
D15*
X118745000Y-41275000D03*
D14*
X80645000Y-38735000D03*
D15*
X80645000Y-51435000D03*
D14*
X80645000Y-55245000D03*
D15*
X80645000Y-67945000D03*
D14*
X85725000Y-38735000D03*
D15*
X85725000Y-51435000D03*
D14*
X85725000Y-55245000D03*
D15*
X85725000Y-67945000D03*
D14*
X140335000Y-53975000D03*
D15*
X140335000Y-41275000D03*
D14*
X132715000Y-53975000D03*
D15*
X132715000Y-41275000D03*
D14*
X90805000Y-38735000D03*
D15*
X90805000Y-51435000D03*
D14*
X90805000Y-55245000D03*
D15*
X90805000Y-67945000D03*
D14*
X154305000Y-53975000D03*
D15*
X154305000Y-41275000D03*
D14*
X95885000Y-38735000D03*
D15*
X95885000Y-51435000D03*
D14*
X95885000Y-55245000D03*
D15*
X95885000Y-67945000D03*
D14*
X146685000Y-53975000D03*
D15*
X146685000Y-41275000D03*
D10*
X111125000Y-36195000D03*
X108585000Y-36195000D03*
D11*
X106045000Y-36195000D03*
D10*
X125095000Y-36195000D03*
X122555000Y-36195000D03*
D11*
X120015000Y-36195000D03*
D10*
X153035000Y-36195000D03*
X150495000Y-36195000D03*
D11*
X147955000Y-36195000D03*
D12*
X164465000Y-50165000D03*
D13*
X164465000Y-52705000D03*
D12*
X83185000Y-76835000D03*
X80645000Y-76835000D03*
D13*
X78105000Y-76835000D03*
D12*
X73025000Y-76835000D03*
X70485000Y-76835000D03*
D13*
X67945000Y-76835000D03*
D12*
X62865000Y-76835000D03*
X60325000Y-76835000D03*
D13*
X57785000Y-76835000D03*
D12*
X149225000Y-76835000D03*
D13*
X146685000Y-76835000D03*
D12*
X52705000Y-76835000D03*
X50165000Y-76835000D03*
D13*
X47625000Y-76835000D03*
D12*
X42545000Y-76835000D03*
X40005000Y-76835000D03*
D13*
X37465000Y-76835000D03*
D12*
X37465000Y-71755000D03*
X37465000Y-69215000D03*
X37465000Y-66675000D03*
X37465000Y-64135000D03*
X37465000Y-61595000D03*
X37465000Y-59055000D03*
X37465000Y-56515000D03*
X37465000Y-53975000D03*
X37465000Y-51435000D03*
D13*
X37465000Y-48895000D03*
D12*
X141605000Y-76835000D03*
D13*
X139065000Y-76835000D03*
D12*
X93345000Y-76835000D03*
X90805000Y-76835000D03*
D13*
X88265000Y-76835000D03*
D12*
X156845000Y-76835000D03*
D13*
X154305000Y-76835000D03*
D12*
X103505000Y-76835000D03*
X100965000Y-76835000D03*
D13*
X98425000Y-76835000D03*
D12*
X37465000Y-34925000D03*
X37465000Y-37465000D03*
X37465000Y-40005000D03*
D13*
X37465000Y-42545000D03*
D12*
X113665000Y-76835000D03*
X111125000Y-76835000D03*
D13*
X108585000Y-76835000D03*
D12*
X164465000Y-76835000D03*
D13*
X161925000Y-76835000D03*
D12*
X123825000Y-76835000D03*
X121285000Y-76835000D03*
D13*
X118745000Y-76835000D03*
D12*
X133985000Y-76835000D03*
X131445000Y-76835000D03*
D13*
X128905000Y-76835000D03*
D16*
X149225000Y-69215000D03*
D17*
X149225000Y-59055000D03*
D16*
X141605000Y-69215000D03*
D17*
X141605000Y-59055000D03*
D16*
X156845000Y-69215000D03*
D17*
X156845000Y-59055000D03*
D16*
X164465000Y-69215000D03*
D17*
X164465000Y-59055000D03*
D18*
X150495000Y-54610000D03*
X50800000Y-71120000D03*
X59055000Y-71120000D03*
X67310000Y-71120000D03*
X124460000Y-71120000D03*
X114300000Y-71120000D03*
X104140000Y-71120000D03*
X94419847Y-71475020D03*
X81915000Y-71210000D03*
X76835000Y-71120000D03*
X136525000Y-54610000D03*
X122555000Y-59055000D03*
X108585000Y-54610000D03*
X133985000Y-67945000D03*
X154305000Y-47625000D03*
X140335000Y-47625000D03*
X126365000Y-47625000D03*
X112395000Y-47625000D03*
D19*
X164465000Y-76835000D02*
X164465000Y-69215000D01*
X161925000Y-66675000D02*
X164465000Y-69215000D01*
X161925000Y-59055000D02*
X161925000Y-66675000D01*
X152400000Y-56515000D02*
X159385000Y-56515000D01*
X159385000Y-56515000D02*
X161925000Y-59055000D01*
X150495000Y-54610000D02*
X152400000Y-56515000D01*
D20*
X47625000Y-76835000D02*
X47625000Y-74295000D01*
X47625000Y-74295000D02*
X50165000Y-71755000D01*
X50165000Y-71755000D02*
X50800000Y-71120000D01*
X50800000Y-71120000D02*
X50800000Y-71120000D01*
X57785000Y-72390000D02*
X59055000Y-71120000D01*
X57785000Y-76835000D02*
X57785000Y-72390000D01*
X67945000Y-71755000D02*
X67310000Y-71120000D01*
X67945000Y-76835000D02*
X67945000Y-71755000D01*
X128905000Y-75565000D02*
X124460000Y-71120000D01*
X128905000Y-76835000D02*
X128905000Y-75565000D01*
X118745000Y-76835000D02*
X118745000Y-75565000D01*
X118745000Y-75565000D02*
X114300000Y-71120000D01*
X108585000Y-75565000D02*
X104140000Y-71120000D01*
X108585000Y-76835000D02*
X108585000Y-75565000D01*
X96521410Y-73576583D02*
X94419847Y-71475020D01*
X96521410Y-74931410D02*
X96521410Y-73576583D01*
X98425000Y-76835000D02*
X96521410Y-74931410D01*
X88265000Y-76835000D02*
X88265000Y-73660000D01*
X88265000Y-73660000D02*
X86360000Y-71755000D01*
X82460000Y-71755000D02*
X81915000Y-71210000D01*
X86360000Y-71755000D02*
X82460000Y-71755000D01*
X78105000Y-76835000D02*
X78105000Y-72390000D01*
X78105000Y-72390000D02*
X76835000Y-71120000D01*
D19*
X156845000Y-76835000D02*
X156845000Y-69215000D01*
X136525000Y-54610000D02*
X139065000Y-57150000D01*
X150780002Y-57150000D02*
X153670000Y-60039998D01*
X139065000Y-57150000D02*
X150780002Y-57150000D01*
X153670000Y-66040000D02*
X156845000Y-69215000D01*
X153670000Y-60039998D02*
X153670000Y-66040000D01*
X141605000Y-76835000D02*
X141605000Y-69215000D01*
X122555000Y-59055000D02*
X122555000Y-63500000D01*
X122555000Y-63500000D02*
X123190000Y-64135000D01*
X136525000Y-64135000D02*
X141605000Y-69215000D01*
X123190000Y-64135000D02*
X136525000Y-64135000D01*
X149225000Y-76835000D02*
X149225000Y-69215000D01*
X142240000Y-62230000D02*
X149225000Y-69215000D01*
X130175000Y-62230000D02*
X142240000Y-62230000D01*
X125095000Y-57150000D02*
X130175000Y-62230000D01*
X111125000Y-57150000D02*
X125095000Y-57150000D01*
X108585000Y-54610000D02*
X111125000Y-57150000D01*
X50165000Y-38735000D02*
X95885000Y-38735000D01*
X161925000Y-38735000D02*
X164465000Y-41275000D01*
X160020000Y-45720000D02*
X164465000Y-50165000D01*
X160020000Y-38735000D02*
X160020000Y-45720000D01*
X160020000Y-38735000D02*
X161925000Y-38735000D01*
X153035000Y-37465000D02*
X154305000Y-38735000D01*
X153035000Y-36195000D02*
X153035000Y-37465000D01*
X154305000Y-38735000D02*
X160020000Y-38735000D01*
X139065000Y-37465000D02*
X140335000Y-38735000D01*
X139065000Y-36195000D02*
X139065000Y-37465000D01*
X140335000Y-38735000D02*
X154305000Y-38735000D01*
X125095000Y-37465000D02*
X126365000Y-38735000D01*
X125095000Y-36195000D02*
X125095000Y-37465000D01*
X126365000Y-38735000D02*
X140335000Y-38735000D01*
X111125000Y-37465000D02*
X112395000Y-38735000D01*
X111125000Y-36195000D02*
X111125000Y-37465000D01*
X112395000Y-38735000D02*
X126365000Y-38735000D01*
X95885000Y-38735000D02*
X112395000Y-38735000D01*
X133985000Y-67945000D02*
X133985000Y-76200000D01*
X131445000Y-76414998D02*
X131445000Y-76835000D01*
D20*
X131445000Y-76835000D02*
X123825000Y-69215000D01*
X97155000Y-69215000D02*
X95885000Y-67945000D01*
X123825000Y-69215000D02*
X97155000Y-69215000D01*
X121285000Y-76835000D02*
X114300000Y-69850000D01*
X92710000Y-69850000D02*
X90805000Y-67945000D01*
X114300000Y-69850000D02*
X92710000Y-69850000D01*
X111125000Y-76835000D02*
X104590010Y-70300010D01*
X88080010Y-70300010D02*
X85725000Y-67945000D01*
X104590010Y-70300010D02*
X88080010Y-70300010D01*
X37465000Y-34925000D02*
X40005705Y-37465705D01*
X40005705Y-37465705D02*
X40005705Y-39369295D01*
X40005705Y-39369295D02*
X46541400Y-45904990D01*
X70669990Y-45904990D02*
X72944972Y-48179972D01*
X46541400Y-45904990D02*
X70669990Y-45904990D01*
X100889203Y-48179973D02*
X103879210Y-51169980D01*
X72944972Y-48179972D02*
X100889203Y-48179973D01*
X143879980Y-51169980D02*
X146685000Y-53975000D01*
X103879210Y-51169980D02*
X143879980Y-51169980D01*
X37465000Y-37465000D02*
X46355000Y-46355000D01*
X46355000Y-46355000D02*
X70182331Y-46355000D01*
X70182331Y-46355000D02*
X72457312Y-48629981D01*
X72457312Y-48629981D02*
X100702802Y-48629982D01*
X130359990Y-51619990D02*
X132715000Y-53975000D01*
X103692810Y-51619990D02*
X130359990Y-51619990D01*
X100702802Y-48629982D02*
X103692810Y-51619990D01*
X37465000Y-40005000D02*
X38736410Y-40005000D01*
X38736410Y-40005000D02*
X45721410Y-46990000D01*
X45721410Y-46990000D02*
X69983215Y-46990000D01*
X72073205Y-49079990D02*
X100516401Y-49079991D01*
X69983215Y-46990000D02*
X72073205Y-49079990D01*
X100516401Y-49079991D02*
X103506410Y-52070000D01*
X116840000Y-52070000D02*
X118745000Y-53975000D01*
X103506410Y-52070000D02*
X116840000Y-52070000D01*
X37465000Y-42545000D02*
X40640000Y-42545000D01*
X40640000Y-42545000D02*
X45639970Y-47544970D01*
X45639970Y-47544970D02*
X69769970Y-47544970D01*
X69769970Y-47544970D02*
X71755000Y-49530000D01*
X100330000Y-49530000D02*
X104775000Y-53975000D01*
X71755000Y-49530000D02*
X100330000Y-49530000D01*
X100965000Y-76835000D02*
X94880020Y-70750020D01*
X83450020Y-70750020D02*
X80645000Y-67945000D01*
X94880020Y-70750020D02*
X83450020Y-70750020D01*
X90805000Y-76835000D02*
X90805000Y-72390000D01*
X89615030Y-71200030D02*
X83263619Y-71200029D01*
X90805000Y-72390000D02*
X89615030Y-71200030D01*
X83263619Y-71200029D02*
X82548590Y-70485000D01*
X78105000Y-70485000D02*
X75565000Y-67945000D01*
X82548590Y-70485000D02*
X78105000Y-70485000D01*
D19*
X95885000Y-51435000D02*
X95885000Y-55245000D01*
D20*
X37465000Y-71755000D02*
X42545000Y-71755000D01*
X42545000Y-71755000D02*
X48895000Y-65405000D01*
X85725000Y-65405000D02*
X95885000Y-55245000D01*
X48895000Y-65405000D02*
X85725000Y-65405000D01*
D19*
X90805000Y-55245000D02*
X90805000Y-51435000D01*
D20*
X37465000Y-69215000D02*
X44448590Y-69215000D01*
X44448590Y-69215000D02*
X48708600Y-64954990D01*
X48708600Y-64954990D02*
X85538600Y-64954990D01*
X90805000Y-59688590D02*
X90805000Y-55245000D01*
X85538600Y-64954990D02*
X90805000Y-59688590D01*
D19*
X85725000Y-51435000D02*
X85725000Y-55245000D01*
D20*
X37465000Y-66675000D02*
X46352180Y-66675000D01*
X48522200Y-64504980D02*
X82815020Y-64504980D01*
X46352180Y-66675000D02*
X48522200Y-64504980D01*
X85725000Y-61595000D02*
X85725000Y-55245000D01*
X82815020Y-64504980D02*
X85725000Y-61595000D01*
D19*
X80645000Y-55245000D02*
X80645000Y-51435000D01*
D20*
X80645000Y-62865000D02*
X80645000Y-55245000D01*
X79455030Y-64054970D02*
X80645000Y-62865000D01*
X48335800Y-64054970D02*
X79455030Y-64054970D01*
X48255770Y-64135000D02*
X48335800Y-64054970D01*
X37465000Y-64135000D02*
X48255770Y-64135000D01*
D19*
X75565000Y-51435000D02*
X75565000Y-55245000D01*
D20*
X75565000Y-62230000D02*
X75565000Y-55245000D01*
X74295000Y-63500000D02*
X75565000Y-62230000D01*
X48260000Y-63500000D02*
X74295000Y-63500000D01*
X46355000Y-61595000D02*
X48260000Y-63500000D01*
X37465000Y-61595000D02*
X46355000Y-61595000D01*
D19*
X50165000Y-55245000D02*
X50165000Y-51435000D01*
D20*
X37465000Y-59055000D02*
X44450000Y-59055000D01*
X44450000Y-59055000D02*
X47625000Y-55880000D01*
X47625000Y-53975000D02*
X50165000Y-51435000D01*
X47625000Y-55880000D02*
X47625000Y-53975000D01*
D19*
X55245000Y-51435000D02*
X55245000Y-55245000D01*
D20*
X37465000Y-56515000D02*
X44448590Y-56515000D01*
X44448590Y-56515000D02*
X47625000Y-53338590D01*
X47625000Y-53338590D02*
X47625000Y-50165000D01*
X47625000Y-50165000D02*
X48260000Y-49530000D01*
X53340000Y-49530000D02*
X55245000Y-51435000D01*
X48260000Y-49530000D02*
X53340000Y-49530000D01*
D19*
X60325000Y-55245000D02*
X60325000Y-51435000D01*
D20*
X37465000Y-53975000D02*
X46352180Y-53975000D01*
X46352180Y-53975000D02*
X46990000Y-53337180D01*
X46990000Y-50163590D02*
X48258590Y-48895000D01*
X46990000Y-53337180D02*
X46990000Y-50163590D01*
X57785000Y-48895000D02*
X60325000Y-51435000D01*
X48258590Y-48895000D02*
X57785000Y-48895000D01*
D19*
X65405000Y-51435000D02*
X65405000Y-55245000D01*
D20*
X37465000Y-51435000D02*
X46355000Y-51435000D01*
X46355000Y-51435000D02*
X46355000Y-50162180D01*
X62414990Y-48444990D02*
X65405000Y-51435000D01*
X48072190Y-48444990D02*
X62414990Y-48444990D01*
X46355000Y-50162180D02*
X48072190Y-48444990D01*
D19*
X70485000Y-55245000D02*
X70485000Y-51435000D01*
D20*
X37465000Y-48895000D02*
X46985770Y-48895000D01*
X67044980Y-47994980D02*
X70485000Y-51435000D01*
X47885790Y-47994980D02*
X67044980Y-47994980D01*
X46985770Y-48895000D02*
X47885790Y-47994980D01*
X48895000Y-67945000D02*
X50165000Y-67945000D01*
X40005000Y-76835000D02*
X48895000Y-67945000D01*
X50165000Y-73025000D02*
X55245000Y-67945000D01*
X50165000Y-76835000D02*
X50165000Y-73025000D01*
X60325000Y-76835000D02*
X60325000Y-67945000D01*
X70485000Y-73025000D02*
X65405000Y-67945000D01*
X70485000Y-76835000D02*
X70485000Y-73025000D01*
D19*
X80645000Y-76835000D02*
X80645000Y-76414998D01*
D20*
X80645000Y-76835000D02*
X80645000Y-73661410D01*
X80645000Y-73661410D02*
X76833590Y-69850000D01*
X72390000Y-69850000D02*
X70485000Y-67945000D01*
X76833590Y-69850000D02*
X72390000Y-69850000D01*
X153035000Y-47625000D02*
X146685000Y-41275000D01*
X154305000Y-47625000D02*
X153035000Y-47625000D01*
X139065000Y-47625000D02*
X132715000Y-41275000D01*
X140335000Y-47625000D02*
X139065000Y-47625000D01*
X125095000Y-47625000D02*
X118745000Y-41275000D01*
X126365000Y-47625000D02*
X125095000Y-47625000D01*
X111125000Y-47625000D02*
X104775000Y-41275000D01*
X112395000Y-47625000D02*
X111125000Y-47625000D01*
D21*
X165710001Y-40472364D02*
X165562588Y-40274731D01*
X165346355Y-40079822D01*
X165096252Y-39930843D01*
X164821891Y-39833519D01*
X164592000Y-39954186D01*
X164592000Y-41148000D01*
X164612000Y-41148000D01*
X164612000Y-41402000D01*
X164592000Y-41402000D01*
X164592000Y-41422000D01*
X164338000Y-41422000D01*
X164338000Y-41402000D01*
X163144845Y-41402000D01*
X163023524Y-41631890D01*
X163068175Y-41779099D01*
X163193359Y-42041920D01*
X163367412Y-42275269D01*
X163451466Y-42351034D01*
X163370820Y-42375498D01*
X163260506Y-42434463D01*
X163163815Y-42513815D01*
X163084463Y-42610506D01*
X163025498Y-42720820D01*
X162989188Y-42840518D01*
X162976928Y-42965000D01*
X162976928Y-44665000D01*
X162989188Y-44789482D01*
X163025498Y-44909180D01*
X163084463Y-45019494D01*
X163163815Y-45116185D01*
X163260506Y-45195537D01*
X163370820Y-45254502D01*
X163490518Y-45290812D01*
X163615000Y-45303072D01*
X165315000Y-45303072D01*
X165439482Y-45290812D01*
X165559180Y-45254502D01*
X165669494Y-45195537D01*
X165710000Y-45162295D01*
X165710000Y-49362363D01*
X165562588Y-49164731D01*
X165346355Y-48969822D01*
X165096252Y-48820843D01*
X164821891Y-48723519D01*
X164592000Y-48844186D01*
X164592000Y-50038000D01*
X164612000Y-50038000D01*
X164612000Y-50292000D01*
X164592000Y-50292000D01*
X164592000Y-50312000D01*
X164338000Y-50312000D01*
X164338000Y-50292000D01*
X163144845Y-50292000D01*
X163023524Y-50521890D01*
X163068175Y-50669099D01*
X163193359Y-50931920D01*
X163367412Y-51165269D01*
X163451466Y-51241034D01*
X163370820Y-51265498D01*
X163260506Y-51324463D01*
X163163815Y-51403815D01*
X163084463Y-51500506D01*
X163025498Y-51610820D01*
X162989188Y-51730518D01*
X162976928Y-51855000D01*
X162976928Y-53555000D01*
X162989188Y-53679482D01*
X163025498Y-53799180D01*
X163084463Y-53909494D01*
X163163815Y-54006185D01*
X163260506Y-54085537D01*
X163370820Y-54144502D01*
X163490518Y-54180812D01*
X163615000Y-54193072D01*
X165315000Y-54193072D01*
X165439482Y-54180812D01*
X165559180Y-54144502D01*
X165669494Y-54085537D01*
X165710000Y-54052294D01*
X165710000Y-57335412D01*
X165689482Y-57329188D01*
X165565000Y-57316928D01*
X163365000Y-57316928D01*
X163240518Y-57329188D01*
X163120820Y-57365498D01*
X163010506Y-57424463D01*
X162913815Y-57503815D01*
X162834463Y-57600506D01*
X162775498Y-57710820D01*
X162739188Y-57830518D01*
X162726928Y-57955000D01*
X162726928Y-58244841D01*
X162688141Y-58213009D01*
X160226996Y-55751865D01*
X160191449Y-55708551D01*
X160018623Y-55566716D01*
X159821447Y-55461324D01*
X159607499Y-55396423D01*
X159440752Y-55380000D01*
X159440751Y-55380000D01*
X159385000Y-55374509D01*
X159329249Y-55380000D01*
X155495082Y-55380000D01*
X155730338Y-55144744D01*
X155931156Y-54844199D01*
X156069482Y-54510250D01*
X156140000Y-54155732D01*
X156140000Y-53794268D01*
X156069482Y-53439750D01*
X155931156Y-53105801D01*
X155730338Y-52805256D01*
X155474744Y-52549662D01*
X155174199Y-52348844D01*
X154840250Y-52210518D01*
X154485732Y-52140000D01*
X154124268Y-52140000D01*
X153769750Y-52210518D01*
X153435801Y-52348844D01*
X153135256Y-52549662D01*
X152879662Y-52805256D01*
X152678844Y-53105801D01*
X152540518Y-53439750D01*
X152470000Y-53794268D01*
X152470000Y-54155732D01*
X152540518Y-54510250D01*
X152678844Y-54844199D01*
X152879662Y-55144744D01*
X153114918Y-55380000D01*
X152870132Y-55380000D01*
X151258143Y-53768012D01*
X151128622Y-53661717D01*
X150931446Y-53556324D01*
X150717498Y-53491423D01*
X150495000Y-53469509D01*
X150272502Y-53491423D01*
X150058554Y-53556324D01*
X149861378Y-53661717D01*
X149688552Y-53803552D01*
X149546717Y-53976378D01*
X149441324Y-54173554D01*
X149376423Y-54387502D01*
X149354509Y-54610000D01*
X149376423Y-54832498D01*
X149441324Y-55046446D01*
X149546717Y-55243622D01*
X149653012Y-55373143D01*
X150294869Y-56015000D01*
X139535132Y-56015000D01*
X137314400Y-53794268D01*
X138500000Y-53794268D01*
X138500000Y-54155732D01*
X138570518Y-54510250D01*
X138708844Y-54844199D01*
X138909662Y-55144744D01*
X139165256Y-55400338D01*
X139465801Y-55601156D01*
X139799750Y-55739482D01*
X140154268Y-55810000D01*
X140515732Y-55810000D01*
X140870250Y-55739482D01*
X141204199Y-55601156D01*
X141504744Y-55400338D01*
X141760338Y-55144744D01*
X141961156Y-54844199D01*
X142099482Y-54510250D01*
X142170000Y-54155732D01*
X142170000Y-53794268D01*
X142099482Y-53439750D01*
X141961156Y-53105801D01*
X141760338Y-52805256D01*
X141504744Y-52549662D01*
X141204199Y-52348844D01*
X140870250Y-52210518D01*
X140515732Y-52140000D01*
X140154268Y-52140000D01*
X139799750Y-52210518D01*
X139465801Y-52348844D01*
X139165256Y-52549662D01*
X138909662Y-52805256D01*
X138708844Y-53105801D01*
X138570518Y-53439750D01*
X138500000Y-53794268D01*
X137314400Y-53794268D01*
X137288143Y-53768012D01*
X137158622Y-53661717D01*
X136961446Y-53556324D01*
X136747498Y-53491423D01*
X136525000Y-53469509D01*
X136302502Y-53491423D01*
X136088554Y-53556324D01*
X135891378Y-53661717D01*
X135718552Y-53803552D01*
X135576717Y-53976378D01*
X135471324Y-54173554D01*
X135406423Y-54387502D01*
X135384509Y-54610000D01*
X135406423Y-54832498D01*
X135471324Y-55046446D01*
X135576717Y-55243622D01*
X135683012Y-55373143D01*
X138223009Y-57913141D01*
X138258551Y-57956449D01*
X138431377Y-58098284D01*
X138628553Y-58203676D01*
X138842501Y-58268577D01*
X139009248Y-58285000D01*
X139009257Y-58285000D01*
X139064999Y-58290490D01*
X139120741Y-58285000D01*
X139866928Y-58285000D01*
X139866928Y-60155000D01*
X139879188Y-60279482D01*
X139915498Y-60399180D01*
X139974463Y-60509494D01*
X140053815Y-60606185D01*
X140150506Y-60685537D01*
X140260820Y-60744502D01*
X140380518Y-60780812D01*
X140505000Y-60793072D01*
X142705000Y-60793072D01*
X142829482Y-60780812D01*
X142949180Y-60744502D01*
X143059494Y-60685537D01*
X143156185Y-60606185D01*
X143235537Y-60509494D01*
X143294502Y-60399180D01*
X143330812Y-60279482D01*
X143343072Y-60155000D01*
X143343072Y-58285000D01*
X147486928Y-58285000D01*
X147486928Y-60155000D01*
X147499188Y-60279482D01*
X147535498Y-60399180D01*
X147594463Y-60509494D01*
X147673815Y-60606185D01*
X147770506Y-60685537D01*
X147880820Y-60744502D01*
X148000518Y-60780812D01*
X148125000Y-60793072D01*
X150325000Y-60793072D01*
X150449482Y-60780812D01*
X150569180Y-60744502D01*
X150679494Y-60685537D01*
X150776185Y-60606185D01*
X150855537Y-60509494D01*
X150914502Y-60399180D01*
X150950812Y-60279482D01*
X150963072Y-60155000D01*
X150963072Y-58938201D01*
X152535000Y-60510130D01*
X152535001Y-65984239D01*
X152529509Y-66040000D01*
X152551423Y-66262498D01*
X152616324Y-66476446D01*
X152642819Y-66526014D01*
X152721717Y-66673623D01*
X152863552Y-66846449D01*
X152906860Y-66881991D01*
X155110000Y-69085132D01*
X155110000Y-69385883D01*
X155176675Y-69721081D01*
X155307463Y-70036831D01*
X155497337Y-70320998D01*
X155710001Y-70533662D01*
X155710000Y-75676273D01*
X155685537Y-75630506D01*
X155606185Y-75533815D01*
X155509494Y-75454463D01*
X155399180Y-75395498D01*
X155279482Y-75359188D01*
X155155000Y-75346928D01*
X153455000Y-75346928D01*
X153330518Y-75359188D01*
X153210820Y-75395498D01*
X153100506Y-75454463D01*
X153003815Y-75533815D01*
X152924463Y-75630506D01*
X152865498Y-75740820D01*
X152829188Y-75860518D01*
X152816928Y-75985000D01*
X152816928Y-77685000D01*
X152829188Y-77809482D01*
X152865498Y-77929180D01*
X152924463Y-78039494D01*
X152957705Y-78080000D01*
X150034655Y-78080000D01*
X150171632Y-77988475D01*
X150378475Y-77781632D01*
X150540990Y-77538411D01*
X150652932Y-77268158D01*
X150710000Y-76981260D01*
X150710000Y-76688740D01*
X150652932Y-76401842D01*
X150540990Y-76131589D01*
X150378475Y-75888368D01*
X150360000Y-75869893D01*
X150360000Y-70533661D01*
X150572663Y-70320998D01*
X150762537Y-70036831D01*
X150893325Y-69721081D01*
X150960000Y-69385883D01*
X150960000Y-69044117D01*
X150893325Y-68708919D01*
X150762537Y-68393169D01*
X150572663Y-68109002D01*
X150330998Y-67867337D01*
X150046831Y-67677463D01*
X149731081Y-67546675D01*
X149395883Y-67480000D01*
X149095133Y-67480000D01*
X143081996Y-61466865D01*
X143046449Y-61423551D01*
X142873623Y-61281716D01*
X142676447Y-61176324D01*
X142462499Y-61111423D01*
X142295752Y-61095000D01*
X142295751Y-61095000D01*
X142240000Y-61089509D01*
X142184249Y-61095000D01*
X130645132Y-61095000D01*
X125936996Y-56386865D01*
X125901449Y-56343551D01*
X125728623Y-56201716D01*
X125531447Y-56096324D01*
X125317499Y-56031423D01*
X125150752Y-56015000D01*
X125150751Y-56015000D01*
X125095000Y-56009509D01*
X125039249Y-56015000D01*
X111595132Y-56015000D01*
X109348143Y-53768012D01*
X109218622Y-53661717D01*
X109021446Y-53556324D01*
X108807498Y-53491423D01*
X108585000Y-53469509D01*
X108362502Y-53491423D01*
X108148554Y-53556324D01*
X107951378Y-53661717D01*
X107778552Y-53803552D01*
X107636717Y-53976378D01*
X107531324Y-54173554D01*
X107466423Y-54387502D01*
X107444509Y-54610000D01*
X107466423Y-54832498D01*
X107531324Y-55046446D01*
X107636717Y-55243622D01*
X107743012Y-55373143D01*
X110283009Y-57913141D01*
X110318551Y-57956449D01*
X110491377Y-58098284D01*
X110688553Y-58203676D01*
X110902501Y-58268577D01*
X111069248Y-58285000D01*
X111069257Y-58285000D01*
X111124999Y-58290490D01*
X111180741Y-58285000D01*
X121718638Y-58285000D01*
X121606716Y-58421377D01*
X121501324Y-58618554D01*
X121436423Y-58832502D01*
X121420000Y-58999249D01*
X121420001Y-63444239D01*
X121414509Y-63500000D01*
X121436423Y-63722498D01*
X121501324Y-63936446D01*
X121550384Y-64028230D01*
X121606717Y-64133623D01*
X121748552Y-64306449D01*
X121791860Y-64341991D01*
X122348008Y-64898140D01*
X122383551Y-64941449D01*
X122556377Y-65083284D01*
X122753553Y-65188676D01*
X122967501Y-65253577D01*
X122992245Y-65256014D01*
X123190000Y-65275491D01*
X123245752Y-65270000D01*
X136054869Y-65270000D01*
X139870000Y-69085132D01*
X139870000Y-69385883D01*
X139936675Y-69721081D01*
X140067463Y-70036831D01*
X140257337Y-70320998D01*
X140470001Y-70533662D01*
X140470000Y-75676273D01*
X140445537Y-75630506D01*
X140366185Y-75533815D01*
X140269494Y-75454463D01*
X140159180Y-75395498D01*
X140039482Y-75359188D01*
X139915000Y-75346928D01*
X138215000Y-75346928D01*
X138090518Y-75359188D01*
X137970820Y-75395498D01*
X137860506Y-75454463D01*
X137763815Y-75533815D01*
X137684463Y-75630506D01*
X137625498Y-75740820D01*
X137589188Y-75860518D01*
X137576928Y-75985000D01*
X137576928Y-77685000D01*
X137589188Y-77809482D01*
X137625498Y-77929180D01*
X137684463Y-78039494D01*
X137717705Y-78080000D01*
X134787637Y-78080000D01*
X134985269Y-77932588D01*
X135180178Y-77716355D01*
X135329157Y-77466252D01*
X135426481Y-77191891D01*
X135305814Y-76962000D01*
X134112000Y-76962000D01*
X134112000Y-76982000D01*
X133858000Y-76982000D01*
X133858000Y-76962000D01*
X133838000Y-76962000D01*
X133838000Y-76708000D01*
X133858000Y-76708000D01*
X133858000Y-75514845D01*
X134112000Y-75514845D01*
X134112000Y-76708000D01*
X135305814Y-76708000D01*
X135426481Y-76478109D01*
X135329157Y-76203748D01*
X135180178Y-75953645D01*
X134985269Y-75737412D01*
X134751920Y-75563359D01*
X134489099Y-75438175D01*
X134341890Y-75393524D01*
X134112000Y-75514845D01*
X133858000Y-75514845D01*
X133628110Y-75393524D01*
X133480901Y-75438175D01*
X133218080Y-75563359D01*
X132984731Y-75737412D01*
X132789822Y-75953645D01*
X132720195Y-76070534D01*
X132598475Y-75888368D01*
X132391632Y-75681525D01*
X132148411Y-75519010D01*
X132136165Y-75513938D01*
X132078623Y-75466714D01*
X131881446Y-75361322D01*
X131667498Y-75296421D01*
X131445000Y-75274507D01*
X131222501Y-75296421D01*
X131037379Y-75352578D01*
X124388804Y-68704003D01*
X124365001Y-68674999D01*
X124249276Y-68580026D01*
X124117247Y-68509454D01*
X123973986Y-68465997D01*
X123862333Y-68455000D01*
X123862322Y-68455000D01*
X123825000Y-68451324D01*
X123787678Y-68455000D01*
X97654505Y-68455000D01*
X97720000Y-68125732D01*
X97720000Y-67764268D01*
X97649482Y-67409750D01*
X97511156Y-67075801D01*
X97310338Y-66775256D01*
X97054744Y-66519662D01*
X96754199Y-66318844D01*
X96420250Y-66180518D01*
X96065732Y-66110000D01*
X95704268Y-66110000D01*
X95349750Y-66180518D01*
X95015801Y-66318844D01*
X94715256Y-66519662D01*
X94459662Y-66775256D01*
X94258844Y-67075801D01*
X94120518Y-67409750D01*
X94050000Y-67764268D01*
X94050000Y-68125732D01*
X94120518Y-68480250D01*
X94258844Y-68814199D01*
X94443129Y-69090000D01*
X93024802Y-69090000D01*
X92524250Y-68589449D01*
X92569482Y-68480250D01*
X92640000Y-68125732D01*
X92640000Y-67764268D01*
X92569482Y-67409750D01*
X92431156Y-67075801D01*
X92230338Y-66775256D01*
X91974744Y-66519662D01*
X91674199Y-66318844D01*
X91340250Y-66180518D01*
X90985732Y-66110000D01*
X90624268Y-66110000D01*
X90269750Y-66180518D01*
X89935801Y-66318844D01*
X89635256Y-66519662D01*
X89379662Y-66775256D01*
X89178844Y-67075801D01*
X89040518Y-67409750D01*
X88970000Y-67764268D01*
X88970000Y-68125732D01*
X89040518Y-68480250D01*
X89178844Y-68814199D01*
X89379662Y-69114744D01*
X89635256Y-69370338D01*
X89889188Y-69540010D01*
X88394812Y-69540010D01*
X87444250Y-68589449D01*
X87489482Y-68480250D01*
X87560000Y-68125732D01*
X87560000Y-67764268D01*
X87489482Y-67409750D01*
X87351156Y-67075801D01*
X87150338Y-66775256D01*
X86894744Y-66519662D01*
X86594199Y-66318844D01*
X86260250Y-66180518D01*
X85974170Y-66123613D01*
X86017247Y-66110546D01*
X86149276Y-66039974D01*
X86265001Y-65945001D01*
X86288804Y-65915997D01*
X90249100Y-61955701D01*
X102625000Y-61955701D01*
X102625000Y-62504299D01*
X102732026Y-63042354D01*
X102941965Y-63549192D01*
X103246750Y-64005334D01*
X103634666Y-64393250D01*
X104090808Y-64698035D01*
X104597646Y-64907974D01*
X105135701Y-65015000D01*
X105684299Y-65015000D01*
X106222354Y-64907974D01*
X106729192Y-64698035D01*
X107185334Y-64393250D01*
X107573250Y-64005334D01*
X107878035Y-63549192D01*
X108087974Y-63042354D01*
X108195000Y-62504299D01*
X108195000Y-61955701D01*
X108087974Y-61417646D01*
X107878035Y-60910808D01*
X107573250Y-60454666D01*
X107185334Y-60066750D01*
X106729192Y-59761965D01*
X106222354Y-59552026D01*
X105684299Y-59445000D01*
X105135701Y-59445000D01*
X104597646Y-59552026D01*
X104090808Y-59761965D01*
X103634666Y-60066750D01*
X103246750Y-60454666D01*
X102941965Y-60910808D01*
X102732026Y-61417646D01*
X102625000Y-61955701D01*
X90249100Y-61955701D01*
X95240551Y-56964251D01*
X95349750Y-57009482D01*
X95704268Y-57080000D01*
X96065732Y-57080000D01*
X96420250Y-57009482D01*
X96754199Y-56871156D01*
X97054744Y-56670338D01*
X97310338Y-56414744D01*
X97511156Y-56114199D01*
X97649482Y-55780250D01*
X97720000Y-55425732D01*
X97720000Y-55064268D01*
X97649482Y-54709750D01*
X97511156Y-54375801D01*
X97310338Y-54075256D01*
X97054744Y-53819662D01*
X97020000Y-53796447D01*
X97020000Y-52883553D01*
X97054744Y-52860338D01*
X97310338Y-52604744D01*
X97511156Y-52304199D01*
X97649482Y-51970250D01*
X97720000Y-51615732D01*
X97720000Y-51254268D01*
X97649482Y-50899750D01*
X97511156Y-50565801D01*
X97326871Y-50290000D01*
X100015199Y-50290000D01*
X103055750Y-53330551D01*
X103010518Y-53439750D01*
X102940000Y-53794268D01*
X102940000Y-54155732D01*
X103010518Y-54510250D01*
X103148844Y-54844199D01*
X103349662Y-55144744D01*
X103605256Y-55400338D01*
X103905801Y-55601156D01*
X104239750Y-55739482D01*
X104594268Y-55810000D01*
X104955732Y-55810000D01*
X105310250Y-55739482D01*
X105644199Y-55601156D01*
X105944744Y-55400338D01*
X106200338Y-55144744D01*
X106401156Y-54844199D01*
X106539482Y-54510250D01*
X106610000Y-54155732D01*
X106610000Y-53794268D01*
X106539482Y-53439750D01*
X106401156Y-53105801D01*
X106216871Y-52830000D01*
X110953129Y-52830000D01*
X110768844Y-53105801D01*
X110630518Y-53439750D01*
X110560000Y-53794268D01*
X110560000Y-54155732D01*
X110630518Y-54510250D01*
X110768844Y-54844199D01*
X110969662Y-55144744D01*
X111225256Y-55400338D01*
X111525801Y-55601156D01*
X111859750Y-55739482D01*
X112214268Y-55810000D01*
X112575732Y-55810000D01*
X112930250Y-55739482D01*
X113264199Y-55601156D01*
X113564744Y-55400338D01*
X113820338Y-55144744D01*
X114021156Y-54844199D01*
X114159482Y-54510250D01*
X114230000Y-54155732D01*
X114230000Y-53794268D01*
X114159482Y-53439750D01*
X114021156Y-53105801D01*
X113836871Y-52830000D01*
X116525199Y-52830000D01*
X117025750Y-53330551D01*
X116980518Y-53439750D01*
X116910000Y-53794268D01*
X116910000Y-54155732D01*
X116980518Y-54510250D01*
X117118844Y-54844199D01*
X117319662Y-55144744D01*
X117575256Y-55400338D01*
X117875801Y-55601156D01*
X118209750Y-55739482D01*
X118564268Y-55810000D01*
X118925732Y-55810000D01*
X119280250Y-55739482D01*
X119614199Y-55601156D01*
X119914744Y-55400338D01*
X120170338Y-55144744D01*
X120371156Y-54844199D01*
X120509482Y-54510250D01*
X120580000Y-54155732D01*
X120580000Y-53794268D01*
X120509482Y-53439750D01*
X120371156Y-53105801D01*
X120170338Y-52805256D01*
X119914744Y-52549662D01*
X119660812Y-52379990D01*
X125449188Y-52379990D01*
X125195256Y-52549662D01*
X124939662Y-52805256D01*
X124738844Y-53105801D01*
X124600518Y-53439750D01*
X124530000Y-53794268D01*
X124530000Y-54155732D01*
X124600518Y-54510250D01*
X124738844Y-54844199D01*
X124939662Y-55144744D01*
X125195256Y-55400338D01*
X125495801Y-55601156D01*
X125829750Y-55739482D01*
X126184268Y-55810000D01*
X126545732Y-55810000D01*
X126900250Y-55739482D01*
X127234199Y-55601156D01*
X127534744Y-55400338D01*
X127790338Y-55144744D01*
X127991156Y-54844199D01*
X128129482Y-54510250D01*
X128200000Y-54155732D01*
X128200000Y-53794268D01*
X128129482Y-53439750D01*
X127991156Y-53105801D01*
X127790338Y-52805256D01*
X127534744Y-52549662D01*
X127280812Y-52379990D01*
X130045189Y-52379990D01*
X130995750Y-53330551D01*
X130950518Y-53439750D01*
X130880000Y-53794268D01*
X130880000Y-54155732D01*
X130950518Y-54510250D01*
X131088844Y-54844199D01*
X131289662Y-55144744D01*
X131545256Y-55400338D01*
X131845801Y-55601156D01*
X132179750Y-55739482D01*
X132534268Y-55810000D01*
X132895732Y-55810000D01*
X133250250Y-55739482D01*
X133584199Y-55601156D01*
X133884744Y-55400338D01*
X134140338Y-55144744D01*
X134341156Y-54844199D01*
X134479482Y-54510250D01*
X134550000Y-54155732D01*
X134550000Y-53794268D01*
X134479482Y-53439750D01*
X134341156Y-53105801D01*
X134140338Y-52805256D01*
X133884744Y-52549662D01*
X133584199Y-52348844D01*
X133250250Y-52210518D01*
X132895732Y-52140000D01*
X132534268Y-52140000D01*
X132179750Y-52210518D01*
X132070551Y-52255750D01*
X131744781Y-51929980D01*
X143565179Y-51929980D01*
X144965750Y-53330551D01*
X144920518Y-53439750D01*
X144850000Y-53794268D01*
X144850000Y-54155732D01*
X144920518Y-54510250D01*
X145058844Y-54844199D01*
X145259662Y-55144744D01*
X145515256Y-55400338D01*
X145815801Y-55601156D01*
X146149750Y-55739482D01*
X146504268Y-55810000D01*
X146865732Y-55810000D01*
X147220250Y-55739482D01*
X147554199Y-55601156D01*
X147854744Y-55400338D01*
X148110338Y-55144744D01*
X148311156Y-54844199D01*
X148449482Y-54510250D01*
X148520000Y-54155732D01*
X148520000Y-53794268D01*
X148449482Y-53439750D01*
X148311156Y-53105801D01*
X148110338Y-52805256D01*
X147854744Y-52549662D01*
X147554199Y-52348844D01*
X147220250Y-52210518D01*
X146865732Y-52140000D01*
X146504268Y-52140000D01*
X146149750Y-52210518D01*
X146040551Y-52255750D01*
X144443784Y-50658983D01*
X144419981Y-50629979D01*
X144304256Y-50535006D01*
X144172227Y-50464434D01*
X144028966Y-50420977D01*
X143917313Y-50409980D01*
X143917302Y-50409980D01*
X143879980Y-50406304D01*
X143842658Y-50409980D01*
X104194013Y-50409980D01*
X103592143Y-49808110D01*
X163023524Y-49808110D01*
X163144845Y-50038000D01*
X164338000Y-50038000D01*
X164338000Y-48844186D01*
X164108109Y-48723519D01*
X163833748Y-48820843D01*
X163583645Y-48969822D01*
X163367412Y-49164731D01*
X163193359Y-49398080D01*
X163068175Y-49660901D01*
X163023524Y-49808110D01*
X103592143Y-49808110D01*
X101453002Y-47668971D01*
X101429204Y-47639973D01*
X101400205Y-47616174D01*
X101313479Y-47544999D01*
X101181449Y-47474427D01*
X101081645Y-47444153D01*
X101038189Y-47430971D01*
X100926536Y-47419974D01*
X100889203Y-47416297D01*
X100851871Y-47419974D01*
X73259775Y-47419972D01*
X71233794Y-45393992D01*
X71209991Y-45364989D01*
X71094266Y-45270016D01*
X70962237Y-45199444D01*
X70818976Y-45155987D01*
X70707323Y-45144990D01*
X70707312Y-45144990D01*
X70669990Y-45141314D01*
X70632668Y-45144990D01*
X46856202Y-45144990D01*
X42805480Y-41094268D01*
X102940000Y-41094268D01*
X102940000Y-41455732D01*
X103010518Y-41810250D01*
X103148844Y-42144199D01*
X103349662Y-42444744D01*
X103605256Y-42700338D01*
X103905801Y-42901156D01*
X104239750Y-43039482D01*
X104594268Y-43110000D01*
X104955732Y-43110000D01*
X105310250Y-43039482D01*
X105419449Y-42994250D01*
X110561201Y-48136003D01*
X110584999Y-48165001D01*
X110613997Y-48188799D01*
X110700723Y-48259974D01*
X110806129Y-48316315D01*
X110832753Y-48330546D01*
X110976014Y-48374003D01*
X111087667Y-48385000D01*
X111087676Y-48385000D01*
X111124999Y-48388676D01*
X111162322Y-48385000D01*
X111691289Y-48385000D01*
X111735226Y-48428937D01*
X111904744Y-48542205D01*
X112093102Y-48620226D01*
X112293061Y-48660000D01*
X112496939Y-48660000D01*
X112696898Y-48620226D01*
X112885256Y-48542205D01*
X113054774Y-48428937D01*
X113198937Y-48284774D01*
X113312205Y-48115256D01*
X113390226Y-47926898D01*
X113430000Y-47726939D01*
X113430000Y-47523061D01*
X113390226Y-47323102D01*
X113312205Y-47134744D01*
X113198937Y-46965226D01*
X113054774Y-46821063D01*
X112885256Y-46707795D01*
X112696898Y-46629774D01*
X112496939Y-46590000D01*
X112293061Y-46590000D01*
X112093102Y-46629774D01*
X111904744Y-46707795D01*
X111735226Y-46821063D01*
X111691289Y-46865000D01*
X111439802Y-46865000D01*
X107127782Y-42552980D01*
X111296626Y-42552980D01*
X111416514Y-42837836D01*
X111740210Y-42998699D01*
X112089069Y-43093322D01*
X112449684Y-43118067D01*
X112808198Y-43071985D01*
X113150833Y-42956846D01*
X113373486Y-42837836D01*
X113493374Y-42552980D01*
X112395000Y-41454605D01*
X111296626Y-42552980D01*
X107127782Y-42552980D01*
X106494250Y-41919449D01*
X106539482Y-41810250D01*
X106610000Y-41455732D01*
X106610000Y-41329684D01*
X110551933Y-41329684D01*
X110598015Y-41688198D01*
X110713154Y-42030833D01*
X110832164Y-42253486D01*
X111117020Y-42373374D01*
X112215395Y-41275000D01*
X112574605Y-41275000D01*
X113672980Y-42373374D01*
X113957836Y-42253486D01*
X114118699Y-41929790D01*
X114213322Y-41580931D01*
X114238067Y-41220316D01*
X114221866Y-41094268D01*
X116910000Y-41094268D01*
X116910000Y-41455732D01*
X116980518Y-41810250D01*
X117118844Y-42144199D01*
X117319662Y-42444744D01*
X117575256Y-42700338D01*
X117875801Y-42901156D01*
X118209750Y-43039482D01*
X118564268Y-43110000D01*
X118925732Y-43110000D01*
X119280250Y-43039482D01*
X119389449Y-42994250D01*
X124531201Y-48136003D01*
X124554999Y-48165001D01*
X124583997Y-48188799D01*
X124670723Y-48259974D01*
X124776129Y-48316315D01*
X124802753Y-48330546D01*
X124946014Y-48374003D01*
X125057667Y-48385000D01*
X125057676Y-48385000D01*
X125094999Y-48388676D01*
X125132322Y-48385000D01*
X125661289Y-48385000D01*
X125705226Y-48428937D01*
X125874744Y-48542205D01*
X126063102Y-48620226D01*
X126263061Y-48660000D01*
X126466939Y-48660000D01*
X126666898Y-48620226D01*
X126855256Y-48542205D01*
X127024774Y-48428937D01*
X127168937Y-48284774D01*
X127282205Y-48115256D01*
X127360226Y-47926898D01*
X127400000Y-47726939D01*
X127400000Y-47523061D01*
X127360226Y-47323102D01*
X127282205Y-47134744D01*
X127168937Y-46965226D01*
X127024774Y-46821063D01*
X126855256Y-46707795D01*
X126666898Y-46629774D01*
X126466939Y-46590000D01*
X126263061Y-46590000D01*
X126063102Y-46629774D01*
X125874744Y-46707795D01*
X125705226Y-46821063D01*
X125661289Y-46865000D01*
X125409802Y-46865000D01*
X121097782Y-42552980D01*
X125266626Y-42552980D01*
X125386514Y-42837836D01*
X125710210Y-42998699D01*
X126059069Y-43093322D01*
X126419684Y-43118067D01*
X126778198Y-43071985D01*
X127120833Y-42956846D01*
X127343486Y-42837836D01*
X127463374Y-42552980D01*
X126365000Y-41454605D01*
X125266626Y-42552980D01*
X121097782Y-42552980D01*
X120464250Y-41919449D01*
X120509482Y-41810250D01*
X120580000Y-41455732D01*
X120580000Y-41329684D01*
X124521933Y-41329684D01*
X124568015Y-41688198D01*
X124683154Y-42030833D01*
X124802164Y-42253486D01*
X125087020Y-42373374D01*
X126185395Y-41275000D01*
X126544605Y-41275000D01*
X127642980Y-42373374D01*
X127927836Y-42253486D01*
X128088699Y-41929790D01*
X128183322Y-41580931D01*
X128208067Y-41220316D01*
X128191866Y-41094268D01*
X130880000Y-41094268D01*
X130880000Y-41455732D01*
X130950518Y-41810250D01*
X131088844Y-42144199D01*
X131289662Y-42444744D01*
X131545256Y-42700338D01*
X131845801Y-42901156D01*
X132179750Y-43039482D01*
X132534268Y-43110000D01*
X132895732Y-43110000D01*
X133250250Y-43039482D01*
X133359449Y-42994250D01*
X138501201Y-48136003D01*
X138524999Y-48165001D01*
X138553997Y-48188799D01*
X138640723Y-48259974D01*
X138746129Y-48316315D01*
X138772753Y-48330546D01*
X138916014Y-48374003D01*
X139027667Y-48385000D01*
X139027676Y-48385000D01*
X139064999Y-48388676D01*
X139102322Y-48385000D01*
X139631289Y-48385000D01*
X139675226Y-48428937D01*
X139844744Y-48542205D01*
X140033102Y-48620226D01*
X140233061Y-48660000D01*
X140436939Y-48660000D01*
X140636898Y-48620226D01*
X140825256Y-48542205D01*
X140994774Y-48428937D01*
X141138937Y-48284774D01*
X141252205Y-48115256D01*
X141330226Y-47926898D01*
X141370000Y-47726939D01*
X141370000Y-47523061D01*
X141330226Y-47323102D01*
X141252205Y-47134744D01*
X141138937Y-46965226D01*
X140994774Y-46821063D01*
X140825256Y-46707795D01*
X140636898Y-46629774D01*
X140436939Y-46590000D01*
X140233061Y-46590000D01*
X140033102Y-46629774D01*
X139844744Y-46707795D01*
X139675226Y-46821063D01*
X139631289Y-46865000D01*
X139379802Y-46865000D01*
X135067782Y-42552980D01*
X139236626Y-42552980D01*
X139356514Y-42837836D01*
X139680210Y-42998699D01*
X140029069Y-43093322D01*
X140389684Y-43118067D01*
X140748198Y-43071985D01*
X141090833Y-42956846D01*
X141313486Y-42837836D01*
X141433374Y-42552980D01*
X140335000Y-41454605D01*
X139236626Y-42552980D01*
X135067782Y-42552980D01*
X134434250Y-41919449D01*
X134479482Y-41810250D01*
X134550000Y-41455732D01*
X134550000Y-41329684D01*
X138491933Y-41329684D01*
X138538015Y-41688198D01*
X138653154Y-42030833D01*
X138772164Y-42253486D01*
X139057020Y-42373374D01*
X140155395Y-41275000D01*
X140514605Y-41275000D01*
X141612980Y-42373374D01*
X141897836Y-42253486D01*
X142058699Y-41929790D01*
X142153322Y-41580931D01*
X142178067Y-41220316D01*
X142161866Y-41094268D01*
X144850000Y-41094268D01*
X144850000Y-41455732D01*
X144920518Y-41810250D01*
X145058844Y-42144199D01*
X145259662Y-42444744D01*
X145515256Y-42700338D01*
X145815801Y-42901156D01*
X146149750Y-43039482D01*
X146504268Y-43110000D01*
X146865732Y-43110000D01*
X147220250Y-43039482D01*
X147329449Y-42994250D01*
X152471201Y-48136003D01*
X152494999Y-48165001D01*
X152523997Y-48188799D01*
X152610723Y-48259974D01*
X152716129Y-48316315D01*
X152742753Y-48330546D01*
X152886014Y-48374003D01*
X152997667Y-48385000D01*
X152997676Y-48385000D01*
X153034999Y-48388676D01*
X153072322Y-48385000D01*
X153601289Y-48385000D01*
X153645226Y-48428937D01*
X153814744Y-48542205D01*
X154003102Y-48620226D01*
X154203061Y-48660000D01*
X154406939Y-48660000D01*
X154606898Y-48620226D01*
X154795256Y-48542205D01*
X154964774Y-48428937D01*
X155108937Y-48284774D01*
X155222205Y-48115256D01*
X155300226Y-47926898D01*
X155340000Y-47726939D01*
X155340000Y-47523061D01*
X155300226Y-47323102D01*
X155222205Y-47134744D01*
X155108937Y-46965226D01*
X154964774Y-46821063D01*
X154795256Y-46707795D01*
X154606898Y-46629774D01*
X154406939Y-46590000D01*
X154203061Y-46590000D01*
X154003102Y-46629774D01*
X153814744Y-46707795D01*
X153645226Y-46821063D01*
X153601289Y-46865000D01*
X153349802Y-46865000D01*
X149037782Y-42552980D01*
X153206626Y-42552980D01*
X153326514Y-42837836D01*
X153650210Y-42998699D01*
X153999069Y-43093322D01*
X154359684Y-43118067D01*
X154718198Y-43071985D01*
X155060833Y-42956846D01*
X155283486Y-42837836D01*
X155403374Y-42552980D01*
X154305000Y-41454605D01*
X153206626Y-42552980D01*
X149037782Y-42552980D01*
X148404250Y-41919449D01*
X148449482Y-41810250D01*
X148520000Y-41455732D01*
X148520000Y-41329684D01*
X152461933Y-41329684D01*
X152508015Y-41688198D01*
X152623154Y-42030833D01*
X152742164Y-42253486D01*
X153027020Y-42373374D01*
X154125395Y-41275000D01*
X154484605Y-41275000D01*
X155582980Y-42373374D01*
X155867836Y-42253486D01*
X156028699Y-41929790D01*
X156123322Y-41580931D01*
X156148067Y-41220316D01*
X156109223Y-40918110D01*
X163023524Y-40918110D01*
X163144845Y-41148000D01*
X164338000Y-41148000D01*
X164338000Y-39954186D01*
X164108109Y-39833519D01*
X163833748Y-39930843D01*
X163583645Y-40079822D01*
X163367412Y-40274731D01*
X163193359Y-40508080D01*
X163068175Y-40770901D01*
X163023524Y-40918110D01*
X156109223Y-40918110D01*
X156101985Y-40861802D01*
X155986846Y-40519167D01*
X155867836Y-40296514D01*
X155582980Y-40176626D01*
X154484605Y-41275000D01*
X154125395Y-41275000D01*
X153027020Y-40176626D01*
X152742164Y-40296514D01*
X152581301Y-40620210D01*
X152486678Y-40969069D01*
X152461933Y-41329684D01*
X148520000Y-41329684D01*
X148520000Y-41094268D01*
X148449482Y-40739750D01*
X148311156Y-40405801D01*
X148110338Y-40105256D01*
X148002102Y-39997020D01*
X153206626Y-39997020D01*
X154305000Y-41095395D01*
X155403374Y-39997020D01*
X155283486Y-39712164D01*
X154959790Y-39551301D01*
X154610931Y-39456678D01*
X154250316Y-39431933D01*
X153891802Y-39478015D01*
X153549167Y-39593154D01*
X153326514Y-39712164D01*
X153206626Y-39997020D01*
X148002102Y-39997020D01*
X147854744Y-39849662D01*
X147554199Y-39648844D01*
X147220250Y-39510518D01*
X146865732Y-39440000D01*
X146504268Y-39440000D01*
X146149750Y-39510518D01*
X145815801Y-39648844D01*
X145515256Y-39849662D01*
X145259662Y-40105256D01*
X145058844Y-40405801D01*
X144920518Y-40739750D01*
X144850000Y-41094268D01*
X142161866Y-41094268D01*
X142131985Y-40861802D01*
X142016846Y-40519167D01*
X141897836Y-40296514D01*
X141612980Y-40176626D01*
X140514605Y-41275000D01*
X140155395Y-41275000D01*
X139057020Y-40176626D01*
X138772164Y-40296514D01*
X138611301Y-40620210D01*
X138516678Y-40969069D01*
X138491933Y-41329684D01*
X134550000Y-41329684D01*
X134550000Y-41094268D01*
X134479482Y-40739750D01*
X134341156Y-40405801D01*
X134140338Y-40105256D01*
X134032102Y-39997020D01*
X139236626Y-39997020D01*
X140335000Y-41095395D01*
X141433374Y-39997020D01*
X141313486Y-39712164D01*
X140989790Y-39551301D01*
X140640931Y-39456678D01*
X140280316Y-39431933D01*
X139921802Y-39478015D01*
X139579167Y-39593154D01*
X139356514Y-39712164D01*
X139236626Y-39997020D01*
X134032102Y-39997020D01*
X133884744Y-39849662D01*
X133584199Y-39648844D01*
X133250250Y-39510518D01*
X132895732Y-39440000D01*
X132534268Y-39440000D01*
X132179750Y-39510518D01*
X131845801Y-39648844D01*
X131545256Y-39849662D01*
X131289662Y-40105256D01*
X131088844Y-40405801D01*
X130950518Y-40739750D01*
X130880000Y-41094268D01*
X128191866Y-41094268D01*
X128161985Y-40861802D01*
X128046846Y-40519167D01*
X127927836Y-40296514D01*
X127642980Y-40176626D01*
X126544605Y-41275000D01*
X126185395Y-41275000D01*
X125087020Y-40176626D01*
X124802164Y-40296514D01*
X124641301Y-40620210D01*
X124546678Y-40969069D01*
X124521933Y-41329684D01*
X120580000Y-41329684D01*
X120580000Y-41094268D01*
X120509482Y-40739750D01*
X120371156Y-40405801D01*
X120170338Y-40105256D01*
X120062102Y-39997020D01*
X125266626Y-39997020D01*
X126365000Y-41095395D01*
X127463374Y-39997020D01*
X127343486Y-39712164D01*
X127019790Y-39551301D01*
X126670931Y-39456678D01*
X126310316Y-39431933D01*
X125951802Y-39478015D01*
X125609167Y-39593154D01*
X125386514Y-39712164D01*
X125266626Y-39997020D01*
X120062102Y-39997020D01*
X119914744Y-39849662D01*
X119614199Y-39648844D01*
X119280250Y-39510518D01*
X118925732Y-39440000D01*
X118564268Y-39440000D01*
X118209750Y-39510518D01*
X117875801Y-39648844D01*
X117575256Y-39849662D01*
X117319662Y-40105256D01*
X117118844Y-40405801D01*
X116980518Y-40739750D01*
X116910000Y-41094268D01*
X114221866Y-41094268D01*
X114191985Y-40861802D01*
X114076846Y-40519167D01*
X113957836Y-40296514D01*
X113672980Y-40176626D01*
X112574605Y-41275000D01*
X112215395Y-41275000D01*
X111117020Y-40176626D01*
X110832164Y-40296514D01*
X110671301Y-40620210D01*
X110576678Y-40969069D01*
X110551933Y-41329684D01*
X106610000Y-41329684D01*
X106610000Y-41094268D01*
X106539482Y-40739750D01*
X106401156Y-40405801D01*
X106200338Y-40105256D01*
X106092102Y-39997020D01*
X111296626Y-39997020D01*
X112395000Y-41095395D01*
X113493374Y-39997020D01*
X113373486Y-39712164D01*
X113049790Y-39551301D01*
X112700931Y-39456678D01*
X112340316Y-39431933D01*
X111981802Y-39478015D01*
X111639167Y-39593154D01*
X111416514Y-39712164D01*
X111296626Y-39997020D01*
X106092102Y-39997020D01*
X105944744Y-39849662D01*
X105644199Y-39648844D01*
X105310250Y-39510518D01*
X104955732Y-39440000D01*
X104594268Y-39440000D01*
X104239750Y-39510518D01*
X103905801Y-39648844D01*
X103605256Y-39849662D01*
X103349662Y-40105256D01*
X103148844Y-40405801D01*
X103010518Y-40739750D01*
X102940000Y-41094268D01*
X42805480Y-41094268D01*
X40765705Y-39054494D01*
X40765705Y-37503027D01*
X40769381Y-37465704D01*
X40765705Y-37428381D01*
X40765705Y-37428372D01*
X40754708Y-37316719D01*
X40711251Y-37173458D01*
X40640679Y-37041429D01*
X40622583Y-37019379D01*
X40569504Y-36954701D01*
X40569500Y-36954697D01*
X40545706Y-36925704D01*
X40516714Y-36901911D01*
X40170504Y-36555701D01*
X41030000Y-36555701D01*
X41030000Y-37104299D01*
X41137026Y-37642354D01*
X41346965Y-38149192D01*
X41651750Y-38605334D01*
X42039666Y-38993250D01*
X42495808Y-39298035D01*
X43002646Y-39507974D01*
X43540701Y-39615000D01*
X44089299Y-39615000D01*
X44627354Y-39507974D01*
X45134192Y-39298035D01*
X45360521Y-39146806D01*
X48376801Y-39146806D01*
X48491500Y-39487754D01*
X48670511Y-39799774D01*
X48906954Y-40070875D01*
X49191743Y-40290639D01*
X49513934Y-40450621D01*
X49753195Y-40523195D01*
X50038000Y-40406432D01*
X50038000Y-38862000D01*
X50292000Y-38862000D01*
X50292000Y-40406432D01*
X50576805Y-40523195D01*
X50816066Y-40450621D01*
X51138257Y-40290639D01*
X51423046Y-40070875D01*
X51659489Y-39799774D01*
X51838500Y-39487754D01*
X51953199Y-39146806D01*
X53456801Y-39146806D01*
X53571500Y-39487754D01*
X53750511Y-39799774D01*
X53986954Y-40070875D01*
X54271743Y-40290639D01*
X54593934Y-40450621D01*
X54833195Y-40523195D01*
X55118000Y-40406432D01*
X55118000Y-38862000D01*
X55372000Y-38862000D01*
X55372000Y-40406432D01*
X55656805Y-40523195D01*
X55896066Y-40450621D01*
X56218257Y-40290639D01*
X56503046Y-40070875D01*
X56739489Y-39799774D01*
X56918500Y-39487754D01*
X57033199Y-39146806D01*
X58536801Y-39146806D01*
X58651500Y-39487754D01*
X58830511Y-39799774D01*
X59066954Y-40070875D01*
X59351743Y-40290639D01*
X59673934Y-40450621D01*
X59913195Y-40523195D01*
X60198000Y-40406432D01*
X60198000Y-38862000D01*
X60452000Y-38862000D01*
X60452000Y-40406432D01*
X60736805Y-40523195D01*
X60976066Y-40450621D01*
X61298257Y-40290639D01*
X61583046Y-40070875D01*
X61819489Y-39799774D01*
X61998500Y-39487754D01*
X62113199Y-39146806D01*
X63616801Y-39146806D01*
X63731500Y-39487754D01*
X63910511Y-39799774D01*
X64146954Y-40070875D01*
X64431743Y-40290639D01*
X64753934Y-40450621D01*
X64993195Y-40523195D01*
X65278000Y-40406432D01*
X65278000Y-38862000D01*
X65532000Y-38862000D01*
X65532000Y-40406432D01*
X65816805Y-40523195D01*
X66056066Y-40450621D01*
X66378257Y-40290639D01*
X66663046Y-40070875D01*
X66899489Y-39799774D01*
X67078500Y-39487754D01*
X67193199Y-39146806D01*
X68696801Y-39146806D01*
X68811500Y-39487754D01*
X68990511Y-39799774D01*
X69226954Y-40070875D01*
X69511743Y-40290639D01*
X69833934Y-40450621D01*
X70073195Y-40523195D01*
X70358000Y-40406432D01*
X70358000Y-38862000D01*
X70612000Y-38862000D01*
X70612000Y-40406432D01*
X70896805Y-40523195D01*
X71136066Y-40450621D01*
X71458257Y-40290639D01*
X71743046Y-40070875D01*
X71979489Y-39799774D01*
X72158500Y-39487754D01*
X72273199Y-39146806D01*
X73776801Y-39146806D01*
X73891500Y-39487754D01*
X74070511Y-39799774D01*
X74306954Y-40070875D01*
X74591743Y-40290639D01*
X74913934Y-40450621D01*
X75153195Y-40523195D01*
X75438000Y-40406432D01*
X75438000Y-38862000D01*
X75692000Y-38862000D01*
X75692000Y-40406432D01*
X75976805Y-40523195D01*
X76216066Y-40450621D01*
X76538257Y-40290639D01*
X76823046Y-40070875D01*
X77059489Y-39799774D01*
X77238500Y-39487754D01*
X77353199Y-39146806D01*
X78856801Y-39146806D01*
X78971500Y-39487754D01*
X79150511Y-39799774D01*
X79386954Y-40070875D01*
X79671743Y-40290639D01*
X79993934Y-40450621D01*
X80233195Y-40523195D01*
X80518000Y-40406432D01*
X80518000Y-38862000D01*
X80772000Y-38862000D01*
X80772000Y-40406432D01*
X81056805Y-40523195D01*
X81296066Y-40450621D01*
X81618257Y-40290639D01*
X81903046Y-40070875D01*
X82139489Y-39799774D01*
X82318500Y-39487754D01*
X82433199Y-39146806D01*
X83936801Y-39146806D01*
X84051500Y-39487754D01*
X84230511Y-39799774D01*
X84466954Y-40070875D01*
X84751743Y-40290639D01*
X85073934Y-40450621D01*
X85313195Y-40523195D01*
X85598000Y-40406432D01*
X85598000Y-38862000D01*
X85852000Y-38862000D01*
X85852000Y-40406432D01*
X86136805Y-40523195D01*
X86376066Y-40450621D01*
X86698257Y-40290639D01*
X86983046Y-40070875D01*
X87219489Y-39799774D01*
X87398500Y-39487754D01*
X87513199Y-39146806D01*
X89016801Y-39146806D01*
X89131500Y-39487754D01*
X89310511Y-39799774D01*
X89546954Y-40070875D01*
X89831743Y-40290639D01*
X90153934Y-40450621D01*
X90393195Y-40523195D01*
X90678000Y-40406432D01*
X90678000Y-38862000D01*
X90932000Y-38862000D01*
X90932000Y-40406432D01*
X91216805Y-40523195D01*
X91456066Y-40450621D01*
X91778257Y-40290639D01*
X92063046Y-40070875D01*
X92299489Y-39799774D01*
X92478500Y-39487754D01*
X92593199Y-39146806D01*
X94096801Y-39146806D01*
X94211500Y-39487754D01*
X94390511Y-39799774D01*
X94626954Y-40070875D01*
X94911743Y-40290639D01*
X95233934Y-40450621D01*
X95473195Y-40523195D01*
X95758000Y-40406432D01*
X95758000Y-38862000D01*
X96012000Y-38862000D01*
X96012000Y-40406432D01*
X96296805Y-40523195D01*
X96536066Y-40450621D01*
X96858257Y-40290639D01*
X97143046Y-40070875D01*
X97379489Y-39799774D01*
X97558500Y-39487754D01*
X97673199Y-39146806D01*
X97556854Y-38862000D01*
X96012000Y-38862000D01*
X95758000Y-38862000D01*
X94213146Y-38862000D01*
X94096801Y-39146806D01*
X92593199Y-39146806D01*
X92476854Y-38862000D01*
X90932000Y-38862000D01*
X90678000Y-38862000D01*
X89133146Y-38862000D01*
X89016801Y-39146806D01*
X87513199Y-39146806D01*
X87396854Y-38862000D01*
X85852000Y-38862000D01*
X85598000Y-38862000D01*
X84053146Y-38862000D01*
X83936801Y-39146806D01*
X82433199Y-39146806D01*
X82316854Y-38862000D01*
X80772000Y-38862000D01*
X80518000Y-38862000D01*
X78973146Y-38862000D01*
X78856801Y-39146806D01*
X77353199Y-39146806D01*
X77236854Y-38862000D01*
X75692000Y-38862000D01*
X75438000Y-38862000D01*
X73893146Y-38862000D01*
X73776801Y-39146806D01*
X72273199Y-39146806D01*
X72156854Y-38862000D01*
X70612000Y-38862000D01*
X70358000Y-38862000D01*
X68813146Y-38862000D01*
X68696801Y-39146806D01*
X67193199Y-39146806D01*
X67076854Y-38862000D01*
X65532000Y-38862000D01*
X65278000Y-38862000D01*
X63733146Y-38862000D01*
X63616801Y-39146806D01*
X62113199Y-39146806D01*
X61996854Y-38862000D01*
X60452000Y-38862000D01*
X60198000Y-38862000D01*
X58653146Y-38862000D01*
X58536801Y-39146806D01*
X57033199Y-39146806D01*
X56916854Y-38862000D01*
X55372000Y-38862000D01*
X55118000Y-38862000D01*
X53573146Y-38862000D01*
X53456801Y-39146806D01*
X51953199Y-39146806D01*
X51836854Y-38862000D01*
X50292000Y-38862000D01*
X50038000Y-38862000D01*
X48493146Y-38862000D01*
X48376801Y-39146806D01*
X45360521Y-39146806D01*
X45590334Y-38993250D01*
X45978250Y-38605334D01*
X46166770Y-38323194D01*
X48376801Y-38323194D01*
X48493146Y-38608000D01*
X50038000Y-38608000D01*
X50038000Y-37063568D01*
X50292000Y-37063568D01*
X50292000Y-38608000D01*
X51836854Y-38608000D01*
X51953199Y-38323194D01*
X53456801Y-38323194D01*
X53573146Y-38608000D01*
X55118000Y-38608000D01*
X55118000Y-37063568D01*
X55372000Y-37063568D01*
X55372000Y-38608000D01*
X56916854Y-38608000D01*
X57033199Y-38323194D01*
X58536801Y-38323194D01*
X58653146Y-38608000D01*
X60198000Y-38608000D01*
X60198000Y-37063568D01*
X60452000Y-37063568D01*
X60452000Y-38608000D01*
X61996854Y-38608000D01*
X62113199Y-38323194D01*
X63616801Y-38323194D01*
X63733146Y-38608000D01*
X65278000Y-38608000D01*
X65278000Y-37063568D01*
X65532000Y-37063568D01*
X65532000Y-38608000D01*
X67076854Y-38608000D01*
X67193199Y-38323194D01*
X68696801Y-38323194D01*
X68813146Y-38608000D01*
X70358000Y-38608000D01*
X70358000Y-37063568D01*
X70612000Y-37063568D01*
X70612000Y-38608000D01*
X72156854Y-38608000D01*
X72273199Y-38323194D01*
X73776801Y-38323194D01*
X73893146Y-38608000D01*
X75438000Y-38608000D01*
X75438000Y-37063568D01*
X75692000Y-37063568D01*
X75692000Y-38608000D01*
X77236854Y-38608000D01*
X77353199Y-38323194D01*
X78856801Y-38323194D01*
X78973146Y-38608000D01*
X80518000Y-38608000D01*
X80518000Y-37063568D01*
X80772000Y-37063568D01*
X80772000Y-38608000D01*
X82316854Y-38608000D01*
X82433199Y-38323194D01*
X83936801Y-38323194D01*
X84053146Y-38608000D01*
X85598000Y-38608000D01*
X85598000Y-37063568D01*
X85852000Y-37063568D01*
X85852000Y-38608000D01*
X87396854Y-38608000D01*
X87513199Y-38323194D01*
X89016801Y-38323194D01*
X89133146Y-38608000D01*
X90678000Y-38608000D01*
X90678000Y-37063568D01*
X90932000Y-37063568D01*
X90932000Y-38608000D01*
X92476854Y-38608000D01*
X92593199Y-38323194D01*
X94096801Y-38323194D01*
X94213146Y-38608000D01*
X95758000Y-38608000D01*
X95758000Y-37063568D01*
X96012000Y-37063568D01*
X96012000Y-38608000D01*
X97556854Y-38608000D01*
X97673199Y-38323194D01*
X97558500Y-37982246D01*
X97379489Y-37670226D01*
X97143046Y-37399125D01*
X96858257Y-37179361D01*
X96536066Y-37019379D01*
X96296805Y-36946805D01*
X96012000Y-37063568D01*
X95758000Y-37063568D01*
X95473195Y-36946805D01*
X95233934Y-37019379D01*
X94911743Y-37179361D01*
X94626954Y-37399125D01*
X94390511Y-37670226D01*
X94211500Y-37982246D01*
X94096801Y-38323194D01*
X92593199Y-38323194D01*
X92478500Y-37982246D01*
X92299489Y-37670226D01*
X92063046Y-37399125D01*
X91778257Y-37179361D01*
X91456066Y-37019379D01*
X91216805Y-36946805D01*
X90932000Y-37063568D01*
X90678000Y-37063568D01*
X90393195Y-36946805D01*
X90153934Y-37019379D01*
X89831743Y-37179361D01*
X89546954Y-37399125D01*
X89310511Y-37670226D01*
X89131500Y-37982246D01*
X89016801Y-38323194D01*
X87513199Y-38323194D01*
X87398500Y-37982246D01*
X87219489Y-37670226D01*
X86983046Y-37399125D01*
X86698257Y-37179361D01*
X86376066Y-37019379D01*
X86136805Y-36946805D01*
X85852000Y-37063568D01*
X85598000Y-37063568D01*
X85313195Y-36946805D01*
X85073934Y-37019379D01*
X84751743Y-37179361D01*
X84466954Y-37399125D01*
X84230511Y-37670226D01*
X84051500Y-37982246D01*
X83936801Y-38323194D01*
X82433199Y-38323194D01*
X82318500Y-37982246D01*
X82139489Y-37670226D01*
X81903046Y-37399125D01*
X81618257Y-37179361D01*
X81296066Y-37019379D01*
X81056805Y-36946805D01*
X80772000Y-37063568D01*
X80518000Y-37063568D01*
X80233195Y-36946805D01*
X79993934Y-37019379D01*
X79671743Y-37179361D01*
X79386954Y-37399125D01*
X79150511Y-37670226D01*
X78971500Y-37982246D01*
X78856801Y-38323194D01*
X77353199Y-38323194D01*
X77238500Y-37982246D01*
X77059489Y-37670226D01*
X76823046Y-37399125D01*
X76538257Y-37179361D01*
X76216066Y-37019379D01*
X75976805Y-36946805D01*
X75692000Y-37063568D01*
X75438000Y-37063568D01*
X75153195Y-36946805D01*
X74913934Y-37019379D01*
X74591743Y-37179361D01*
X74306954Y-37399125D01*
X74070511Y-37670226D01*
X73891500Y-37982246D01*
X73776801Y-38323194D01*
X72273199Y-38323194D01*
X72158500Y-37982246D01*
X71979489Y-37670226D01*
X71743046Y-37399125D01*
X71458257Y-37179361D01*
X71136066Y-37019379D01*
X70896805Y-36946805D01*
X70612000Y-37063568D01*
X70358000Y-37063568D01*
X70073195Y-36946805D01*
X69833934Y-37019379D01*
X69511743Y-37179361D01*
X69226954Y-37399125D01*
X68990511Y-37670226D01*
X68811500Y-37982246D01*
X68696801Y-38323194D01*
X67193199Y-38323194D01*
X67078500Y-37982246D01*
X66899489Y-37670226D01*
X66663046Y-37399125D01*
X66378257Y-37179361D01*
X66056066Y-37019379D01*
X65816805Y-36946805D01*
X65532000Y-37063568D01*
X65278000Y-37063568D01*
X64993195Y-36946805D01*
X64753934Y-37019379D01*
X64431743Y-37179361D01*
X64146954Y-37399125D01*
X63910511Y-37670226D01*
X63731500Y-37982246D01*
X63616801Y-38323194D01*
X62113199Y-38323194D01*
X61998500Y-37982246D01*
X61819489Y-37670226D01*
X61583046Y-37399125D01*
X61298257Y-37179361D01*
X60976066Y-37019379D01*
X60736805Y-36946805D01*
X60452000Y-37063568D01*
X60198000Y-37063568D01*
X59913195Y-36946805D01*
X59673934Y-37019379D01*
X59351743Y-37179361D01*
X59066954Y-37399125D01*
X58830511Y-37670226D01*
X58651500Y-37982246D01*
X58536801Y-38323194D01*
X57033199Y-38323194D01*
X56918500Y-37982246D01*
X56739489Y-37670226D01*
X56503046Y-37399125D01*
X56218257Y-37179361D01*
X55896066Y-37019379D01*
X55656805Y-36946805D01*
X55372000Y-37063568D01*
X55118000Y-37063568D01*
X54833195Y-36946805D01*
X54593934Y-37019379D01*
X54271743Y-37179361D01*
X53986954Y-37399125D01*
X53750511Y-37670226D01*
X53571500Y-37982246D01*
X53456801Y-38323194D01*
X51953199Y-38323194D01*
X51838500Y-37982246D01*
X51659489Y-37670226D01*
X51423046Y-37399125D01*
X51138257Y-37179361D01*
X50816066Y-37019379D01*
X50576805Y-36946805D01*
X50292000Y-37063568D01*
X50038000Y-37063568D01*
X49753195Y-36946805D01*
X49513934Y-37019379D01*
X49191743Y-37179361D01*
X48906954Y-37399125D01*
X48670511Y-37670226D01*
X48491500Y-37982246D01*
X48376801Y-38323194D01*
X46166770Y-38323194D01*
X46283035Y-38149192D01*
X46492974Y-37642354D01*
X46600000Y-37104299D01*
X46600000Y-36555701D01*
X46492974Y-36017646D01*
X46283035Y-35510808D01*
X46072019Y-35195000D01*
X104454428Y-35195000D01*
X104454428Y-37195000D01*
X104466688Y-37319482D01*
X104502998Y-37439180D01*
X104561963Y-37549494D01*
X104641315Y-37646185D01*
X104738006Y-37725537D01*
X104848320Y-37784502D01*
X104968018Y-37820812D01*
X105092500Y-37833072D01*
X106997500Y-37833072D01*
X107121982Y-37820812D01*
X107241680Y-37784502D01*
X107351994Y-37725537D01*
X107448685Y-37646185D01*
X107528037Y-37549494D01*
X107572905Y-37465553D01*
X107698766Y-37568845D01*
X107974552Y-37716255D01*
X108273797Y-37807030D01*
X108585000Y-37837681D01*
X108896204Y-37807030D01*
X109195449Y-37716255D01*
X109471235Y-37568845D01*
X109712963Y-37370463D01*
X109860162Y-37191100D01*
X110015563Y-37376315D01*
X110258077Y-37570969D01*
X110533906Y-37714571D01*
X110752020Y-37785563D01*
X110998000Y-37665594D01*
X110998000Y-36322000D01*
X111252000Y-36322000D01*
X111252000Y-37665594D01*
X111497980Y-37785563D01*
X111716094Y-37714571D01*
X111991923Y-37570969D01*
X112234437Y-37376315D01*
X112434316Y-37138089D01*
X112583879Y-36865446D01*
X112677378Y-36568863D01*
X112550570Y-36322000D01*
X111252000Y-36322000D01*
X110998000Y-36322000D01*
X110978000Y-36322000D01*
X110978000Y-36068000D01*
X110998000Y-36068000D01*
X110998000Y-34724406D01*
X111252000Y-34724406D01*
X111252000Y-36068000D01*
X112550570Y-36068000D01*
X112677378Y-35821137D01*
X112583879Y-35524554D01*
X112434316Y-35251911D01*
X112386566Y-35195000D01*
X118424428Y-35195000D01*
X118424428Y-37195000D01*
X118436688Y-37319482D01*
X118472998Y-37439180D01*
X118531963Y-37549494D01*
X118611315Y-37646185D01*
X118708006Y-37725537D01*
X118818320Y-37784502D01*
X118938018Y-37820812D01*
X119062500Y-37833072D01*
X120967500Y-37833072D01*
X121091982Y-37820812D01*
X121211680Y-37784502D01*
X121321994Y-37725537D01*
X121418685Y-37646185D01*
X121498037Y-37549494D01*
X121542905Y-37465553D01*
X121668766Y-37568845D01*
X121944552Y-37716255D01*
X122243797Y-37807030D01*
X122555000Y-37837681D01*
X122866204Y-37807030D01*
X123165449Y-37716255D01*
X123441235Y-37568845D01*
X123682963Y-37370463D01*
X123830162Y-37191100D01*
X123985563Y-37376315D01*
X124228077Y-37570969D01*
X124503906Y-37714571D01*
X124722020Y-37785563D01*
X124968000Y-37665594D01*
X124968000Y-36322000D01*
X125222000Y-36322000D01*
X125222000Y-37665594D01*
X125467980Y-37785563D01*
X125686094Y-37714571D01*
X125961923Y-37570969D01*
X126204437Y-37376315D01*
X126404316Y-37138089D01*
X126553879Y-36865446D01*
X126647378Y-36568863D01*
X126520570Y-36322000D01*
X125222000Y-36322000D01*
X124968000Y-36322000D01*
X124948000Y-36322000D01*
X124948000Y-36068000D01*
X124968000Y-36068000D01*
X124968000Y-34724406D01*
X125222000Y-34724406D01*
X125222000Y-36068000D01*
X126520570Y-36068000D01*
X126647378Y-35821137D01*
X126553879Y-35524554D01*
X126404316Y-35251911D01*
X126356566Y-35195000D01*
X132394428Y-35195000D01*
X132394428Y-37195000D01*
X132406688Y-37319482D01*
X132442998Y-37439180D01*
X132501963Y-37549494D01*
X132581315Y-37646185D01*
X132678006Y-37725537D01*
X132788320Y-37784502D01*
X132908018Y-37820812D01*
X133032500Y-37833072D01*
X134937500Y-37833072D01*
X135061982Y-37820812D01*
X135181680Y-37784502D01*
X135291994Y-37725537D01*
X135388685Y-37646185D01*
X135468037Y-37549494D01*
X135512905Y-37465553D01*
X135638766Y-37568845D01*
X135914552Y-37716255D01*
X136213797Y-37807030D01*
X136525000Y-37837681D01*
X136836204Y-37807030D01*
X137135449Y-37716255D01*
X137411235Y-37568845D01*
X137652963Y-37370463D01*
X137800162Y-37191100D01*
X137955563Y-37376315D01*
X138198077Y-37570969D01*
X138473906Y-37714571D01*
X138692020Y-37785563D01*
X138938000Y-37665594D01*
X138938000Y-36322000D01*
X139192000Y-36322000D01*
X139192000Y-37665594D01*
X139437980Y-37785563D01*
X139656094Y-37714571D01*
X139931923Y-37570969D01*
X140174437Y-37376315D01*
X140374316Y-37138089D01*
X140523879Y-36865446D01*
X140617378Y-36568863D01*
X140490570Y-36322000D01*
X139192000Y-36322000D01*
X138938000Y-36322000D01*
X138918000Y-36322000D01*
X138918000Y-36068000D01*
X138938000Y-36068000D01*
X138938000Y-34724406D01*
X139192000Y-34724406D01*
X139192000Y-36068000D01*
X140490570Y-36068000D01*
X140617378Y-35821137D01*
X140523879Y-35524554D01*
X140374316Y-35251911D01*
X140326566Y-35195000D01*
X146364428Y-35195000D01*
X146364428Y-37195000D01*
X146376688Y-37319482D01*
X146412998Y-37439180D01*
X146471963Y-37549494D01*
X146551315Y-37646185D01*
X146648006Y-37725537D01*
X146758320Y-37784502D01*
X146878018Y-37820812D01*
X147002500Y-37833072D01*
X148907500Y-37833072D01*
X149031982Y-37820812D01*
X149151680Y-37784502D01*
X149261994Y-37725537D01*
X149358685Y-37646185D01*
X149438037Y-37549494D01*
X149482905Y-37465553D01*
X149608766Y-37568845D01*
X149884552Y-37716255D01*
X150183797Y-37807030D01*
X150495000Y-37837681D01*
X150806204Y-37807030D01*
X151105449Y-37716255D01*
X151381235Y-37568845D01*
X151622963Y-37370463D01*
X151770162Y-37191100D01*
X151925563Y-37376315D01*
X152168077Y-37570969D01*
X152443906Y-37714571D01*
X152662020Y-37785563D01*
X152908000Y-37665594D01*
X152908000Y-36322000D01*
X153162000Y-36322000D01*
X153162000Y-37665594D01*
X153407980Y-37785563D01*
X153626094Y-37714571D01*
X153901923Y-37570969D01*
X154144437Y-37376315D01*
X154344316Y-37138089D01*
X154493879Y-36865446D01*
X154587378Y-36568863D01*
X154580617Y-36555701D01*
X157235000Y-36555701D01*
X157235000Y-37104299D01*
X157342026Y-37642354D01*
X157551965Y-38149192D01*
X157856750Y-38605334D01*
X158244666Y-38993250D01*
X158700808Y-39298035D01*
X159207646Y-39507974D01*
X159745701Y-39615000D01*
X160294299Y-39615000D01*
X160832354Y-39507974D01*
X161339192Y-39298035D01*
X161795334Y-38993250D01*
X162183250Y-38605334D01*
X162488035Y-38149192D01*
X162697974Y-37642354D01*
X162805000Y-37104299D01*
X162805000Y-36555701D01*
X162697974Y-36017646D01*
X162488035Y-35510808D01*
X162183250Y-35054666D01*
X161795334Y-34666750D01*
X161339192Y-34361965D01*
X160832354Y-34152026D01*
X160294299Y-34045000D01*
X159745701Y-34045000D01*
X159207646Y-34152026D01*
X158700808Y-34361965D01*
X158244666Y-34666750D01*
X157856750Y-35054666D01*
X157551965Y-35510808D01*
X157342026Y-36017646D01*
X157235000Y-36555701D01*
X154580617Y-36555701D01*
X154460570Y-36322000D01*
X153162000Y-36322000D01*
X152908000Y-36322000D01*
X152888000Y-36322000D01*
X152888000Y-36068000D01*
X152908000Y-36068000D01*
X152908000Y-34724406D01*
X153162000Y-34724406D01*
X153162000Y-36068000D01*
X154460570Y-36068000D01*
X154587378Y-35821137D01*
X154493879Y-35524554D01*
X154344316Y-35251911D01*
X154144437Y-35013685D01*
X153901923Y-34819031D01*
X153626094Y-34675429D01*
X153407980Y-34604437D01*
X153162000Y-34724406D01*
X152908000Y-34724406D01*
X152662020Y-34604437D01*
X152443906Y-34675429D01*
X152168077Y-34819031D01*
X151925563Y-35013685D01*
X151770163Y-35198899D01*
X151622963Y-35019537D01*
X151381234Y-34821155D01*
X151105448Y-34673745D01*
X150806203Y-34582970D01*
X150495000Y-34552319D01*
X150183796Y-34582970D01*
X149884551Y-34673745D01*
X149608765Y-34821155D01*
X149482905Y-34924446D01*
X149438037Y-34840506D01*
X149358685Y-34743815D01*
X149261994Y-34664463D01*
X149151680Y-34605498D01*
X149031982Y-34569188D01*
X148907500Y-34556928D01*
X147002500Y-34556928D01*
X146878018Y-34569188D01*
X146758320Y-34605498D01*
X146648006Y-34664463D01*
X146551315Y-34743815D01*
X146471963Y-34840506D01*
X146412998Y-34950820D01*
X146376688Y-35070518D01*
X146364428Y-35195000D01*
X140326566Y-35195000D01*
X140174437Y-35013685D01*
X139931923Y-34819031D01*
X139656094Y-34675429D01*
X139437980Y-34604437D01*
X139192000Y-34724406D01*
X138938000Y-34724406D01*
X138692020Y-34604437D01*
X138473906Y-34675429D01*
X138198077Y-34819031D01*
X137955563Y-35013685D01*
X137800163Y-35198899D01*
X137652963Y-35019537D01*
X137411234Y-34821155D01*
X137135448Y-34673745D01*
X136836203Y-34582970D01*
X136525000Y-34552319D01*
X136213796Y-34582970D01*
X135914551Y-34673745D01*
X135638765Y-34821155D01*
X135512905Y-34924446D01*
X135468037Y-34840506D01*
X135388685Y-34743815D01*
X135291994Y-34664463D01*
X135181680Y-34605498D01*
X135061982Y-34569188D01*
X134937500Y-34556928D01*
X133032500Y-34556928D01*
X132908018Y-34569188D01*
X132788320Y-34605498D01*
X132678006Y-34664463D01*
X132581315Y-34743815D01*
X132501963Y-34840506D01*
X132442998Y-34950820D01*
X132406688Y-35070518D01*
X132394428Y-35195000D01*
X126356566Y-35195000D01*
X126204437Y-35013685D01*
X125961923Y-34819031D01*
X125686094Y-34675429D01*
X125467980Y-34604437D01*
X125222000Y-34724406D01*
X124968000Y-34724406D01*
X124722020Y-34604437D01*
X124503906Y-34675429D01*
X124228077Y-34819031D01*
X123985563Y-35013685D01*
X123830163Y-35198899D01*
X123682963Y-35019537D01*
X123441234Y-34821155D01*
X123165448Y-34673745D01*
X122866203Y-34582970D01*
X122555000Y-34552319D01*
X122243796Y-34582970D01*
X121944551Y-34673745D01*
X121668765Y-34821155D01*
X121542905Y-34924446D01*
X121498037Y-34840506D01*
X121418685Y-34743815D01*
X121321994Y-34664463D01*
X121211680Y-34605498D01*
X121091982Y-34569188D01*
X120967500Y-34556928D01*
X119062500Y-34556928D01*
X118938018Y-34569188D01*
X118818320Y-34605498D01*
X118708006Y-34664463D01*
X118611315Y-34743815D01*
X118531963Y-34840506D01*
X118472998Y-34950820D01*
X118436688Y-35070518D01*
X118424428Y-35195000D01*
X112386566Y-35195000D01*
X112234437Y-35013685D01*
X111991923Y-34819031D01*
X111716094Y-34675429D01*
X111497980Y-34604437D01*
X111252000Y-34724406D01*
X110998000Y-34724406D01*
X110752020Y-34604437D01*
X110533906Y-34675429D01*
X110258077Y-34819031D01*
X110015563Y-35013685D01*
X109860163Y-35198899D01*
X109712963Y-35019537D01*
X109471234Y-34821155D01*
X109195448Y-34673745D01*
X108896203Y-34582970D01*
X108585000Y-34552319D01*
X108273796Y-34582970D01*
X107974551Y-34673745D01*
X107698765Y-34821155D01*
X107572905Y-34924446D01*
X107528037Y-34840506D01*
X107448685Y-34743815D01*
X107351994Y-34664463D01*
X107241680Y-34605498D01*
X107121982Y-34569188D01*
X106997500Y-34556928D01*
X105092500Y-34556928D01*
X104968018Y-34569188D01*
X104848320Y-34605498D01*
X104738006Y-34664463D01*
X104641315Y-34743815D01*
X104561963Y-34840506D01*
X104502998Y-34950820D01*
X104466688Y-35070518D01*
X104454428Y-35195000D01*
X46072019Y-35195000D01*
X45978250Y-35054666D01*
X45590334Y-34666750D01*
X45134192Y-34361965D01*
X44627354Y-34152026D01*
X44089299Y-34045000D01*
X43540701Y-34045000D01*
X43002646Y-34152026D01*
X42495808Y-34361965D01*
X42039666Y-34666750D01*
X41651750Y-35054666D01*
X41346965Y-35510808D01*
X41137026Y-36017646D01*
X41030000Y-36555701D01*
X40170504Y-36555701D01*
X38906210Y-35291408D01*
X38950000Y-35071260D01*
X38950000Y-34778740D01*
X38892932Y-34491842D01*
X38780990Y-34221589D01*
X38618475Y-33978368D01*
X38411632Y-33771525D01*
X38274655Y-33680000D01*
X165710000Y-33680000D01*
X165710001Y-40472364D01*
G04 #@! TA.AperFunction,Conductor*
D22*
G36*
X165710001Y-40472364D02*
G01*
X165562588Y-40274731D01*
X165346355Y-40079822D01*
X165096252Y-39930843D01*
X164821891Y-39833519D01*
X164592000Y-39954186D01*
X164592000Y-41148000D01*
X164612000Y-41148000D01*
X164612000Y-41402000D01*
X164592000Y-41402000D01*
X164592000Y-41422000D01*
X164338000Y-41422000D01*
X164338000Y-41402000D01*
X163144845Y-41402000D01*
X163023524Y-41631890D01*
X163068175Y-41779099D01*
X163193359Y-42041920D01*
X163367412Y-42275269D01*
X163451466Y-42351034D01*
X163370820Y-42375498D01*
X163260506Y-42434463D01*
X163163815Y-42513815D01*
X163084463Y-42610506D01*
X163025498Y-42720820D01*
X162989188Y-42840518D01*
X162976928Y-42965000D01*
X162976928Y-44665000D01*
X162989188Y-44789482D01*
X163025498Y-44909180D01*
X163084463Y-45019494D01*
X163163815Y-45116185D01*
X163260506Y-45195537D01*
X163370820Y-45254502D01*
X163490518Y-45290812D01*
X163615000Y-45303072D01*
X165315000Y-45303072D01*
X165439482Y-45290812D01*
X165559180Y-45254502D01*
X165669494Y-45195537D01*
X165710000Y-45162295D01*
X165710000Y-49362363D01*
X165562588Y-49164731D01*
X165346355Y-48969822D01*
X165096252Y-48820843D01*
X164821891Y-48723519D01*
X164592000Y-48844186D01*
X164592000Y-50038000D01*
X164612000Y-50038000D01*
X164612000Y-50292000D01*
X164592000Y-50292000D01*
X164592000Y-50312000D01*
X164338000Y-50312000D01*
X164338000Y-50292000D01*
X163144845Y-50292000D01*
X163023524Y-50521890D01*
X163068175Y-50669099D01*
X163193359Y-50931920D01*
X163367412Y-51165269D01*
X163451466Y-51241034D01*
X163370820Y-51265498D01*
X163260506Y-51324463D01*
X163163815Y-51403815D01*
X163084463Y-51500506D01*
X163025498Y-51610820D01*
X162989188Y-51730518D01*
X162976928Y-51855000D01*
X162976928Y-53555000D01*
X162989188Y-53679482D01*
X163025498Y-53799180D01*
X163084463Y-53909494D01*
X163163815Y-54006185D01*
X163260506Y-54085537D01*
X163370820Y-54144502D01*
X163490518Y-54180812D01*
X163615000Y-54193072D01*
X165315000Y-54193072D01*
X165439482Y-54180812D01*
X165559180Y-54144502D01*
X165669494Y-54085537D01*
X165710000Y-54052294D01*
X165710000Y-57335412D01*
X165689482Y-57329188D01*
X165565000Y-57316928D01*
X163365000Y-57316928D01*
X163240518Y-57329188D01*
X163120820Y-57365498D01*
X163010506Y-57424463D01*
X162913815Y-57503815D01*
X162834463Y-57600506D01*
X162775498Y-57710820D01*
X162739188Y-57830518D01*
X162726928Y-57955000D01*
X162726928Y-58244841D01*
X162688141Y-58213009D01*
X160226996Y-55751865D01*
X160191449Y-55708551D01*
X160018623Y-55566716D01*
X159821447Y-55461324D01*
X159607499Y-55396423D01*
X159440752Y-55380000D01*
X159440751Y-55380000D01*
X159385000Y-55374509D01*
X159329249Y-55380000D01*
X155495082Y-55380000D01*
X155730338Y-55144744D01*
X155931156Y-54844199D01*
X156069482Y-54510250D01*
X156140000Y-54155732D01*
X156140000Y-53794268D01*
X156069482Y-53439750D01*
X155931156Y-53105801D01*
X155730338Y-52805256D01*
X155474744Y-52549662D01*
X155174199Y-52348844D01*
X154840250Y-52210518D01*
X154485732Y-52140000D01*
X154124268Y-52140000D01*
X153769750Y-52210518D01*
X153435801Y-52348844D01*
X153135256Y-52549662D01*
X152879662Y-52805256D01*
X152678844Y-53105801D01*
X152540518Y-53439750D01*
X152470000Y-53794268D01*
X152470000Y-54155732D01*
X152540518Y-54510250D01*
X152678844Y-54844199D01*
X152879662Y-55144744D01*
X153114918Y-55380000D01*
X152870132Y-55380000D01*
X151258143Y-53768012D01*
X151128622Y-53661717D01*
X150931446Y-53556324D01*
X150717498Y-53491423D01*
X150495000Y-53469509D01*
X150272502Y-53491423D01*
X150058554Y-53556324D01*
X149861378Y-53661717D01*
X149688552Y-53803552D01*
X149546717Y-53976378D01*
X149441324Y-54173554D01*
X149376423Y-54387502D01*
X149354509Y-54610000D01*
X149376423Y-54832498D01*
X149441324Y-55046446D01*
X149546717Y-55243622D01*
X149653012Y-55373143D01*
X150294869Y-56015000D01*
X139535132Y-56015000D01*
X137314400Y-53794268D01*
X138500000Y-53794268D01*
X138500000Y-54155732D01*
X138570518Y-54510250D01*
X138708844Y-54844199D01*
X138909662Y-55144744D01*
X139165256Y-55400338D01*
X139465801Y-55601156D01*
X139799750Y-55739482D01*
X140154268Y-55810000D01*
X140515732Y-55810000D01*
X140870250Y-55739482D01*
X141204199Y-55601156D01*
X141504744Y-55400338D01*
X141760338Y-55144744D01*
X141961156Y-54844199D01*
X142099482Y-54510250D01*
X142170000Y-54155732D01*
X142170000Y-53794268D01*
X142099482Y-53439750D01*
X141961156Y-53105801D01*
X141760338Y-52805256D01*
X141504744Y-52549662D01*
X141204199Y-52348844D01*
X140870250Y-52210518D01*
X140515732Y-52140000D01*
X140154268Y-52140000D01*
X139799750Y-52210518D01*
X139465801Y-52348844D01*
X139165256Y-52549662D01*
X138909662Y-52805256D01*
X138708844Y-53105801D01*
X138570518Y-53439750D01*
X138500000Y-53794268D01*
X137314400Y-53794268D01*
X137288143Y-53768012D01*
X137158622Y-53661717D01*
X136961446Y-53556324D01*
X136747498Y-53491423D01*
X136525000Y-53469509D01*
X136302502Y-53491423D01*
X136088554Y-53556324D01*
X135891378Y-53661717D01*
X135718552Y-53803552D01*
X135576717Y-53976378D01*
X135471324Y-54173554D01*
X135406423Y-54387502D01*
X135384509Y-54610000D01*
X135406423Y-54832498D01*
X135471324Y-55046446D01*
X135576717Y-55243622D01*
X135683012Y-55373143D01*
X138223009Y-57913141D01*
X138258551Y-57956449D01*
X138431377Y-58098284D01*
X138628553Y-58203676D01*
X138842501Y-58268577D01*
X139009248Y-58285000D01*
X139009257Y-58285000D01*
X139064999Y-58290490D01*
X139120741Y-58285000D01*
X139866928Y-58285000D01*
X139866928Y-60155000D01*
X139879188Y-60279482D01*
X139915498Y-60399180D01*
X139974463Y-60509494D01*
X140053815Y-60606185D01*
X140150506Y-60685537D01*
X140260820Y-60744502D01*
X140380518Y-60780812D01*
X140505000Y-60793072D01*
X142705000Y-60793072D01*
X142829482Y-60780812D01*
X142949180Y-60744502D01*
X143059494Y-60685537D01*
X143156185Y-60606185D01*
X143235537Y-60509494D01*
X143294502Y-60399180D01*
X143330812Y-60279482D01*
X143343072Y-60155000D01*
X143343072Y-58285000D01*
X147486928Y-58285000D01*
X147486928Y-60155000D01*
X147499188Y-60279482D01*
X147535498Y-60399180D01*
X147594463Y-60509494D01*
X147673815Y-60606185D01*
X147770506Y-60685537D01*
X147880820Y-60744502D01*
X148000518Y-60780812D01*
X148125000Y-60793072D01*
X150325000Y-60793072D01*
X150449482Y-60780812D01*
X150569180Y-60744502D01*
X150679494Y-60685537D01*
X150776185Y-60606185D01*
X150855537Y-60509494D01*
X150914502Y-60399180D01*
X150950812Y-60279482D01*
X150963072Y-60155000D01*
X150963072Y-58938201D01*
X152535000Y-60510130D01*
X152535001Y-65984239D01*
X152529509Y-66040000D01*
X152551423Y-66262498D01*
X152616324Y-66476446D01*
X152642819Y-66526014D01*
X152721717Y-66673623D01*
X152863552Y-66846449D01*
X152906860Y-66881991D01*
X155110000Y-69085132D01*
X155110000Y-69385883D01*
X155176675Y-69721081D01*
X155307463Y-70036831D01*
X155497337Y-70320998D01*
X155710001Y-70533662D01*
X155710000Y-75676273D01*
X155685537Y-75630506D01*
X155606185Y-75533815D01*
X155509494Y-75454463D01*
X155399180Y-75395498D01*
X155279482Y-75359188D01*
X155155000Y-75346928D01*
X153455000Y-75346928D01*
X153330518Y-75359188D01*
X153210820Y-75395498D01*
X153100506Y-75454463D01*
X153003815Y-75533815D01*
X152924463Y-75630506D01*
X152865498Y-75740820D01*
X152829188Y-75860518D01*
X152816928Y-75985000D01*
X152816928Y-77685000D01*
X152829188Y-77809482D01*
X152865498Y-77929180D01*
X152924463Y-78039494D01*
X152957705Y-78080000D01*
X150034655Y-78080000D01*
X150171632Y-77988475D01*
X150378475Y-77781632D01*
X150540990Y-77538411D01*
X150652932Y-77268158D01*
X150710000Y-76981260D01*
X150710000Y-76688740D01*
X150652932Y-76401842D01*
X150540990Y-76131589D01*
X150378475Y-75888368D01*
X150360000Y-75869893D01*
X150360000Y-70533661D01*
X150572663Y-70320998D01*
X150762537Y-70036831D01*
X150893325Y-69721081D01*
X150960000Y-69385883D01*
X150960000Y-69044117D01*
X150893325Y-68708919D01*
X150762537Y-68393169D01*
X150572663Y-68109002D01*
X150330998Y-67867337D01*
X150046831Y-67677463D01*
X149731081Y-67546675D01*
X149395883Y-67480000D01*
X149095133Y-67480000D01*
X143081996Y-61466865D01*
X143046449Y-61423551D01*
X142873623Y-61281716D01*
X142676447Y-61176324D01*
X142462499Y-61111423D01*
X142295752Y-61095000D01*
X142295751Y-61095000D01*
X142240000Y-61089509D01*
X142184249Y-61095000D01*
X130645132Y-61095000D01*
X125936996Y-56386865D01*
X125901449Y-56343551D01*
X125728623Y-56201716D01*
X125531447Y-56096324D01*
X125317499Y-56031423D01*
X125150752Y-56015000D01*
X125150751Y-56015000D01*
X125095000Y-56009509D01*
X125039249Y-56015000D01*
X111595132Y-56015000D01*
X109348143Y-53768012D01*
X109218622Y-53661717D01*
X109021446Y-53556324D01*
X108807498Y-53491423D01*
X108585000Y-53469509D01*
X108362502Y-53491423D01*
X108148554Y-53556324D01*
X107951378Y-53661717D01*
X107778552Y-53803552D01*
X107636717Y-53976378D01*
X107531324Y-54173554D01*
X107466423Y-54387502D01*
X107444509Y-54610000D01*
X107466423Y-54832498D01*
X107531324Y-55046446D01*
X107636717Y-55243622D01*
X107743012Y-55373143D01*
X110283009Y-57913141D01*
X110318551Y-57956449D01*
X110491377Y-58098284D01*
X110688553Y-58203676D01*
X110902501Y-58268577D01*
X111069248Y-58285000D01*
X111069257Y-58285000D01*
X111124999Y-58290490D01*
X111180741Y-58285000D01*
X121718638Y-58285000D01*
X121606716Y-58421377D01*
X121501324Y-58618554D01*
X121436423Y-58832502D01*
X121420000Y-58999249D01*
X121420001Y-63444239D01*
X121414509Y-63500000D01*
X121436423Y-63722498D01*
X121501324Y-63936446D01*
X121550384Y-64028230D01*
X121606717Y-64133623D01*
X121748552Y-64306449D01*
X121791860Y-64341991D01*
X122348008Y-64898140D01*
X122383551Y-64941449D01*
X122556377Y-65083284D01*
X122753553Y-65188676D01*
X122967501Y-65253577D01*
X122992245Y-65256014D01*
X123190000Y-65275491D01*
X123245752Y-65270000D01*
X136054869Y-65270000D01*
X139870000Y-69085132D01*
X139870000Y-69385883D01*
X139936675Y-69721081D01*
X140067463Y-70036831D01*
X140257337Y-70320998D01*
X140470001Y-70533662D01*
X140470000Y-75676273D01*
X140445537Y-75630506D01*
X140366185Y-75533815D01*
X140269494Y-75454463D01*
X140159180Y-75395498D01*
X140039482Y-75359188D01*
X139915000Y-75346928D01*
X138215000Y-75346928D01*
X138090518Y-75359188D01*
X137970820Y-75395498D01*
X137860506Y-75454463D01*
X137763815Y-75533815D01*
X137684463Y-75630506D01*
X137625498Y-75740820D01*
X137589188Y-75860518D01*
X137576928Y-75985000D01*
X137576928Y-77685000D01*
X137589188Y-77809482D01*
X137625498Y-77929180D01*
X137684463Y-78039494D01*
X137717705Y-78080000D01*
X134787637Y-78080000D01*
X134985269Y-77932588D01*
X135180178Y-77716355D01*
X135329157Y-77466252D01*
X135426481Y-77191891D01*
X135305814Y-76962000D01*
X134112000Y-76962000D01*
X134112000Y-76982000D01*
X133858000Y-76982000D01*
X133858000Y-76962000D01*
X133838000Y-76962000D01*
X133838000Y-76708000D01*
X133858000Y-76708000D01*
X133858000Y-75514845D01*
X134112000Y-75514845D01*
X134112000Y-76708000D01*
X135305814Y-76708000D01*
X135426481Y-76478109D01*
X135329157Y-76203748D01*
X135180178Y-75953645D01*
X134985269Y-75737412D01*
X134751920Y-75563359D01*
X134489099Y-75438175D01*
X134341890Y-75393524D01*
X134112000Y-75514845D01*
X133858000Y-75514845D01*
X133628110Y-75393524D01*
X133480901Y-75438175D01*
X133218080Y-75563359D01*
X132984731Y-75737412D01*
X132789822Y-75953645D01*
X132720195Y-76070534D01*
X132598475Y-75888368D01*
X132391632Y-75681525D01*
X132148411Y-75519010D01*
X132136165Y-75513938D01*
X132078623Y-75466714D01*
X131881446Y-75361322D01*
X131667498Y-75296421D01*
X131445000Y-75274507D01*
X131222501Y-75296421D01*
X131037379Y-75352578D01*
X124388804Y-68704003D01*
X124365001Y-68674999D01*
X124249276Y-68580026D01*
X124117247Y-68509454D01*
X123973986Y-68465997D01*
X123862333Y-68455000D01*
X123862322Y-68455000D01*
X123825000Y-68451324D01*
X123787678Y-68455000D01*
X97654505Y-68455000D01*
X97720000Y-68125732D01*
X97720000Y-67764268D01*
X97649482Y-67409750D01*
X97511156Y-67075801D01*
X97310338Y-66775256D01*
X97054744Y-66519662D01*
X96754199Y-66318844D01*
X96420250Y-66180518D01*
X96065732Y-66110000D01*
X95704268Y-66110000D01*
X95349750Y-66180518D01*
X95015801Y-66318844D01*
X94715256Y-66519662D01*
X94459662Y-66775256D01*
X94258844Y-67075801D01*
X94120518Y-67409750D01*
X94050000Y-67764268D01*
X94050000Y-68125732D01*
X94120518Y-68480250D01*
X94258844Y-68814199D01*
X94443129Y-69090000D01*
X93024802Y-69090000D01*
X92524250Y-68589449D01*
X92569482Y-68480250D01*
X92640000Y-68125732D01*
X92640000Y-67764268D01*
X92569482Y-67409750D01*
X92431156Y-67075801D01*
X92230338Y-66775256D01*
X91974744Y-66519662D01*
X91674199Y-66318844D01*
X91340250Y-66180518D01*
X90985732Y-66110000D01*
X90624268Y-66110000D01*
X90269750Y-66180518D01*
X89935801Y-66318844D01*
X89635256Y-66519662D01*
X89379662Y-66775256D01*
X89178844Y-67075801D01*
X89040518Y-67409750D01*
X88970000Y-67764268D01*
X88970000Y-68125732D01*
X89040518Y-68480250D01*
X89178844Y-68814199D01*
X89379662Y-69114744D01*
X89635256Y-69370338D01*
X89889188Y-69540010D01*
X88394812Y-69540010D01*
X87444250Y-68589449D01*
X87489482Y-68480250D01*
X87560000Y-68125732D01*
X87560000Y-67764268D01*
X87489482Y-67409750D01*
X87351156Y-67075801D01*
X87150338Y-66775256D01*
X86894744Y-66519662D01*
X86594199Y-66318844D01*
X86260250Y-66180518D01*
X85974170Y-66123613D01*
X86017247Y-66110546D01*
X86149276Y-66039974D01*
X86265001Y-65945001D01*
X86288804Y-65915997D01*
X90249100Y-61955701D01*
X102625000Y-61955701D01*
X102625000Y-62504299D01*
X102732026Y-63042354D01*
X102941965Y-63549192D01*
X103246750Y-64005334D01*
X103634666Y-64393250D01*
X104090808Y-64698035D01*
X104597646Y-64907974D01*
X105135701Y-65015000D01*
X105684299Y-65015000D01*
X106222354Y-64907974D01*
X106729192Y-64698035D01*
X107185334Y-64393250D01*
X107573250Y-64005334D01*
X107878035Y-63549192D01*
X108087974Y-63042354D01*
X108195000Y-62504299D01*
X108195000Y-61955701D01*
X108087974Y-61417646D01*
X107878035Y-60910808D01*
X107573250Y-60454666D01*
X107185334Y-60066750D01*
X106729192Y-59761965D01*
X106222354Y-59552026D01*
X105684299Y-59445000D01*
X105135701Y-59445000D01*
X104597646Y-59552026D01*
X104090808Y-59761965D01*
X103634666Y-60066750D01*
X103246750Y-60454666D01*
X102941965Y-60910808D01*
X102732026Y-61417646D01*
X102625000Y-61955701D01*
X90249100Y-61955701D01*
X95240551Y-56964251D01*
X95349750Y-57009482D01*
X95704268Y-57080000D01*
X96065732Y-57080000D01*
X96420250Y-57009482D01*
X96754199Y-56871156D01*
X97054744Y-56670338D01*
X97310338Y-56414744D01*
X97511156Y-56114199D01*
X97649482Y-55780250D01*
X97720000Y-55425732D01*
X97720000Y-55064268D01*
X97649482Y-54709750D01*
X97511156Y-54375801D01*
X97310338Y-54075256D01*
X97054744Y-53819662D01*
X97020000Y-53796447D01*
X97020000Y-52883553D01*
X97054744Y-52860338D01*
X97310338Y-52604744D01*
X97511156Y-52304199D01*
X97649482Y-51970250D01*
X97720000Y-51615732D01*
X97720000Y-51254268D01*
X97649482Y-50899750D01*
X97511156Y-50565801D01*
X97326871Y-50290000D01*
X100015199Y-50290000D01*
X103055750Y-53330551D01*
X103010518Y-53439750D01*
X102940000Y-53794268D01*
X102940000Y-54155732D01*
X103010518Y-54510250D01*
X103148844Y-54844199D01*
X103349662Y-55144744D01*
X103605256Y-55400338D01*
X103905801Y-55601156D01*
X104239750Y-55739482D01*
X104594268Y-55810000D01*
X104955732Y-55810000D01*
X105310250Y-55739482D01*
X105644199Y-55601156D01*
X105944744Y-55400338D01*
X106200338Y-55144744D01*
X106401156Y-54844199D01*
X106539482Y-54510250D01*
X106610000Y-54155732D01*
X106610000Y-53794268D01*
X106539482Y-53439750D01*
X106401156Y-53105801D01*
X106216871Y-52830000D01*
X110953129Y-52830000D01*
X110768844Y-53105801D01*
X110630518Y-53439750D01*
X110560000Y-53794268D01*
X110560000Y-54155732D01*
X110630518Y-54510250D01*
X110768844Y-54844199D01*
X110969662Y-55144744D01*
X111225256Y-55400338D01*
X111525801Y-55601156D01*
X111859750Y-55739482D01*
X112214268Y-55810000D01*
X112575732Y-55810000D01*
X112930250Y-55739482D01*
X113264199Y-55601156D01*
X113564744Y-55400338D01*
X113820338Y-55144744D01*
X114021156Y-54844199D01*
X114159482Y-54510250D01*
X114230000Y-54155732D01*
X114230000Y-53794268D01*
X114159482Y-53439750D01*
X114021156Y-53105801D01*
X113836871Y-52830000D01*
X116525199Y-52830000D01*
X117025750Y-53330551D01*
X116980518Y-53439750D01*
X116910000Y-53794268D01*
X116910000Y-54155732D01*
X116980518Y-54510250D01*
X117118844Y-54844199D01*
X117319662Y-55144744D01*
X117575256Y-55400338D01*
X117875801Y-55601156D01*
X118209750Y-55739482D01*
X118564268Y-55810000D01*
X118925732Y-55810000D01*
X119280250Y-55739482D01*
X119614199Y-55601156D01*
X119914744Y-55400338D01*
X120170338Y-55144744D01*
X120371156Y-54844199D01*
X120509482Y-54510250D01*
X120580000Y-54155732D01*
X120580000Y-53794268D01*
X120509482Y-53439750D01*
X120371156Y-53105801D01*
X120170338Y-52805256D01*
X119914744Y-52549662D01*
X119660812Y-52379990D01*
X125449188Y-52379990D01*
X125195256Y-52549662D01*
X124939662Y-52805256D01*
X124738844Y-53105801D01*
X124600518Y-53439750D01*
X124530000Y-53794268D01*
X124530000Y-54155732D01*
X124600518Y-54510250D01*
X124738844Y-54844199D01*
X124939662Y-55144744D01*
X125195256Y-55400338D01*
X125495801Y-55601156D01*
X125829750Y-55739482D01*
X126184268Y-55810000D01*
X126545732Y-55810000D01*
X126900250Y-55739482D01*
X127234199Y-55601156D01*
X127534744Y-55400338D01*
X127790338Y-55144744D01*
X127991156Y-54844199D01*
X128129482Y-54510250D01*
X128200000Y-54155732D01*
X128200000Y-53794268D01*
X128129482Y-53439750D01*
X127991156Y-53105801D01*
X127790338Y-52805256D01*
X127534744Y-52549662D01*
X127280812Y-52379990D01*
X130045189Y-52379990D01*
X130995750Y-53330551D01*
X130950518Y-53439750D01*
X130880000Y-53794268D01*
X130880000Y-54155732D01*
X130950518Y-54510250D01*
X131088844Y-54844199D01*
X131289662Y-55144744D01*
X131545256Y-55400338D01*
X131845801Y-55601156D01*
X132179750Y-55739482D01*
X132534268Y-55810000D01*
X132895732Y-55810000D01*
X133250250Y-55739482D01*
X133584199Y-55601156D01*
X133884744Y-55400338D01*
X134140338Y-55144744D01*
X134341156Y-54844199D01*
X134479482Y-54510250D01*
X134550000Y-54155732D01*
X134550000Y-53794268D01*
X134479482Y-53439750D01*
X134341156Y-53105801D01*
X134140338Y-52805256D01*
X133884744Y-52549662D01*
X133584199Y-52348844D01*
X133250250Y-52210518D01*
X132895732Y-52140000D01*
X132534268Y-52140000D01*
X132179750Y-52210518D01*
X132070551Y-52255750D01*
X131744781Y-51929980D01*
X143565179Y-51929980D01*
X144965750Y-53330551D01*
X144920518Y-53439750D01*
X144850000Y-53794268D01*
X144850000Y-54155732D01*
X144920518Y-54510250D01*
X145058844Y-54844199D01*
X145259662Y-55144744D01*
X145515256Y-55400338D01*
X145815801Y-55601156D01*
X146149750Y-55739482D01*
X146504268Y-55810000D01*
X146865732Y-55810000D01*
X147220250Y-55739482D01*
X147554199Y-55601156D01*
X147854744Y-55400338D01*
X148110338Y-55144744D01*
X148311156Y-54844199D01*
X148449482Y-54510250D01*
X148520000Y-54155732D01*
X148520000Y-53794268D01*
X148449482Y-53439750D01*
X148311156Y-53105801D01*
X148110338Y-52805256D01*
X147854744Y-52549662D01*
X147554199Y-52348844D01*
X147220250Y-52210518D01*
X146865732Y-52140000D01*
X146504268Y-52140000D01*
X146149750Y-52210518D01*
X146040551Y-52255750D01*
X144443784Y-50658983D01*
X144419981Y-50629979D01*
X144304256Y-50535006D01*
X144172227Y-50464434D01*
X144028966Y-50420977D01*
X143917313Y-50409980D01*
X143917302Y-50409980D01*
X143879980Y-50406304D01*
X143842658Y-50409980D01*
X104194013Y-50409980D01*
X103592143Y-49808110D01*
X163023524Y-49808110D01*
X163144845Y-50038000D01*
X164338000Y-50038000D01*
X164338000Y-48844186D01*
X164108109Y-48723519D01*
X163833748Y-48820843D01*
X163583645Y-48969822D01*
X163367412Y-49164731D01*
X163193359Y-49398080D01*
X163068175Y-49660901D01*
X163023524Y-49808110D01*
X103592143Y-49808110D01*
X101453002Y-47668971D01*
X101429204Y-47639973D01*
X101400205Y-47616174D01*
X101313479Y-47544999D01*
X101181449Y-47474427D01*
X101081645Y-47444153D01*
X101038189Y-47430971D01*
X100926536Y-47419974D01*
X100889203Y-47416297D01*
X100851871Y-47419974D01*
X73259775Y-47419972D01*
X71233794Y-45393992D01*
X71209991Y-45364989D01*
X71094266Y-45270016D01*
X70962237Y-45199444D01*
X70818976Y-45155987D01*
X70707323Y-45144990D01*
X70707312Y-45144990D01*
X70669990Y-45141314D01*
X70632668Y-45144990D01*
X46856202Y-45144990D01*
X42805480Y-41094268D01*
X102940000Y-41094268D01*
X102940000Y-41455732D01*
X103010518Y-41810250D01*
X103148844Y-42144199D01*
X103349662Y-42444744D01*
X103605256Y-42700338D01*
X103905801Y-42901156D01*
X104239750Y-43039482D01*
X104594268Y-43110000D01*
X104955732Y-43110000D01*
X105310250Y-43039482D01*
X105419449Y-42994250D01*
X110561201Y-48136003D01*
X110584999Y-48165001D01*
X110613997Y-48188799D01*
X110700723Y-48259974D01*
X110806129Y-48316315D01*
X110832753Y-48330546D01*
X110976014Y-48374003D01*
X111087667Y-48385000D01*
X111087676Y-48385000D01*
X111124999Y-48388676D01*
X111162322Y-48385000D01*
X111691289Y-48385000D01*
X111735226Y-48428937D01*
X111904744Y-48542205D01*
X112093102Y-48620226D01*
X112293061Y-48660000D01*
X112496939Y-48660000D01*
X112696898Y-48620226D01*
X112885256Y-48542205D01*
X113054774Y-48428937D01*
X113198937Y-48284774D01*
X113312205Y-48115256D01*
X113390226Y-47926898D01*
X113430000Y-47726939D01*
X113430000Y-47523061D01*
X113390226Y-47323102D01*
X113312205Y-47134744D01*
X113198937Y-46965226D01*
X113054774Y-46821063D01*
X112885256Y-46707795D01*
X112696898Y-46629774D01*
X112496939Y-46590000D01*
X112293061Y-46590000D01*
X112093102Y-46629774D01*
X111904744Y-46707795D01*
X111735226Y-46821063D01*
X111691289Y-46865000D01*
X111439802Y-46865000D01*
X107127782Y-42552980D01*
X111296626Y-42552980D01*
X111416514Y-42837836D01*
X111740210Y-42998699D01*
X112089069Y-43093322D01*
X112449684Y-43118067D01*
X112808198Y-43071985D01*
X113150833Y-42956846D01*
X113373486Y-42837836D01*
X113493374Y-42552980D01*
X112395000Y-41454605D01*
X111296626Y-42552980D01*
X107127782Y-42552980D01*
X106494250Y-41919449D01*
X106539482Y-41810250D01*
X106610000Y-41455732D01*
X106610000Y-41329684D01*
X110551933Y-41329684D01*
X110598015Y-41688198D01*
X110713154Y-42030833D01*
X110832164Y-42253486D01*
X111117020Y-42373374D01*
X112215395Y-41275000D01*
X112574605Y-41275000D01*
X113672980Y-42373374D01*
X113957836Y-42253486D01*
X114118699Y-41929790D01*
X114213322Y-41580931D01*
X114238067Y-41220316D01*
X114221866Y-41094268D01*
X116910000Y-41094268D01*
X116910000Y-41455732D01*
X116980518Y-41810250D01*
X117118844Y-42144199D01*
X117319662Y-42444744D01*
X117575256Y-42700338D01*
X117875801Y-42901156D01*
X118209750Y-43039482D01*
X118564268Y-43110000D01*
X118925732Y-43110000D01*
X119280250Y-43039482D01*
X119389449Y-42994250D01*
X124531201Y-48136003D01*
X124554999Y-48165001D01*
X124583997Y-48188799D01*
X124670723Y-48259974D01*
X124776129Y-48316315D01*
X124802753Y-48330546D01*
X124946014Y-48374003D01*
X125057667Y-48385000D01*
X125057676Y-48385000D01*
X125094999Y-48388676D01*
X125132322Y-48385000D01*
X125661289Y-48385000D01*
X125705226Y-48428937D01*
X125874744Y-48542205D01*
X126063102Y-48620226D01*
X126263061Y-48660000D01*
X126466939Y-48660000D01*
X126666898Y-48620226D01*
X126855256Y-48542205D01*
X127024774Y-48428937D01*
X127168937Y-48284774D01*
X127282205Y-48115256D01*
X127360226Y-47926898D01*
X127400000Y-47726939D01*
X127400000Y-47523061D01*
X127360226Y-47323102D01*
X127282205Y-47134744D01*
X127168937Y-46965226D01*
X127024774Y-46821063D01*
X126855256Y-46707795D01*
X126666898Y-46629774D01*
X126466939Y-46590000D01*
X126263061Y-46590000D01*
X126063102Y-46629774D01*
X125874744Y-46707795D01*
X125705226Y-46821063D01*
X125661289Y-46865000D01*
X125409802Y-46865000D01*
X121097782Y-42552980D01*
X125266626Y-42552980D01*
X125386514Y-42837836D01*
X125710210Y-42998699D01*
X126059069Y-43093322D01*
X126419684Y-43118067D01*
X126778198Y-43071985D01*
X127120833Y-42956846D01*
X127343486Y-42837836D01*
X127463374Y-42552980D01*
X126365000Y-41454605D01*
X125266626Y-42552980D01*
X121097782Y-42552980D01*
X120464250Y-41919449D01*
X120509482Y-41810250D01*
X120580000Y-41455732D01*
X120580000Y-41329684D01*
X124521933Y-41329684D01*
X124568015Y-41688198D01*
X124683154Y-42030833D01*
X124802164Y-42253486D01*
X125087020Y-42373374D01*
X126185395Y-41275000D01*
X126544605Y-41275000D01*
X127642980Y-42373374D01*
X127927836Y-42253486D01*
X128088699Y-41929790D01*
X128183322Y-41580931D01*
X128208067Y-41220316D01*
X128191866Y-41094268D01*
X130880000Y-41094268D01*
X130880000Y-41455732D01*
X130950518Y-41810250D01*
X131088844Y-42144199D01*
X131289662Y-42444744D01*
X131545256Y-42700338D01*
X131845801Y-42901156D01*
X132179750Y-43039482D01*
X132534268Y-43110000D01*
X132895732Y-43110000D01*
X133250250Y-43039482D01*
X133359449Y-42994250D01*
X138501201Y-48136003D01*
X138524999Y-48165001D01*
X138553997Y-48188799D01*
X138640723Y-48259974D01*
X138746129Y-48316315D01*
X138772753Y-48330546D01*
X138916014Y-48374003D01*
X139027667Y-48385000D01*
X139027676Y-48385000D01*
X139064999Y-48388676D01*
X139102322Y-48385000D01*
X139631289Y-48385000D01*
X139675226Y-48428937D01*
X139844744Y-48542205D01*
X140033102Y-48620226D01*
X140233061Y-48660000D01*
X140436939Y-48660000D01*
X140636898Y-48620226D01*
X140825256Y-48542205D01*
X140994774Y-48428937D01*
X141138937Y-48284774D01*
X141252205Y-48115256D01*
X141330226Y-47926898D01*
X141370000Y-47726939D01*
X141370000Y-47523061D01*
X141330226Y-47323102D01*
X141252205Y-47134744D01*
X141138937Y-46965226D01*
X140994774Y-46821063D01*
X140825256Y-46707795D01*
X140636898Y-46629774D01*
X140436939Y-46590000D01*
X140233061Y-46590000D01*
X140033102Y-46629774D01*
X139844744Y-46707795D01*
X139675226Y-46821063D01*
X139631289Y-46865000D01*
X139379802Y-46865000D01*
X135067782Y-42552980D01*
X139236626Y-42552980D01*
X139356514Y-42837836D01*
X139680210Y-42998699D01*
X140029069Y-43093322D01*
X140389684Y-43118067D01*
X140748198Y-43071985D01*
X141090833Y-42956846D01*
X141313486Y-42837836D01*
X141433374Y-42552980D01*
X140335000Y-41454605D01*
X139236626Y-42552980D01*
X135067782Y-42552980D01*
X134434250Y-41919449D01*
X134479482Y-41810250D01*
X134550000Y-41455732D01*
X134550000Y-41329684D01*
X138491933Y-41329684D01*
X138538015Y-41688198D01*
X138653154Y-42030833D01*
X138772164Y-42253486D01*
X139057020Y-42373374D01*
X140155395Y-41275000D01*
X140514605Y-41275000D01*
X141612980Y-42373374D01*
X141897836Y-42253486D01*
X142058699Y-41929790D01*
X142153322Y-41580931D01*
X142178067Y-41220316D01*
X142161866Y-41094268D01*
X144850000Y-41094268D01*
X144850000Y-41455732D01*
X144920518Y-41810250D01*
X145058844Y-42144199D01*
X145259662Y-42444744D01*
X145515256Y-42700338D01*
X145815801Y-42901156D01*
X146149750Y-43039482D01*
X146504268Y-43110000D01*
X146865732Y-43110000D01*
X147220250Y-43039482D01*
X147329449Y-42994250D01*
X152471201Y-48136003D01*
X152494999Y-48165001D01*
X152523997Y-48188799D01*
X152610723Y-48259974D01*
X152716129Y-48316315D01*
X152742753Y-48330546D01*
X152886014Y-48374003D01*
X152997667Y-48385000D01*
X152997676Y-48385000D01*
X153034999Y-48388676D01*
X153072322Y-48385000D01*
X153601289Y-48385000D01*
X153645226Y-48428937D01*
X153814744Y-48542205D01*
X154003102Y-48620226D01*
X154203061Y-48660000D01*
X154406939Y-48660000D01*
X154606898Y-48620226D01*
X154795256Y-48542205D01*
X154964774Y-48428937D01*
X155108937Y-48284774D01*
X155222205Y-48115256D01*
X155300226Y-47926898D01*
X155340000Y-47726939D01*
X155340000Y-47523061D01*
X155300226Y-47323102D01*
X155222205Y-47134744D01*
X155108937Y-46965226D01*
X154964774Y-46821063D01*
X154795256Y-46707795D01*
X154606898Y-46629774D01*
X154406939Y-46590000D01*
X154203061Y-46590000D01*
X154003102Y-46629774D01*
X153814744Y-46707795D01*
X153645226Y-46821063D01*
X153601289Y-46865000D01*
X153349802Y-46865000D01*
X149037782Y-42552980D01*
X153206626Y-42552980D01*
X153326514Y-42837836D01*
X153650210Y-42998699D01*
X153999069Y-43093322D01*
X154359684Y-43118067D01*
X154718198Y-43071985D01*
X155060833Y-42956846D01*
X155283486Y-42837836D01*
X155403374Y-42552980D01*
X154305000Y-41454605D01*
X153206626Y-42552980D01*
X149037782Y-42552980D01*
X148404250Y-41919449D01*
X148449482Y-41810250D01*
X148520000Y-41455732D01*
X148520000Y-41329684D01*
X152461933Y-41329684D01*
X152508015Y-41688198D01*
X152623154Y-42030833D01*
X152742164Y-42253486D01*
X153027020Y-42373374D01*
X154125395Y-41275000D01*
X154484605Y-41275000D01*
X155582980Y-42373374D01*
X155867836Y-42253486D01*
X156028699Y-41929790D01*
X156123322Y-41580931D01*
X156148067Y-41220316D01*
X156109223Y-40918110D01*
X163023524Y-40918110D01*
X163144845Y-41148000D01*
X164338000Y-41148000D01*
X164338000Y-39954186D01*
X164108109Y-39833519D01*
X163833748Y-39930843D01*
X163583645Y-40079822D01*
X163367412Y-40274731D01*
X163193359Y-40508080D01*
X163068175Y-40770901D01*
X163023524Y-40918110D01*
X156109223Y-40918110D01*
X156101985Y-40861802D01*
X155986846Y-40519167D01*
X155867836Y-40296514D01*
X155582980Y-40176626D01*
X154484605Y-41275000D01*
X154125395Y-41275000D01*
X153027020Y-40176626D01*
X152742164Y-40296514D01*
X152581301Y-40620210D01*
X152486678Y-40969069D01*
X152461933Y-41329684D01*
X148520000Y-41329684D01*
X148520000Y-41094268D01*
X148449482Y-40739750D01*
X148311156Y-40405801D01*
X148110338Y-40105256D01*
X148002102Y-39997020D01*
X153206626Y-39997020D01*
X154305000Y-41095395D01*
X155403374Y-39997020D01*
X155283486Y-39712164D01*
X154959790Y-39551301D01*
X154610931Y-39456678D01*
X154250316Y-39431933D01*
X153891802Y-39478015D01*
X153549167Y-39593154D01*
X153326514Y-39712164D01*
X153206626Y-39997020D01*
X148002102Y-39997020D01*
X147854744Y-39849662D01*
X147554199Y-39648844D01*
X147220250Y-39510518D01*
X146865732Y-39440000D01*
X146504268Y-39440000D01*
X146149750Y-39510518D01*
X145815801Y-39648844D01*
X145515256Y-39849662D01*
X145259662Y-40105256D01*
X145058844Y-40405801D01*
X144920518Y-40739750D01*
X144850000Y-41094268D01*
X142161866Y-41094268D01*
X142131985Y-40861802D01*
X142016846Y-40519167D01*
X141897836Y-40296514D01*
X141612980Y-40176626D01*
X140514605Y-41275000D01*
X140155395Y-41275000D01*
X139057020Y-40176626D01*
X138772164Y-40296514D01*
X138611301Y-40620210D01*
X138516678Y-40969069D01*
X138491933Y-41329684D01*
X134550000Y-41329684D01*
X134550000Y-41094268D01*
X134479482Y-40739750D01*
X134341156Y-40405801D01*
X134140338Y-40105256D01*
X134032102Y-39997020D01*
X139236626Y-39997020D01*
X140335000Y-41095395D01*
X141433374Y-39997020D01*
X141313486Y-39712164D01*
X140989790Y-39551301D01*
X140640931Y-39456678D01*
X140280316Y-39431933D01*
X139921802Y-39478015D01*
X139579167Y-39593154D01*
X139356514Y-39712164D01*
X139236626Y-39997020D01*
X134032102Y-39997020D01*
X133884744Y-39849662D01*
X133584199Y-39648844D01*
X133250250Y-39510518D01*
X132895732Y-39440000D01*
X132534268Y-39440000D01*
X132179750Y-39510518D01*
X131845801Y-39648844D01*
X131545256Y-39849662D01*
X131289662Y-40105256D01*
X131088844Y-40405801D01*
X130950518Y-40739750D01*
X130880000Y-41094268D01*
X128191866Y-41094268D01*
X128161985Y-40861802D01*
X128046846Y-40519167D01*
X127927836Y-40296514D01*
X127642980Y-40176626D01*
X126544605Y-41275000D01*
X126185395Y-41275000D01*
X125087020Y-40176626D01*
X124802164Y-40296514D01*
X124641301Y-40620210D01*
X124546678Y-40969069D01*
X124521933Y-41329684D01*
X120580000Y-41329684D01*
X120580000Y-41094268D01*
X120509482Y-40739750D01*
X120371156Y-40405801D01*
X120170338Y-40105256D01*
X120062102Y-39997020D01*
X125266626Y-39997020D01*
X126365000Y-41095395D01*
X127463374Y-39997020D01*
X127343486Y-39712164D01*
X127019790Y-39551301D01*
X126670931Y-39456678D01*
X126310316Y-39431933D01*
X125951802Y-39478015D01*
X125609167Y-39593154D01*
X125386514Y-39712164D01*
X125266626Y-39997020D01*
X120062102Y-39997020D01*
X119914744Y-39849662D01*
X119614199Y-39648844D01*
X119280250Y-39510518D01*
X118925732Y-39440000D01*
X118564268Y-39440000D01*
X118209750Y-39510518D01*
X117875801Y-39648844D01*
X117575256Y-39849662D01*
X117319662Y-40105256D01*
X117118844Y-40405801D01*
X116980518Y-40739750D01*
X116910000Y-41094268D01*
X114221866Y-41094268D01*
X114191985Y-40861802D01*
X114076846Y-40519167D01*
X113957836Y-40296514D01*
X113672980Y-40176626D01*
X112574605Y-41275000D01*
X112215395Y-41275000D01*
X111117020Y-40176626D01*
X110832164Y-40296514D01*
X110671301Y-40620210D01*
X110576678Y-40969069D01*
X110551933Y-41329684D01*
X106610000Y-41329684D01*
X106610000Y-41094268D01*
X106539482Y-40739750D01*
X106401156Y-40405801D01*
X106200338Y-40105256D01*
X106092102Y-39997020D01*
X111296626Y-39997020D01*
X112395000Y-41095395D01*
X113493374Y-39997020D01*
X113373486Y-39712164D01*
X113049790Y-39551301D01*
X112700931Y-39456678D01*
X112340316Y-39431933D01*
X111981802Y-39478015D01*
X111639167Y-39593154D01*
X111416514Y-39712164D01*
X111296626Y-39997020D01*
X106092102Y-39997020D01*
X105944744Y-39849662D01*
X105644199Y-39648844D01*
X105310250Y-39510518D01*
X104955732Y-39440000D01*
X104594268Y-39440000D01*
X104239750Y-39510518D01*
X103905801Y-39648844D01*
X103605256Y-39849662D01*
X103349662Y-40105256D01*
X103148844Y-40405801D01*
X103010518Y-40739750D01*
X102940000Y-41094268D01*
X42805480Y-41094268D01*
X40765705Y-39054494D01*
X40765705Y-37503027D01*
X40769381Y-37465704D01*
X40765705Y-37428381D01*
X40765705Y-37428372D01*
X40754708Y-37316719D01*
X40711251Y-37173458D01*
X40640679Y-37041429D01*
X40622583Y-37019379D01*
X40569504Y-36954701D01*
X40569500Y-36954697D01*
X40545706Y-36925704D01*
X40516714Y-36901911D01*
X40170504Y-36555701D01*
X41030000Y-36555701D01*
X41030000Y-37104299D01*
X41137026Y-37642354D01*
X41346965Y-38149192D01*
X41651750Y-38605334D01*
X42039666Y-38993250D01*
X42495808Y-39298035D01*
X43002646Y-39507974D01*
X43540701Y-39615000D01*
X44089299Y-39615000D01*
X44627354Y-39507974D01*
X45134192Y-39298035D01*
X45360521Y-39146806D01*
X48376801Y-39146806D01*
X48491500Y-39487754D01*
X48670511Y-39799774D01*
X48906954Y-40070875D01*
X49191743Y-40290639D01*
X49513934Y-40450621D01*
X49753195Y-40523195D01*
X50038000Y-40406432D01*
X50038000Y-38862000D01*
X50292000Y-38862000D01*
X50292000Y-40406432D01*
X50576805Y-40523195D01*
X50816066Y-40450621D01*
X51138257Y-40290639D01*
X51423046Y-40070875D01*
X51659489Y-39799774D01*
X51838500Y-39487754D01*
X51953199Y-39146806D01*
X53456801Y-39146806D01*
X53571500Y-39487754D01*
X53750511Y-39799774D01*
X53986954Y-40070875D01*
X54271743Y-40290639D01*
X54593934Y-40450621D01*
X54833195Y-40523195D01*
X55118000Y-40406432D01*
X55118000Y-38862000D01*
X55372000Y-38862000D01*
X55372000Y-40406432D01*
X55656805Y-40523195D01*
X55896066Y-40450621D01*
X56218257Y-40290639D01*
X56503046Y-40070875D01*
X56739489Y-39799774D01*
X56918500Y-39487754D01*
X57033199Y-39146806D01*
X58536801Y-39146806D01*
X58651500Y-39487754D01*
X58830511Y-39799774D01*
X59066954Y-40070875D01*
X59351743Y-40290639D01*
X59673934Y-40450621D01*
X59913195Y-40523195D01*
X60198000Y-40406432D01*
X60198000Y-38862000D01*
X60452000Y-38862000D01*
X60452000Y-40406432D01*
X60736805Y-40523195D01*
X60976066Y-40450621D01*
X61298257Y-40290639D01*
X61583046Y-40070875D01*
X61819489Y-39799774D01*
X61998500Y-39487754D01*
X62113199Y-39146806D01*
X63616801Y-39146806D01*
X63731500Y-39487754D01*
X63910511Y-39799774D01*
X64146954Y-40070875D01*
X64431743Y-40290639D01*
X64753934Y-40450621D01*
X64993195Y-40523195D01*
X65278000Y-40406432D01*
X65278000Y-38862000D01*
X65532000Y-38862000D01*
X65532000Y-40406432D01*
X65816805Y-40523195D01*
X66056066Y-40450621D01*
X66378257Y-40290639D01*
X66663046Y-40070875D01*
X66899489Y-39799774D01*
X67078500Y-39487754D01*
X67193199Y-39146806D01*
X68696801Y-39146806D01*
X68811500Y-39487754D01*
X68990511Y-39799774D01*
X69226954Y-40070875D01*
X69511743Y-40290639D01*
X69833934Y-40450621D01*
X70073195Y-40523195D01*
X70358000Y-40406432D01*
X70358000Y-38862000D01*
X70612000Y-38862000D01*
X70612000Y-40406432D01*
X70896805Y-40523195D01*
X71136066Y-40450621D01*
X71458257Y-40290639D01*
X71743046Y-40070875D01*
X71979489Y-39799774D01*
X72158500Y-39487754D01*
X72273199Y-39146806D01*
X73776801Y-39146806D01*
X73891500Y-39487754D01*
X74070511Y-39799774D01*
X74306954Y-40070875D01*
X74591743Y-40290639D01*
X74913934Y-40450621D01*
X75153195Y-40523195D01*
X75438000Y-40406432D01*
X75438000Y-38862000D01*
X75692000Y-38862000D01*
X75692000Y-40406432D01*
X75976805Y-40523195D01*
X76216066Y-40450621D01*
X76538257Y-40290639D01*
X76823046Y-40070875D01*
X77059489Y-39799774D01*
X77238500Y-39487754D01*
X77353199Y-39146806D01*
X78856801Y-39146806D01*
X78971500Y-39487754D01*
X79150511Y-39799774D01*
X79386954Y-40070875D01*
X79671743Y-40290639D01*
X79993934Y-40450621D01*
X80233195Y-40523195D01*
X80518000Y-40406432D01*
X80518000Y-38862000D01*
X80772000Y-38862000D01*
X80772000Y-40406432D01*
X81056805Y-40523195D01*
X81296066Y-40450621D01*
X81618257Y-40290639D01*
X81903046Y-40070875D01*
X82139489Y-39799774D01*
X82318500Y-39487754D01*
X82433199Y-39146806D01*
X83936801Y-39146806D01*
X84051500Y-39487754D01*
X84230511Y-39799774D01*
X84466954Y-40070875D01*
X84751743Y-40290639D01*
X85073934Y-40450621D01*
X85313195Y-40523195D01*
X85598000Y-40406432D01*
X85598000Y-38862000D01*
X85852000Y-38862000D01*
X85852000Y-40406432D01*
X86136805Y-40523195D01*
X86376066Y-40450621D01*
X86698257Y-40290639D01*
X86983046Y-40070875D01*
X87219489Y-39799774D01*
X87398500Y-39487754D01*
X87513199Y-39146806D01*
X89016801Y-39146806D01*
X89131500Y-39487754D01*
X89310511Y-39799774D01*
X89546954Y-40070875D01*
X89831743Y-40290639D01*
X90153934Y-40450621D01*
X90393195Y-40523195D01*
X90678000Y-40406432D01*
X90678000Y-38862000D01*
X90932000Y-38862000D01*
X90932000Y-40406432D01*
X91216805Y-40523195D01*
X91456066Y-40450621D01*
X91778257Y-40290639D01*
X92063046Y-40070875D01*
X92299489Y-39799774D01*
X92478500Y-39487754D01*
X92593199Y-39146806D01*
X94096801Y-39146806D01*
X94211500Y-39487754D01*
X94390511Y-39799774D01*
X94626954Y-40070875D01*
X94911743Y-40290639D01*
X95233934Y-40450621D01*
X95473195Y-40523195D01*
X95758000Y-40406432D01*
X95758000Y-38862000D01*
X96012000Y-38862000D01*
X96012000Y-40406432D01*
X96296805Y-40523195D01*
X96536066Y-40450621D01*
X96858257Y-40290639D01*
X97143046Y-40070875D01*
X97379489Y-39799774D01*
X97558500Y-39487754D01*
X97673199Y-39146806D01*
X97556854Y-38862000D01*
X96012000Y-38862000D01*
X95758000Y-38862000D01*
X94213146Y-38862000D01*
X94096801Y-39146806D01*
X92593199Y-39146806D01*
X92476854Y-38862000D01*
X90932000Y-38862000D01*
X90678000Y-38862000D01*
X89133146Y-38862000D01*
X89016801Y-39146806D01*
X87513199Y-39146806D01*
X87396854Y-38862000D01*
X85852000Y-38862000D01*
X85598000Y-38862000D01*
X84053146Y-38862000D01*
X83936801Y-39146806D01*
X82433199Y-39146806D01*
X82316854Y-38862000D01*
X80772000Y-38862000D01*
X80518000Y-38862000D01*
X78973146Y-38862000D01*
X78856801Y-39146806D01*
X77353199Y-39146806D01*
X77236854Y-38862000D01*
X75692000Y-38862000D01*
X75438000Y-38862000D01*
X73893146Y-38862000D01*
X73776801Y-39146806D01*
X72273199Y-39146806D01*
X72156854Y-38862000D01*
X70612000Y-38862000D01*
X70358000Y-38862000D01*
X68813146Y-38862000D01*
X68696801Y-39146806D01*
X67193199Y-39146806D01*
X67076854Y-38862000D01*
X65532000Y-38862000D01*
X65278000Y-38862000D01*
X63733146Y-38862000D01*
X63616801Y-39146806D01*
X62113199Y-39146806D01*
X61996854Y-38862000D01*
X60452000Y-38862000D01*
X60198000Y-38862000D01*
X58653146Y-38862000D01*
X58536801Y-39146806D01*
X57033199Y-39146806D01*
X56916854Y-38862000D01*
X55372000Y-38862000D01*
X55118000Y-38862000D01*
X53573146Y-38862000D01*
X53456801Y-39146806D01*
X51953199Y-39146806D01*
X51836854Y-38862000D01*
X50292000Y-38862000D01*
X50038000Y-38862000D01*
X48493146Y-38862000D01*
X48376801Y-39146806D01*
X45360521Y-39146806D01*
X45590334Y-38993250D01*
X45978250Y-38605334D01*
X46166770Y-38323194D01*
X48376801Y-38323194D01*
X48493146Y-38608000D01*
X50038000Y-38608000D01*
X50038000Y-37063568D01*
X50292000Y-37063568D01*
X50292000Y-38608000D01*
X51836854Y-38608000D01*
X51953199Y-38323194D01*
X53456801Y-38323194D01*
X53573146Y-38608000D01*
X55118000Y-38608000D01*
X55118000Y-37063568D01*
X55372000Y-37063568D01*
X55372000Y-38608000D01*
X56916854Y-38608000D01*
X57033199Y-38323194D01*
X58536801Y-38323194D01*
X58653146Y-38608000D01*
X60198000Y-38608000D01*
X60198000Y-37063568D01*
X60452000Y-37063568D01*
X60452000Y-38608000D01*
X61996854Y-38608000D01*
X62113199Y-38323194D01*
X63616801Y-38323194D01*
X63733146Y-38608000D01*
X65278000Y-38608000D01*
X65278000Y-37063568D01*
X65532000Y-37063568D01*
X65532000Y-38608000D01*
X67076854Y-38608000D01*
X67193199Y-38323194D01*
X68696801Y-38323194D01*
X68813146Y-38608000D01*
X70358000Y-38608000D01*
X70358000Y-37063568D01*
X70612000Y-37063568D01*
X70612000Y-38608000D01*
X72156854Y-38608000D01*
X72273199Y-38323194D01*
X73776801Y-38323194D01*
X73893146Y-38608000D01*
X75438000Y-38608000D01*
X75438000Y-37063568D01*
X75692000Y-37063568D01*
X75692000Y-38608000D01*
X77236854Y-38608000D01*
X77353199Y-38323194D01*
X78856801Y-38323194D01*
X78973146Y-38608000D01*
X80518000Y-38608000D01*
X80518000Y-37063568D01*
X80772000Y-37063568D01*
X80772000Y-38608000D01*
X82316854Y-38608000D01*
X82433199Y-38323194D01*
X83936801Y-38323194D01*
X84053146Y-38608000D01*
X85598000Y-38608000D01*
X85598000Y-37063568D01*
X85852000Y-37063568D01*
X85852000Y-38608000D01*
X87396854Y-38608000D01*
X87513199Y-38323194D01*
X89016801Y-38323194D01*
X89133146Y-38608000D01*
X90678000Y-38608000D01*
X90678000Y-37063568D01*
X90932000Y-37063568D01*
X90932000Y-38608000D01*
X92476854Y-38608000D01*
X92593199Y-38323194D01*
X94096801Y-38323194D01*
X94213146Y-38608000D01*
X95758000Y-38608000D01*
X95758000Y-37063568D01*
X96012000Y-37063568D01*
X96012000Y-38608000D01*
X97556854Y-38608000D01*
X97673199Y-38323194D01*
X97558500Y-37982246D01*
X97379489Y-37670226D01*
X97143046Y-37399125D01*
X96858257Y-37179361D01*
X96536066Y-37019379D01*
X96296805Y-36946805D01*
X96012000Y-37063568D01*
X95758000Y-37063568D01*
X95473195Y-36946805D01*
X95233934Y-37019379D01*
X94911743Y-37179361D01*
X94626954Y-37399125D01*
X94390511Y-37670226D01*
X94211500Y-37982246D01*
X94096801Y-38323194D01*
X92593199Y-38323194D01*
X92478500Y-37982246D01*
X92299489Y-37670226D01*
X92063046Y-37399125D01*
X91778257Y-37179361D01*
X91456066Y-37019379D01*
X91216805Y-36946805D01*
X90932000Y-37063568D01*
X90678000Y-37063568D01*
X90393195Y-36946805D01*
X90153934Y-37019379D01*
X89831743Y-37179361D01*
X89546954Y-37399125D01*
X89310511Y-37670226D01*
X89131500Y-37982246D01*
X89016801Y-38323194D01*
X87513199Y-38323194D01*
X87398500Y-37982246D01*
X87219489Y-37670226D01*
X86983046Y-37399125D01*
X86698257Y-37179361D01*
X86376066Y-37019379D01*
X86136805Y-36946805D01*
X85852000Y-37063568D01*
X85598000Y-37063568D01*
X85313195Y-36946805D01*
X85073934Y-37019379D01*
X84751743Y-37179361D01*
X84466954Y-37399125D01*
X84230511Y-37670226D01*
X84051500Y-37982246D01*
X83936801Y-38323194D01*
X82433199Y-38323194D01*
X82318500Y-37982246D01*
X82139489Y-37670226D01*
X81903046Y-37399125D01*
X81618257Y-37179361D01*
X81296066Y-37019379D01*
X81056805Y-36946805D01*
X80772000Y-37063568D01*
X80518000Y-37063568D01*
X80233195Y-36946805D01*
X79993934Y-37019379D01*
X79671743Y-37179361D01*
X79386954Y-37399125D01*
X79150511Y-37670226D01*
X78971500Y-37982246D01*
X78856801Y-38323194D01*
X77353199Y-38323194D01*
X77238500Y-37982246D01*
X77059489Y-37670226D01*
X76823046Y-37399125D01*
X76538257Y-37179361D01*
X76216066Y-37019379D01*
X75976805Y-36946805D01*
X75692000Y-37063568D01*
X75438000Y-37063568D01*
X75153195Y-36946805D01*
X74913934Y-37019379D01*
X74591743Y-37179361D01*
X74306954Y-37399125D01*
X74070511Y-37670226D01*
X73891500Y-37982246D01*
X73776801Y-38323194D01*
X72273199Y-38323194D01*
X72158500Y-37982246D01*
X71979489Y-37670226D01*
X71743046Y-37399125D01*
X71458257Y-37179361D01*
X71136066Y-37019379D01*
X70896805Y-36946805D01*
X70612000Y-37063568D01*
X70358000Y-37063568D01*
X70073195Y-36946805D01*
X69833934Y-37019379D01*
X69511743Y-37179361D01*
X69226954Y-37399125D01*
X68990511Y-37670226D01*
X68811500Y-37982246D01*
X68696801Y-38323194D01*
X67193199Y-38323194D01*
X67078500Y-37982246D01*
X66899489Y-37670226D01*
X66663046Y-37399125D01*
X66378257Y-37179361D01*
X66056066Y-37019379D01*
X65816805Y-36946805D01*
X65532000Y-37063568D01*
X65278000Y-37063568D01*
X64993195Y-36946805D01*
X64753934Y-37019379D01*
X64431743Y-37179361D01*
X64146954Y-37399125D01*
X63910511Y-37670226D01*
X63731500Y-37982246D01*
X63616801Y-38323194D01*
X62113199Y-38323194D01*
X61998500Y-37982246D01*
X61819489Y-37670226D01*
X61583046Y-37399125D01*
X61298257Y-37179361D01*
X60976066Y-37019379D01*
X60736805Y-36946805D01*
X60452000Y-37063568D01*
X60198000Y-37063568D01*
X59913195Y-36946805D01*
X59673934Y-37019379D01*
X59351743Y-37179361D01*
X59066954Y-37399125D01*
X58830511Y-37670226D01*
X58651500Y-37982246D01*
X58536801Y-38323194D01*
X57033199Y-38323194D01*
X56918500Y-37982246D01*
X56739489Y-37670226D01*
X56503046Y-37399125D01*
X56218257Y-37179361D01*
X55896066Y-37019379D01*
X55656805Y-36946805D01*
X55372000Y-37063568D01*
X55118000Y-37063568D01*
X54833195Y-36946805D01*
X54593934Y-37019379D01*
X54271743Y-37179361D01*
X53986954Y-37399125D01*
X53750511Y-37670226D01*
X53571500Y-37982246D01*
X53456801Y-38323194D01*
X51953199Y-38323194D01*
X51838500Y-37982246D01*
X51659489Y-37670226D01*
X51423046Y-37399125D01*
X51138257Y-37179361D01*
X50816066Y-37019379D01*
X50576805Y-36946805D01*
X50292000Y-37063568D01*
X50038000Y-37063568D01*
X49753195Y-36946805D01*
X49513934Y-37019379D01*
X49191743Y-37179361D01*
X48906954Y-37399125D01*
X48670511Y-37670226D01*
X48491500Y-37982246D01*
X48376801Y-38323194D01*
X46166770Y-38323194D01*
X46283035Y-38149192D01*
X46492974Y-37642354D01*
X46600000Y-37104299D01*
X46600000Y-36555701D01*
X46492974Y-36017646D01*
X46283035Y-35510808D01*
X46072019Y-35195000D01*
X104454428Y-35195000D01*
X104454428Y-37195000D01*
X104466688Y-37319482D01*
X104502998Y-37439180D01*
X104561963Y-37549494D01*
X104641315Y-37646185D01*
X104738006Y-37725537D01*
X104848320Y-37784502D01*
X104968018Y-37820812D01*
X105092500Y-37833072D01*
X106997500Y-37833072D01*
X107121982Y-37820812D01*
X107241680Y-37784502D01*
X107351994Y-37725537D01*
X107448685Y-37646185D01*
X107528037Y-37549494D01*
X107572905Y-37465553D01*
X107698766Y-37568845D01*
X107974552Y-37716255D01*
X108273797Y-37807030D01*
X108585000Y-37837681D01*
X108896204Y-37807030D01*
X109195449Y-37716255D01*
X109471235Y-37568845D01*
X109712963Y-37370463D01*
X109860162Y-37191100D01*
X110015563Y-37376315D01*
X110258077Y-37570969D01*
X110533906Y-37714571D01*
X110752020Y-37785563D01*
X110998000Y-37665594D01*
X110998000Y-36322000D01*
X111252000Y-36322000D01*
X111252000Y-37665594D01*
X111497980Y-37785563D01*
X111716094Y-37714571D01*
X111991923Y-37570969D01*
X112234437Y-37376315D01*
X112434316Y-37138089D01*
X112583879Y-36865446D01*
X112677378Y-36568863D01*
X112550570Y-36322000D01*
X111252000Y-36322000D01*
X110998000Y-36322000D01*
X110978000Y-36322000D01*
X110978000Y-36068000D01*
X110998000Y-36068000D01*
X110998000Y-34724406D01*
X111252000Y-34724406D01*
X111252000Y-36068000D01*
X112550570Y-36068000D01*
X112677378Y-35821137D01*
X112583879Y-35524554D01*
X112434316Y-35251911D01*
X112386566Y-35195000D01*
X118424428Y-35195000D01*
X118424428Y-37195000D01*
X118436688Y-37319482D01*
X118472998Y-37439180D01*
X118531963Y-37549494D01*
X118611315Y-37646185D01*
X118708006Y-37725537D01*
X118818320Y-37784502D01*
X118938018Y-37820812D01*
X119062500Y-37833072D01*
X120967500Y-37833072D01*
X121091982Y-37820812D01*
X121211680Y-37784502D01*
X121321994Y-37725537D01*
X121418685Y-37646185D01*
X121498037Y-37549494D01*
X121542905Y-37465553D01*
X121668766Y-37568845D01*
X121944552Y-37716255D01*
X122243797Y-37807030D01*
X122555000Y-37837681D01*
X122866204Y-37807030D01*
X123165449Y-37716255D01*
X123441235Y-37568845D01*
X123682963Y-37370463D01*
X123830162Y-37191100D01*
X123985563Y-37376315D01*
X124228077Y-37570969D01*
X124503906Y-37714571D01*
X124722020Y-37785563D01*
X124968000Y-37665594D01*
X124968000Y-36322000D01*
X125222000Y-36322000D01*
X125222000Y-37665594D01*
X125467980Y-37785563D01*
X125686094Y-37714571D01*
X125961923Y-37570969D01*
X126204437Y-37376315D01*
X126404316Y-37138089D01*
X126553879Y-36865446D01*
X126647378Y-36568863D01*
X126520570Y-36322000D01*
X125222000Y-36322000D01*
X124968000Y-36322000D01*
X124948000Y-36322000D01*
X124948000Y-36068000D01*
X124968000Y-36068000D01*
X124968000Y-34724406D01*
X125222000Y-34724406D01*
X125222000Y-36068000D01*
X126520570Y-36068000D01*
X126647378Y-35821137D01*
X126553879Y-35524554D01*
X126404316Y-35251911D01*
X126356566Y-35195000D01*
X132394428Y-35195000D01*
X132394428Y-37195000D01*
X132406688Y-37319482D01*
X132442998Y-37439180D01*
X132501963Y-37549494D01*
X132581315Y-37646185D01*
X132678006Y-37725537D01*
X132788320Y-37784502D01*
X132908018Y-37820812D01*
X133032500Y-37833072D01*
X134937500Y-37833072D01*
X135061982Y-37820812D01*
X135181680Y-37784502D01*
X135291994Y-37725537D01*
X135388685Y-37646185D01*
X135468037Y-37549494D01*
X135512905Y-37465553D01*
X135638766Y-37568845D01*
X135914552Y-37716255D01*
X136213797Y-37807030D01*
X136525000Y-37837681D01*
X136836204Y-37807030D01*
X137135449Y-37716255D01*
X137411235Y-37568845D01*
X137652963Y-37370463D01*
X137800162Y-37191100D01*
X137955563Y-37376315D01*
X138198077Y-37570969D01*
X138473906Y-37714571D01*
X138692020Y-37785563D01*
X138938000Y-37665594D01*
X138938000Y-36322000D01*
X139192000Y-36322000D01*
X139192000Y-37665594D01*
X139437980Y-37785563D01*
X139656094Y-37714571D01*
X139931923Y-37570969D01*
X140174437Y-37376315D01*
X140374316Y-37138089D01*
X140523879Y-36865446D01*
X140617378Y-36568863D01*
X140490570Y-36322000D01*
X139192000Y-36322000D01*
X138938000Y-36322000D01*
X138918000Y-36322000D01*
X138918000Y-36068000D01*
X138938000Y-36068000D01*
X138938000Y-34724406D01*
X139192000Y-34724406D01*
X139192000Y-36068000D01*
X140490570Y-36068000D01*
X140617378Y-35821137D01*
X140523879Y-35524554D01*
X140374316Y-35251911D01*
X140326566Y-35195000D01*
X146364428Y-35195000D01*
X146364428Y-37195000D01*
X146376688Y-37319482D01*
X146412998Y-37439180D01*
X146471963Y-37549494D01*
X146551315Y-37646185D01*
X146648006Y-37725537D01*
X146758320Y-37784502D01*
X146878018Y-37820812D01*
X147002500Y-37833072D01*
X148907500Y-37833072D01*
X149031982Y-37820812D01*
X149151680Y-37784502D01*
X149261994Y-37725537D01*
X149358685Y-37646185D01*
X149438037Y-37549494D01*
X149482905Y-37465553D01*
X149608766Y-37568845D01*
X149884552Y-37716255D01*
X150183797Y-37807030D01*
X150495000Y-37837681D01*
X150806204Y-37807030D01*
X151105449Y-37716255D01*
X151381235Y-37568845D01*
X151622963Y-37370463D01*
X151770162Y-37191100D01*
X151925563Y-37376315D01*
X152168077Y-37570969D01*
X152443906Y-37714571D01*
X152662020Y-37785563D01*
X152908000Y-37665594D01*
X152908000Y-36322000D01*
X153162000Y-36322000D01*
X153162000Y-37665594D01*
X153407980Y-37785563D01*
X153626094Y-37714571D01*
X153901923Y-37570969D01*
X154144437Y-37376315D01*
X154344316Y-37138089D01*
X154493879Y-36865446D01*
X154587378Y-36568863D01*
X154580617Y-36555701D01*
X157235000Y-36555701D01*
X157235000Y-37104299D01*
X157342026Y-37642354D01*
X157551965Y-38149192D01*
X157856750Y-38605334D01*
X158244666Y-38993250D01*
X158700808Y-39298035D01*
X159207646Y-39507974D01*
X159745701Y-39615000D01*
X160294299Y-39615000D01*
X160832354Y-39507974D01*
X161339192Y-39298035D01*
X161795334Y-38993250D01*
X162183250Y-38605334D01*
X162488035Y-38149192D01*
X162697974Y-37642354D01*
X162805000Y-37104299D01*
X162805000Y-36555701D01*
X162697974Y-36017646D01*
X162488035Y-35510808D01*
X162183250Y-35054666D01*
X161795334Y-34666750D01*
X161339192Y-34361965D01*
X160832354Y-34152026D01*
X160294299Y-34045000D01*
X159745701Y-34045000D01*
X159207646Y-34152026D01*
X158700808Y-34361965D01*
X158244666Y-34666750D01*
X157856750Y-35054666D01*
X157551965Y-35510808D01*
X157342026Y-36017646D01*
X157235000Y-36555701D01*
X154580617Y-36555701D01*
X154460570Y-36322000D01*
X153162000Y-36322000D01*
X152908000Y-36322000D01*
X152888000Y-36322000D01*
X152888000Y-36068000D01*
X152908000Y-36068000D01*
X152908000Y-34724406D01*
X153162000Y-34724406D01*
X153162000Y-36068000D01*
X154460570Y-36068000D01*
X154587378Y-35821137D01*
X154493879Y-35524554D01*
X154344316Y-35251911D01*
X154144437Y-35013685D01*
X153901923Y-34819031D01*
X153626094Y-34675429D01*
X153407980Y-34604437D01*
X153162000Y-34724406D01*
X152908000Y-34724406D01*
X152662020Y-34604437D01*
X152443906Y-34675429D01*
X152168077Y-34819031D01*
X151925563Y-35013685D01*
X151770163Y-35198899D01*
X151622963Y-35019537D01*
X151381234Y-34821155D01*
X151105448Y-34673745D01*
X150806203Y-34582970D01*
X150495000Y-34552319D01*
X150183796Y-34582970D01*
X149884551Y-34673745D01*
X149608765Y-34821155D01*
X149482905Y-34924446D01*
X149438037Y-34840506D01*
X149358685Y-34743815D01*
X149261994Y-34664463D01*
X149151680Y-34605498D01*
X149031982Y-34569188D01*
X148907500Y-34556928D01*
X147002500Y-34556928D01*
X146878018Y-34569188D01*
X146758320Y-34605498D01*
X146648006Y-34664463D01*
X146551315Y-34743815D01*
X146471963Y-34840506D01*
X146412998Y-34950820D01*
X146376688Y-35070518D01*
X146364428Y-35195000D01*
X140326566Y-35195000D01*
X140174437Y-35013685D01*
X139931923Y-34819031D01*
X139656094Y-34675429D01*
X139437980Y-34604437D01*
X139192000Y-34724406D01*
X138938000Y-34724406D01*
X138692020Y-34604437D01*
X138473906Y-34675429D01*
X138198077Y-34819031D01*
X137955563Y-35013685D01*
X137800163Y-35198899D01*
X137652963Y-35019537D01*
X137411234Y-34821155D01*
X137135448Y-34673745D01*
X136836203Y-34582970D01*
X136525000Y-34552319D01*
X136213796Y-34582970D01*
X135914551Y-34673745D01*
X135638765Y-34821155D01*
X135512905Y-34924446D01*
X135468037Y-34840506D01*
X135388685Y-34743815D01*
X135291994Y-34664463D01*
X135181680Y-34605498D01*
X135061982Y-34569188D01*
X134937500Y-34556928D01*
X133032500Y-34556928D01*
X132908018Y-34569188D01*
X132788320Y-34605498D01*
X132678006Y-34664463D01*
X132581315Y-34743815D01*
X132501963Y-34840506D01*
X132442998Y-34950820D01*
X132406688Y-35070518D01*
X132394428Y-35195000D01*
X126356566Y-35195000D01*
X126204437Y-35013685D01*
X125961923Y-34819031D01*
X125686094Y-34675429D01*
X125467980Y-34604437D01*
X125222000Y-34724406D01*
X124968000Y-34724406D01*
X124722020Y-34604437D01*
X124503906Y-34675429D01*
X124228077Y-34819031D01*
X123985563Y-35013685D01*
X123830163Y-35198899D01*
X123682963Y-35019537D01*
X123441234Y-34821155D01*
X123165448Y-34673745D01*
X122866203Y-34582970D01*
X122555000Y-34552319D01*
X122243796Y-34582970D01*
X121944551Y-34673745D01*
X121668765Y-34821155D01*
X121542905Y-34924446D01*
X121498037Y-34840506D01*
X121418685Y-34743815D01*
X121321994Y-34664463D01*
X121211680Y-34605498D01*
X121091982Y-34569188D01*
X120967500Y-34556928D01*
X119062500Y-34556928D01*
X118938018Y-34569188D01*
X118818320Y-34605498D01*
X118708006Y-34664463D01*
X118611315Y-34743815D01*
X118531963Y-34840506D01*
X118472998Y-34950820D01*
X118436688Y-35070518D01*
X118424428Y-35195000D01*
X112386566Y-35195000D01*
X112234437Y-35013685D01*
X111991923Y-34819031D01*
X111716094Y-34675429D01*
X111497980Y-34604437D01*
X111252000Y-34724406D01*
X110998000Y-34724406D01*
X110752020Y-34604437D01*
X110533906Y-34675429D01*
X110258077Y-34819031D01*
X110015563Y-35013685D01*
X109860163Y-35198899D01*
X109712963Y-35019537D01*
X109471234Y-34821155D01*
X109195448Y-34673745D01*
X108896203Y-34582970D01*
X108585000Y-34552319D01*
X108273796Y-34582970D01*
X107974551Y-34673745D01*
X107698765Y-34821155D01*
X107572905Y-34924446D01*
X107528037Y-34840506D01*
X107448685Y-34743815D01*
X107351994Y-34664463D01*
X107241680Y-34605498D01*
X107121982Y-34569188D01*
X106997500Y-34556928D01*
X105092500Y-34556928D01*
X104968018Y-34569188D01*
X104848320Y-34605498D01*
X104738006Y-34664463D01*
X104641315Y-34743815D01*
X104561963Y-34840506D01*
X104502998Y-34950820D01*
X104466688Y-35070518D01*
X104454428Y-35195000D01*
X46072019Y-35195000D01*
X45978250Y-35054666D01*
X45590334Y-34666750D01*
X45134192Y-34361965D01*
X44627354Y-34152026D01*
X44089299Y-34045000D01*
X43540701Y-34045000D01*
X43002646Y-34152026D01*
X42495808Y-34361965D01*
X42039666Y-34666750D01*
X41651750Y-35054666D01*
X41346965Y-35510808D01*
X41137026Y-36017646D01*
X41030000Y-36555701D01*
X40170504Y-36555701D01*
X38906210Y-35291408D01*
X38950000Y-35071260D01*
X38950000Y-34778740D01*
X38892932Y-34491842D01*
X38780990Y-34221589D01*
X38618475Y-33978368D01*
X38411632Y-33771525D01*
X38274655Y-33680000D01*
X165710000Y-33680000D01*
X165710001Y-40472364D01*
G37*
G04 #@! TD.AperFunction*
D21*
X80880000Y-71311939D02*
X80919774Y-71511898D01*
X80997795Y-71700256D01*
X81111063Y-71869774D01*
X81255226Y-72013937D01*
X81424744Y-72127205D01*
X81613102Y-72205226D01*
X81813061Y-72245000D01*
X81875197Y-72245000D01*
X81896205Y-72266007D01*
X81919999Y-72295001D01*
X81948992Y-72318795D01*
X81948996Y-72318799D01*
X81990265Y-72352667D01*
X82035724Y-72389974D01*
X82167753Y-72460546D01*
X82311014Y-72504003D01*
X82422667Y-72515000D01*
X82422676Y-72515000D01*
X82459999Y-72518676D01*
X82497322Y-72515000D01*
X86045199Y-72515000D01*
X87505001Y-73974803D01*
X87505000Y-75346928D01*
X87415000Y-75346928D01*
X87290518Y-75359188D01*
X87170820Y-75395498D01*
X87060506Y-75454463D01*
X86963815Y-75533815D01*
X86884463Y-75630506D01*
X86825498Y-75740820D01*
X86789188Y-75860518D01*
X86776928Y-75985000D01*
X86776928Y-77685000D01*
X86789188Y-77809482D01*
X86825498Y-77929180D01*
X86884463Y-78039494D01*
X86917705Y-78080000D01*
X83987637Y-78080000D01*
X84185269Y-77932588D01*
X84380178Y-77716355D01*
X84529157Y-77466252D01*
X84626481Y-77191891D01*
X84505814Y-76962000D01*
X83312000Y-76962000D01*
X83312000Y-76982000D01*
X83058000Y-76982000D01*
X83058000Y-76962000D01*
X83038000Y-76962000D01*
X83038000Y-76708000D01*
X83058000Y-76708000D01*
X83058000Y-75514845D01*
X83312000Y-75514845D01*
X83312000Y-76708000D01*
X84505814Y-76708000D01*
X84626481Y-76478109D01*
X84529157Y-76203748D01*
X84380178Y-75953645D01*
X84185269Y-75737412D01*
X83951920Y-75563359D01*
X83689099Y-75438175D01*
X83541890Y-75393524D01*
X83312000Y-75514845D01*
X83058000Y-75514845D01*
X82828110Y-75393524D01*
X82680901Y-75438175D01*
X82418080Y-75563359D01*
X82184731Y-75737412D01*
X81989822Y-75953645D01*
X81920195Y-76070534D01*
X81798475Y-75888368D01*
X81591632Y-75681525D01*
X81405000Y-75556822D01*
X81405000Y-73698735D01*
X81408676Y-73661410D01*
X81405000Y-73624085D01*
X81405000Y-73624077D01*
X81394003Y-73512424D01*
X81350546Y-73369163D01*
X81279974Y-73237134D01*
X81185001Y-73121409D01*
X81156003Y-73097611D01*
X79303392Y-71245000D01*
X80880000Y-71245000D01*
X80880000Y-71311939D01*
G04 #@! TA.AperFunction,Conductor*
D22*
G36*
X80880000Y-71311939D02*
G01*
X80919774Y-71511898D01*
X80997795Y-71700256D01*
X81111063Y-71869774D01*
X81255226Y-72013937D01*
X81424744Y-72127205D01*
X81613102Y-72205226D01*
X81813061Y-72245000D01*
X81875197Y-72245000D01*
X81896205Y-72266007D01*
X81919999Y-72295001D01*
X81948992Y-72318795D01*
X81948996Y-72318799D01*
X81990265Y-72352667D01*
X82035724Y-72389974D01*
X82167753Y-72460546D01*
X82311014Y-72504003D01*
X82422667Y-72515000D01*
X82422676Y-72515000D01*
X82459999Y-72518676D01*
X82497322Y-72515000D01*
X86045199Y-72515000D01*
X87505001Y-73974803D01*
X87505000Y-75346928D01*
X87415000Y-75346928D01*
X87290518Y-75359188D01*
X87170820Y-75395498D01*
X87060506Y-75454463D01*
X86963815Y-75533815D01*
X86884463Y-75630506D01*
X86825498Y-75740820D01*
X86789188Y-75860518D01*
X86776928Y-75985000D01*
X86776928Y-77685000D01*
X86789188Y-77809482D01*
X86825498Y-77929180D01*
X86884463Y-78039494D01*
X86917705Y-78080000D01*
X83987637Y-78080000D01*
X84185269Y-77932588D01*
X84380178Y-77716355D01*
X84529157Y-77466252D01*
X84626481Y-77191891D01*
X84505814Y-76962000D01*
X83312000Y-76962000D01*
X83312000Y-76982000D01*
X83058000Y-76982000D01*
X83058000Y-76962000D01*
X83038000Y-76962000D01*
X83038000Y-76708000D01*
X83058000Y-76708000D01*
X83058000Y-75514845D01*
X83312000Y-75514845D01*
X83312000Y-76708000D01*
X84505814Y-76708000D01*
X84626481Y-76478109D01*
X84529157Y-76203748D01*
X84380178Y-75953645D01*
X84185269Y-75737412D01*
X83951920Y-75563359D01*
X83689099Y-75438175D01*
X83541890Y-75393524D01*
X83312000Y-75514845D01*
X83058000Y-75514845D01*
X82828110Y-75393524D01*
X82680901Y-75438175D01*
X82418080Y-75563359D01*
X82184731Y-75737412D01*
X81989822Y-75953645D01*
X81920195Y-76070534D01*
X81798475Y-75888368D01*
X81591632Y-75681525D01*
X81405000Y-75556822D01*
X81405000Y-73698735D01*
X81408676Y-73661410D01*
X81405000Y-73624085D01*
X81405000Y-73624077D01*
X81394003Y-73512424D01*
X81350546Y-73369163D01*
X81279974Y-73237134D01*
X81185001Y-73121409D01*
X81156003Y-73097611D01*
X79303392Y-71245000D01*
X80880000Y-71245000D01*
X80880000Y-71311939D01*
G37*
G04 #@! TD.AperFunction*
D21*
X54709750Y-66180518D02*
X54375801Y-66318844D01*
X54075256Y-66519662D01*
X53819662Y-66775256D01*
X53618844Y-67075801D01*
X53480518Y-67409750D01*
X53410000Y-67764268D01*
X53410000Y-68125732D01*
X53480518Y-68480250D01*
X53525750Y-68589449D01*
X51624379Y-70490820D01*
X51603937Y-70460226D01*
X51459774Y-70316063D01*
X51290256Y-70202795D01*
X51101898Y-70124774D01*
X50901939Y-70085000D01*
X50698061Y-70085000D01*
X50498102Y-70124774D01*
X50309744Y-70202795D01*
X50140226Y-70316063D01*
X49996063Y-70460226D01*
X49882795Y-70629744D01*
X49804774Y-70818102D01*
X49765000Y-71018061D01*
X49765000Y-71080199D01*
X49654007Y-71191192D01*
X49653996Y-71191201D01*
X47113998Y-73731201D01*
X47085000Y-73754999D01*
X47061202Y-73783997D01*
X47061201Y-73783998D01*
X46990026Y-73870724D01*
X46919454Y-74002754D01*
X46894726Y-74084276D01*
X46875998Y-74146014D01*
X46868337Y-74223799D01*
X46861324Y-74295000D01*
X46865001Y-74332332D01*
X46865001Y-75346928D01*
X46775000Y-75346928D01*
X46650518Y-75359188D01*
X46530820Y-75395498D01*
X46420506Y-75454463D01*
X46323815Y-75533815D01*
X46244463Y-75630506D01*
X46185498Y-75740820D01*
X46149188Y-75860518D01*
X46136928Y-75985000D01*
X46136928Y-77685000D01*
X46149188Y-77809482D01*
X46185498Y-77929180D01*
X46244463Y-78039494D01*
X46277705Y-78080000D01*
X43347637Y-78080000D01*
X43545269Y-77932588D01*
X43740178Y-77716355D01*
X43889157Y-77466252D01*
X43986481Y-77191891D01*
X43865814Y-76962000D01*
X42672000Y-76962000D01*
X42672000Y-76982000D01*
X42418000Y-76982000D01*
X42418000Y-76962000D01*
X42398000Y-76962000D01*
X42398000Y-76708000D01*
X42418000Y-76708000D01*
X42418000Y-76688000D01*
X42672000Y-76688000D01*
X42672000Y-76708000D01*
X43865814Y-76708000D01*
X43986481Y-76478109D01*
X43889157Y-76203748D01*
X43740178Y-75953645D01*
X43545269Y-75737412D01*
X43311920Y-75563359D01*
X43049099Y-75438175D01*
X42901890Y-75393524D01*
X42672002Y-75514844D01*
X42672002Y-75350000D01*
X42564801Y-75350000D01*
X48769860Y-69144942D01*
X48995256Y-69370338D01*
X49295801Y-69571156D01*
X49629750Y-69709482D01*
X49984268Y-69780000D01*
X50345732Y-69780000D01*
X50700250Y-69709482D01*
X51034199Y-69571156D01*
X51334744Y-69370338D01*
X51590338Y-69114744D01*
X51791156Y-68814199D01*
X51929482Y-68480250D01*
X52000000Y-68125732D01*
X52000000Y-67764268D01*
X51929482Y-67409750D01*
X51791156Y-67075801D01*
X51590338Y-66775256D01*
X51334744Y-66519662D01*
X51034199Y-66318844D01*
X50700250Y-66180518D01*
X50622236Y-66165000D01*
X54787764Y-66165000D01*
X54709750Y-66180518D01*
G04 #@! TA.AperFunction,Conductor*
D22*
G36*
X54709750Y-66180518D02*
G01*
X54375801Y-66318844D01*
X54075256Y-66519662D01*
X53819662Y-66775256D01*
X53618844Y-67075801D01*
X53480518Y-67409750D01*
X53410000Y-67764268D01*
X53410000Y-68125732D01*
X53480518Y-68480250D01*
X53525750Y-68589449D01*
X51624379Y-70490820D01*
X51603937Y-70460226D01*
X51459774Y-70316063D01*
X51290256Y-70202795D01*
X51101898Y-70124774D01*
X50901939Y-70085000D01*
X50698061Y-70085000D01*
X50498102Y-70124774D01*
X50309744Y-70202795D01*
X50140226Y-70316063D01*
X49996063Y-70460226D01*
X49882795Y-70629744D01*
X49804774Y-70818102D01*
X49765000Y-71018061D01*
X49765000Y-71080199D01*
X49654007Y-71191192D01*
X49653996Y-71191201D01*
X47113998Y-73731201D01*
X47085000Y-73754999D01*
X47061202Y-73783997D01*
X47061201Y-73783998D01*
X46990026Y-73870724D01*
X46919454Y-74002754D01*
X46894726Y-74084276D01*
X46875998Y-74146014D01*
X46868337Y-74223799D01*
X46861324Y-74295000D01*
X46865001Y-74332332D01*
X46865001Y-75346928D01*
X46775000Y-75346928D01*
X46650518Y-75359188D01*
X46530820Y-75395498D01*
X46420506Y-75454463D01*
X46323815Y-75533815D01*
X46244463Y-75630506D01*
X46185498Y-75740820D01*
X46149188Y-75860518D01*
X46136928Y-75985000D01*
X46136928Y-77685000D01*
X46149188Y-77809482D01*
X46185498Y-77929180D01*
X46244463Y-78039494D01*
X46277705Y-78080000D01*
X43347637Y-78080000D01*
X43545269Y-77932588D01*
X43740178Y-77716355D01*
X43889157Y-77466252D01*
X43986481Y-77191891D01*
X43865814Y-76962000D01*
X42672000Y-76962000D01*
X42672000Y-76982000D01*
X42418000Y-76982000D01*
X42418000Y-76962000D01*
X42398000Y-76962000D01*
X42398000Y-76708000D01*
X42418000Y-76708000D01*
X42418000Y-76688000D01*
X42672000Y-76688000D01*
X42672000Y-76708000D01*
X43865814Y-76708000D01*
X43986481Y-76478109D01*
X43889157Y-76203748D01*
X43740178Y-75953645D01*
X43545269Y-75737412D01*
X43311920Y-75563359D01*
X43049099Y-75438175D01*
X42901890Y-75393524D01*
X42672002Y-75514844D01*
X42672002Y-75350000D01*
X42564801Y-75350000D01*
X48769860Y-69144942D01*
X48995256Y-69370338D01*
X49295801Y-69571156D01*
X49629750Y-69709482D01*
X49984268Y-69780000D01*
X50345732Y-69780000D01*
X50700250Y-69709482D01*
X51034199Y-69571156D01*
X51334744Y-69370338D01*
X51590338Y-69114744D01*
X51791156Y-68814199D01*
X51929482Y-68480250D01*
X52000000Y-68125732D01*
X52000000Y-67764268D01*
X51929482Y-67409750D01*
X51791156Y-67075801D01*
X51590338Y-66775256D01*
X51334744Y-66519662D01*
X51034199Y-66318844D01*
X50700250Y-66180518D01*
X50622236Y-66165000D01*
X54787764Y-66165000D01*
X54709750Y-66180518D01*
G37*
G04 #@! TD.AperFunction*
D21*
X113382795Y-70629744D02*
X113304774Y-70818102D01*
X113265000Y-71018061D01*
X113265000Y-71221939D01*
X113304774Y-71421898D01*
X113382795Y-71610256D01*
X113496063Y-71779774D01*
X113640226Y-71923937D01*
X113809744Y-72037205D01*
X113998102Y-72115226D01*
X114198061Y-72155000D01*
X114260199Y-72155000D01*
X117552989Y-75447791D01*
X117540506Y-75454463D01*
X117443815Y-75533815D01*
X117364463Y-75630506D01*
X117305498Y-75740820D01*
X117269188Y-75860518D01*
X117256928Y-75985000D01*
X117256928Y-77685000D01*
X117269188Y-77809482D01*
X117305498Y-77929180D01*
X117364463Y-78039494D01*
X117397705Y-78080000D01*
X114467637Y-78080000D01*
X114665269Y-77932588D01*
X114860178Y-77716355D01*
X115009157Y-77466252D01*
X115106481Y-77191891D01*
X114985814Y-76962000D01*
X113792000Y-76962000D01*
X113792000Y-76982000D01*
X113538000Y-76982000D01*
X113538000Y-76962000D01*
X113518000Y-76962000D01*
X113518000Y-76708000D01*
X113538000Y-76708000D01*
X113538000Y-75514845D01*
X113792000Y-75514845D01*
X113792000Y-76708000D01*
X114985814Y-76708000D01*
X115106481Y-76478109D01*
X115009157Y-76203748D01*
X114860178Y-75953645D01*
X114665269Y-75737412D01*
X114431920Y-75563359D01*
X114169099Y-75438175D01*
X114021890Y-75393524D01*
X113792000Y-75514845D01*
X113538000Y-75514845D01*
X113308110Y-75393524D01*
X113160901Y-75438175D01*
X112898080Y-75563359D01*
X112664731Y-75737412D01*
X112469822Y-75953645D01*
X112400195Y-76070534D01*
X112278475Y-75888368D01*
X112071632Y-75681525D01*
X111828411Y-75519010D01*
X111558158Y-75407068D01*
X111271260Y-75350000D01*
X110978740Y-75350000D01*
X110758593Y-75393790D01*
X105974801Y-70610000D01*
X113395987Y-70610000D01*
X113382795Y-70629744D01*
G04 #@! TA.AperFunction,Conductor*
D22*
G36*
X113382795Y-70629744D02*
G01*
X113304774Y-70818102D01*
X113265000Y-71018061D01*
X113265000Y-71221939D01*
X113304774Y-71421898D01*
X113382795Y-71610256D01*
X113496063Y-71779774D01*
X113640226Y-71923937D01*
X113809744Y-72037205D01*
X113998102Y-72115226D01*
X114198061Y-72155000D01*
X114260199Y-72155000D01*
X117552989Y-75447791D01*
X117540506Y-75454463D01*
X117443815Y-75533815D01*
X117364463Y-75630506D01*
X117305498Y-75740820D01*
X117269188Y-75860518D01*
X117256928Y-75985000D01*
X117256928Y-77685000D01*
X117269188Y-77809482D01*
X117305498Y-77929180D01*
X117364463Y-78039494D01*
X117397705Y-78080000D01*
X114467637Y-78080000D01*
X114665269Y-77932588D01*
X114860178Y-77716355D01*
X115009157Y-77466252D01*
X115106481Y-77191891D01*
X114985814Y-76962000D01*
X113792000Y-76962000D01*
X113792000Y-76982000D01*
X113538000Y-76982000D01*
X113538000Y-76962000D01*
X113518000Y-76962000D01*
X113518000Y-76708000D01*
X113538000Y-76708000D01*
X113538000Y-75514845D01*
X113792000Y-75514845D01*
X113792000Y-76708000D01*
X114985814Y-76708000D01*
X115106481Y-76478109D01*
X115009157Y-76203748D01*
X114860178Y-75953645D01*
X114665269Y-75737412D01*
X114431920Y-75563359D01*
X114169099Y-75438175D01*
X114021890Y-75393524D01*
X113792000Y-75514845D01*
X113538000Y-75514845D01*
X113308110Y-75393524D01*
X113160901Y-75438175D01*
X112898080Y-75563359D01*
X112664731Y-75737412D01*
X112469822Y-75953645D01*
X112400195Y-76070534D01*
X112278475Y-75888368D01*
X112071632Y-75681525D01*
X111828411Y-75519010D01*
X111558158Y-75407068D01*
X111271260Y-75350000D01*
X110978740Y-75350000D01*
X110758593Y-75393790D01*
X105974801Y-70610000D01*
X113395987Y-70610000D01*
X113382795Y-70629744D01*
G37*
G04 #@! TD.AperFunction*
D21*
X123830820Y-70295621D02*
X123800226Y-70316063D01*
X123656063Y-70460226D01*
X123542795Y-70629744D01*
X123464774Y-70818102D01*
X123425000Y-71018061D01*
X123425000Y-71221939D01*
X123464774Y-71421898D01*
X123542795Y-71610256D01*
X123656063Y-71779774D01*
X123800226Y-71923937D01*
X123969744Y-72037205D01*
X124158102Y-72115226D01*
X124358061Y-72155000D01*
X124420199Y-72155000D01*
X127712989Y-75447791D01*
X127700506Y-75454463D01*
X127603815Y-75533815D01*
X127524463Y-75630506D01*
X127465498Y-75740820D01*
X127429188Y-75860518D01*
X127416928Y-75985000D01*
X127416928Y-77685000D01*
X127429188Y-77809482D01*
X127465498Y-77929180D01*
X127524463Y-78039494D01*
X127557705Y-78080000D01*
X124627637Y-78080000D01*
X124825269Y-77932588D01*
X125020178Y-77716355D01*
X125169157Y-77466252D01*
X125266481Y-77191891D01*
X125145814Y-76962000D01*
X123952000Y-76962000D01*
X123952000Y-76982000D01*
X123698000Y-76982000D01*
X123698000Y-76962000D01*
X123678000Y-76962000D01*
X123678000Y-76708000D01*
X123698000Y-76708000D01*
X123698000Y-75514845D01*
X123952000Y-75514845D01*
X123952000Y-76708000D01*
X125145814Y-76708000D01*
X125266481Y-76478109D01*
X125169157Y-76203748D01*
X125020178Y-75953645D01*
X124825269Y-75737412D01*
X124591920Y-75563359D01*
X124329099Y-75438175D01*
X124181890Y-75393524D01*
X123952000Y-75514845D01*
X123698000Y-75514845D01*
X123468110Y-75393524D01*
X123320901Y-75438175D01*
X123058080Y-75563359D01*
X122824731Y-75737412D01*
X122629822Y-75953645D01*
X122560195Y-76070534D01*
X122438475Y-75888368D01*
X122231632Y-75681525D01*
X121988411Y-75519010D01*
X121718158Y-75407068D01*
X121431260Y-75350000D01*
X121138740Y-75350000D01*
X120918592Y-75393790D01*
X115499801Y-69975000D01*
X123510199Y-69975000D01*
X123830820Y-70295621D01*
G04 #@! TA.AperFunction,Conductor*
D22*
G36*
X123830820Y-70295621D02*
G01*
X123800226Y-70316063D01*
X123656063Y-70460226D01*
X123542795Y-70629744D01*
X123464774Y-70818102D01*
X123425000Y-71018061D01*
X123425000Y-71221939D01*
X123464774Y-71421898D01*
X123542795Y-71610256D01*
X123656063Y-71779774D01*
X123800226Y-71923937D01*
X123969744Y-72037205D01*
X124158102Y-72115226D01*
X124358061Y-72155000D01*
X124420199Y-72155000D01*
X127712989Y-75447791D01*
X127700506Y-75454463D01*
X127603815Y-75533815D01*
X127524463Y-75630506D01*
X127465498Y-75740820D01*
X127429188Y-75860518D01*
X127416928Y-75985000D01*
X127416928Y-77685000D01*
X127429188Y-77809482D01*
X127465498Y-77929180D01*
X127524463Y-78039494D01*
X127557705Y-78080000D01*
X124627637Y-78080000D01*
X124825269Y-77932588D01*
X125020178Y-77716355D01*
X125169157Y-77466252D01*
X125266481Y-77191891D01*
X125145814Y-76962000D01*
X123952000Y-76962000D01*
X123952000Y-76982000D01*
X123698000Y-76982000D01*
X123698000Y-76962000D01*
X123678000Y-76962000D01*
X123678000Y-76708000D01*
X123698000Y-76708000D01*
X123698000Y-75514845D01*
X123952000Y-75514845D01*
X123952000Y-76708000D01*
X125145814Y-76708000D01*
X125266481Y-76478109D01*
X125169157Y-76203748D01*
X125020178Y-75953645D01*
X124825269Y-75737412D01*
X124591920Y-75563359D01*
X124329099Y-75438175D01*
X124181890Y-75393524D01*
X123952000Y-75514845D01*
X123698000Y-75514845D01*
X123468110Y-75393524D01*
X123320901Y-75438175D01*
X123058080Y-75563359D01*
X122824731Y-75737412D01*
X122629822Y-75953645D01*
X122560195Y-76070534D01*
X122438475Y-75888368D01*
X122231632Y-75681525D01*
X121988411Y-75519010D01*
X121718158Y-75407068D01*
X121431260Y-75350000D01*
X121138740Y-75350000D01*
X120918592Y-75393790D01*
X115499801Y-69975000D01*
X123510199Y-69975000D01*
X123830820Y-70295621D01*
G37*
G04 #@! TD.AperFunction*
D21*
X103105000Y-71221939D02*
X103144774Y-71421898D01*
X103222795Y-71610256D01*
X103336063Y-71779774D01*
X103480226Y-71923937D01*
X103649744Y-72037205D01*
X103838102Y-72115226D01*
X104038061Y-72155000D01*
X104100199Y-72155000D01*
X107392989Y-75447791D01*
X107380506Y-75454463D01*
X107283815Y-75533815D01*
X107204463Y-75630506D01*
X107145498Y-75740820D01*
X107109188Y-75860518D01*
X107096928Y-75985000D01*
X107096928Y-77685000D01*
X107109188Y-77809482D01*
X107145498Y-77929180D01*
X107204463Y-78039494D01*
X107237705Y-78080000D01*
X104307637Y-78080000D01*
X104505269Y-77932588D01*
X104700178Y-77716355D01*
X104849157Y-77466252D01*
X104946481Y-77191891D01*
X104825814Y-76962000D01*
X103632000Y-76962000D01*
X103632000Y-76982000D01*
X103378000Y-76982000D01*
X103378000Y-76962000D01*
X103358000Y-76962000D01*
X103358000Y-76708000D01*
X103378000Y-76708000D01*
X103378000Y-75514845D01*
X103632000Y-75514845D01*
X103632000Y-76708000D01*
X104825814Y-76708000D01*
X104946481Y-76478109D01*
X104849157Y-76203748D01*
X104700178Y-75953645D01*
X104505269Y-75737412D01*
X104271920Y-75563359D01*
X104009099Y-75438175D01*
X103861890Y-75393524D01*
X103632000Y-75514845D01*
X103378000Y-75514845D01*
X103148110Y-75393524D01*
X103000901Y-75438175D01*
X102738080Y-75563359D01*
X102504731Y-75737412D01*
X102309822Y-75953645D01*
X102240195Y-76070534D01*
X102118475Y-75888368D01*
X101911632Y-75681525D01*
X101668411Y-75519010D01*
X101398158Y-75407068D01*
X101111260Y-75350000D01*
X100818740Y-75350000D01*
X100598592Y-75393790D01*
X96264811Y-71060010D01*
X103105000Y-71060010D01*
X103105000Y-71221939D01*
G04 #@! TA.AperFunction,Conductor*
D22*
G36*
X103105000Y-71221939D02*
G01*
X103144774Y-71421898D01*
X103222795Y-71610256D01*
X103336063Y-71779774D01*
X103480226Y-71923937D01*
X103649744Y-72037205D01*
X103838102Y-72115226D01*
X104038061Y-72155000D01*
X104100199Y-72155000D01*
X107392989Y-75447791D01*
X107380506Y-75454463D01*
X107283815Y-75533815D01*
X107204463Y-75630506D01*
X107145498Y-75740820D01*
X107109188Y-75860518D01*
X107096928Y-75985000D01*
X107096928Y-77685000D01*
X107109188Y-77809482D01*
X107145498Y-77929180D01*
X107204463Y-78039494D01*
X107237705Y-78080000D01*
X104307637Y-78080000D01*
X104505269Y-77932588D01*
X104700178Y-77716355D01*
X104849157Y-77466252D01*
X104946481Y-77191891D01*
X104825814Y-76962000D01*
X103632000Y-76962000D01*
X103632000Y-76982000D01*
X103378000Y-76982000D01*
X103378000Y-76962000D01*
X103358000Y-76962000D01*
X103358000Y-76708000D01*
X103378000Y-76708000D01*
X103378000Y-75514845D01*
X103632000Y-75514845D01*
X103632000Y-76708000D01*
X104825814Y-76708000D01*
X104946481Y-76478109D01*
X104849157Y-76203748D01*
X104700178Y-75953645D01*
X104505269Y-75737412D01*
X104271920Y-75563359D01*
X104009099Y-75438175D01*
X103861890Y-75393524D01*
X103632000Y-75514845D01*
X103378000Y-75514845D01*
X103148110Y-75393524D01*
X103000901Y-75438175D01*
X102738080Y-75563359D01*
X102504731Y-75737412D01*
X102309822Y-75953645D01*
X102240195Y-76070534D01*
X102118475Y-75888368D01*
X101911632Y-75681525D01*
X101668411Y-75519010D01*
X101398158Y-75407068D01*
X101111260Y-75350000D01*
X100818740Y-75350000D01*
X100598592Y-75393790D01*
X96264811Y-71060010D01*
X103105000Y-71060010D01*
X103105000Y-71221939D01*
G37*
G04 #@! TD.AperFunction*
D21*
X59789750Y-66180518D02*
X59455801Y-66318844D01*
X59155256Y-66519662D01*
X58899662Y-66775256D01*
X58698844Y-67075801D01*
X58560518Y-67409750D01*
X58490000Y-67764268D01*
X58490000Y-68125732D01*
X58560518Y-68480250D01*
X58698844Y-68814199D01*
X58899662Y-69114744D01*
X59155256Y-69370338D01*
X59455801Y-69571156D01*
X59565001Y-69616388D01*
X59565001Y-70215988D01*
X59545256Y-70202795D01*
X59356898Y-70124774D01*
X59156939Y-70085000D01*
X58953061Y-70085000D01*
X58753102Y-70124774D01*
X58564744Y-70202795D01*
X58395226Y-70316063D01*
X58251063Y-70460226D01*
X58137795Y-70629744D01*
X58059774Y-70818102D01*
X58020000Y-71018061D01*
X58020000Y-71080198D01*
X57273998Y-71826201D01*
X57245000Y-71849999D01*
X57221202Y-71878997D01*
X57221201Y-71878998D01*
X57150026Y-71965724D01*
X57079454Y-72097754D01*
X57054726Y-72179275D01*
X57035998Y-72241014D01*
X57032261Y-72278957D01*
X57021324Y-72390000D01*
X57025001Y-72427332D01*
X57025000Y-75346928D01*
X56935000Y-75346928D01*
X56810518Y-75359188D01*
X56690820Y-75395498D01*
X56580506Y-75454463D01*
X56483815Y-75533815D01*
X56404463Y-75630506D01*
X56345498Y-75740820D01*
X56309188Y-75860518D01*
X56296928Y-75985000D01*
X56296928Y-77685000D01*
X56309188Y-77809482D01*
X56345498Y-77929180D01*
X56404463Y-78039494D01*
X56437705Y-78080000D01*
X53507637Y-78080000D01*
X53705269Y-77932588D01*
X53900178Y-77716355D01*
X54049157Y-77466252D01*
X54146481Y-77191891D01*
X54025814Y-76962000D01*
X52832000Y-76962000D01*
X52832000Y-76982000D01*
X52578000Y-76982000D01*
X52578000Y-76962000D01*
X52558000Y-76962000D01*
X52558000Y-76708000D01*
X52578000Y-76708000D01*
X52578000Y-75514845D01*
X52832000Y-75514845D01*
X52832000Y-76708000D01*
X54025814Y-76708000D01*
X54146481Y-76478109D01*
X54049157Y-76203748D01*
X53900178Y-75953645D01*
X53705269Y-75737412D01*
X53471920Y-75563359D01*
X53209099Y-75438175D01*
X53061890Y-75393524D01*
X52832000Y-75514845D01*
X52578000Y-75514845D01*
X52348110Y-75393524D01*
X52200901Y-75438175D01*
X51938080Y-75563359D01*
X51704731Y-75737412D01*
X51509822Y-75953645D01*
X51440195Y-76070534D01*
X51318475Y-75888368D01*
X51111632Y-75681525D01*
X50925000Y-75556822D01*
X50925000Y-73339801D01*
X54600551Y-69664250D01*
X54709750Y-69709482D01*
X55064268Y-69780000D01*
X55425732Y-69780000D01*
X55780250Y-69709482D01*
X56114199Y-69571156D01*
X56414744Y-69370338D01*
X56670338Y-69114744D01*
X56871156Y-68814199D01*
X57009482Y-68480250D01*
X57080000Y-68125732D01*
X57080000Y-67764268D01*
X57009482Y-67409750D01*
X56871156Y-67075801D01*
X56670338Y-66775256D01*
X56414744Y-66519662D01*
X56114199Y-66318844D01*
X55780250Y-66180518D01*
X55702236Y-66165000D01*
X59867764Y-66165000D01*
X59789750Y-66180518D01*
G04 #@! TA.AperFunction,Conductor*
D22*
G36*
X59789750Y-66180518D02*
G01*
X59455801Y-66318844D01*
X59155256Y-66519662D01*
X58899662Y-66775256D01*
X58698844Y-67075801D01*
X58560518Y-67409750D01*
X58490000Y-67764268D01*
X58490000Y-68125732D01*
X58560518Y-68480250D01*
X58698844Y-68814199D01*
X58899662Y-69114744D01*
X59155256Y-69370338D01*
X59455801Y-69571156D01*
X59565001Y-69616388D01*
X59565001Y-70215988D01*
X59545256Y-70202795D01*
X59356898Y-70124774D01*
X59156939Y-70085000D01*
X58953061Y-70085000D01*
X58753102Y-70124774D01*
X58564744Y-70202795D01*
X58395226Y-70316063D01*
X58251063Y-70460226D01*
X58137795Y-70629744D01*
X58059774Y-70818102D01*
X58020000Y-71018061D01*
X58020000Y-71080198D01*
X57273998Y-71826201D01*
X57245000Y-71849999D01*
X57221202Y-71878997D01*
X57221201Y-71878998D01*
X57150026Y-71965724D01*
X57079454Y-72097754D01*
X57054726Y-72179275D01*
X57035998Y-72241014D01*
X57032261Y-72278957D01*
X57021324Y-72390000D01*
X57025001Y-72427332D01*
X57025000Y-75346928D01*
X56935000Y-75346928D01*
X56810518Y-75359188D01*
X56690820Y-75395498D01*
X56580506Y-75454463D01*
X56483815Y-75533815D01*
X56404463Y-75630506D01*
X56345498Y-75740820D01*
X56309188Y-75860518D01*
X56296928Y-75985000D01*
X56296928Y-77685000D01*
X56309188Y-77809482D01*
X56345498Y-77929180D01*
X56404463Y-78039494D01*
X56437705Y-78080000D01*
X53507637Y-78080000D01*
X53705269Y-77932588D01*
X53900178Y-77716355D01*
X54049157Y-77466252D01*
X54146481Y-77191891D01*
X54025814Y-76962000D01*
X52832000Y-76962000D01*
X52832000Y-76982000D01*
X52578000Y-76982000D01*
X52578000Y-76962000D01*
X52558000Y-76962000D01*
X52558000Y-76708000D01*
X52578000Y-76708000D01*
X52578000Y-75514845D01*
X52832000Y-75514845D01*
X52832000Y-76708000D01*
X54025814Y-76708000D01*
X54146481Y-76478109D01*
X54049157Y-76203748D01*
X53900178Y-75953645D01*
X53705269Y-75737412D01*
X53471920Y-75563359D01*
X53209099Y-75438175D01*
X53061890Y-75393524D01*
X52832000Y-75514845D01*
X52578000Y-75514845D01*
X52348110Y-75393524D01*
X52200901Y-75438175D01*
X51938080Y-75563359D01*
X51704731Y-75737412D01*
X51509822Y-75953645D01*
X51440195Y-76070534D01*
X51318475Y-75888368D01*
X51111632Y-75681525D01*
X50925000Y-75556822D01*
X50925000Y-73339801D01*
X54600551Y-69664250D01*
X54709750Y-69709482D01*
X55064268Y-69780000D01*
X55425732Y-69780000D01*
X55780250Y-69709482D01*
X56114199Y-69571156D01*
X56414744Y-69370338D01*
X56670338Y-69114744D01*
X56871156Y-68814199D01*
X57009482Y-68480250D01*
X57080000Y-68125732D01*
X57080000Y-67764268D01*
X57009482Y-67409750D01*
X56871156Y-67075801D01*
X56670338Y-66775256D01*
X56414744Y-66519662D01*
X56114199Y-66318844D01*
X55780250Y-66180518D01*
X55702236Y-66165000D01*
X59867764Y-66165000D01*
X59789750Y-66180518D01*
G37*
G04 #@! TD.AperFunction*
D21*
X69949750Y-66180518D02*
X69615801Y-66318844D01*
X69315256Y-66519662D01*
X69059662Y-66775256D01*
X68858844Y-67075801D01*
X68720518Y-67409750D01*
X68650000Y-67764268D01*
X68650000Y-68125732D01*
X68720518Y-68480250D01*
X68858844Y-68814199D01*
X69059662Y-69114744D01*
X69315256Y-69370338D01*
X69615801Y-69571156D01*
X69949750Y-69709482D01*
X70304268Y-69780000D01*
X70665732Y-69780000D01*
X71020250Y-69709482D01*
X71129449Y-69664250D01*
X71826200Y-70361002D01*
X71849999Y-70390001D01*
X71965724Y-70484974D01*
X72097753Y-70555546D01*
X72241014Y-70599003D01*
X72352667Y-70610000D01*
X72352677Y-70610000D01*
X72390000Y-70613676D01*
X72427323Y-70610000D01*
X75930987Y-70610000D01*
X75917795Y-70629744D01*
X75839774Y-70818102D01*
X75800000Y-71018061D01*
X75800000Y-71221939D01*
X75839774Y-71421898D01*
X75917795Y-71610256D01*
X76031063Y-71779774D01*
X76175226Y-71923937D01*
X76344744Y-72037205D01*
X76533102Y-72115226D01*
X76733061Y-72155000D01*
X76795199Y-72155000D01*
X77345001Y-72704803D01*
X77345000Y-75346928D01*
X77255000Y-75346928D01*
X77130518Y-75359188D01*
X77010820Y-75395498D01*
X76900506Y-75454463D01*
X76803815Y-75533815D01*
X76724463Y-75630506D01*
X76665498Y-75740820D01*
X76629188Y-75860518D01*
X76616928Y-75985000D01*
X76616928Y-77685000D01*
X76629188Y-77809482D01*
X76665498Y-77929180D01*
X76724463Y-78039494D01*
X76757705Y-78080000D01*
X73827637Y-78080000D01*
X74025269Y-77932588D01*
X74220178Y-77716355D01*
X74369157Y-77466252D01*
X74466481Y-77191891D01*
X74345814Y-76962000D01*
X73152000Y-76962000D01*
X73152000Y-76982000D01*
X72898000Y-76982000D01*
X72898000Y-76962000D01*
X72878000Y-76962000D01*
X72878000Y-76708000D01*
X72898000Y-76708000D01*
X72898000Y-75514845D01*
X73152000Y-75514845D01*
X73152000Y-76708000D01*
X74345814Y-76708000D01*
X74466481Y-76478109D01*
X74369157Y-76203748D01*
X74220178Y-75953645D01*
X74025269Y-75737412D01*
X73791920Y-75563359D01*
X73529099Y-75438175D01*
X73381890Y-75393524D01*
X73152000Y-75514845D01*
X72898000Y-75514845D01*
X72668110Y-75393524D01*
X72520901Y-75438175D01*
X72258080Y-75563359D01*
X72024731Y-75737412D01*
X71829822Y-75953645D01*
X71760195Y-76070534D01*
X71638475Y-75888368D01*
X71431632Y-75681525D01*
X71245000Y-75556822D01*
X71245000Y-73062323D01*
X71248676Y-73025000D01*
X71245000Y-72987677D01*
X71245000Y-72987667D01*
X71234003Y-72876014D01*
X71190546Y-72732753D01*
X71163549Y-72682246D01*
X71119974Y-72600723D01*
X71048799Y-72513997D01*
X71025001Y-72484999D01*
X70996003Y-72461201D01*
X67124250Y-68589449D01*
X67169482Y-68480250D01*
X67240000Y-68125732D01*
X67240000Y-67764268D01*
X67169482Y-67409750D01*
X67031156Y-67075801D01*
X66830338Y-66775256D01*
X66574744Y-66519662D01*
X66274199Y-66318844D01*
X65940250Y-66180518D01*
X65862236Y-66165000D01*
X70027764Y-66165000D01*
X69949750Y-66180518D01*
G04 #@! TA.AperFunction,Conductor*
D22*
G36*
X69949750Y-66180518D02*
G01*
X69615801Y-66318844D01*
X69315256Y-66519662D01*
X69059662Y-66775256D01*
X68858844Y-67075801D01*
X68720518Y-67409750D01*
X68650000Y-67764268D01*
X68650000Y-68125732D01*
X68720518Y-68480250D01*
X68858844Y-68814199D01*
X69059662Y-69114744D01*
X69315256Y-69370338D01*
X69615801Y-69571156D01*
X69949750Y-69709482D01*
X70304268Y-69780000D01*
X70665732Y-69780000D01*
X71020250Y-69709482D01*
X71129449Y-69664250D01*
X71826200Y-70361002D01*
X71849999Y-70390001D01*
X71965724Y-70484974D01*
X72097753Y-70555546D01*
X72241014Y-70599003D01*
X72352667Y-70610000D01*
X72352677Y-70610000D01*
X72390000Y-70613676D01*
X72427323Y-70610000D01*
X75930987Y-70610000D01*
X75917795Y-70629744D01*
X75839774Y-70818102D01*
X75800000Y-71018061D01*
X75800000Y-71221939D01*
X75839774Y-71421898D01*
X75917795Y-71610256D01*
X76031063Y-71779774D01*
X76175226Y-71923937D01*
X76344744Y-72037205D01*
X76533102Y-72115226D01*
X76733061Y-72155000D01*
X76795199Y-72155000D01*
X77345001Y-72704803D01*
X77345000Y-75346928D01*
X77255000Y-75346928D01*
X77130518Y-75359188D01*
X77010820Y-75395498D01*
X76900506Y-75454463D01*
X76803815Y-75533815D01*
X76724463Y-75630506D01*
X76665498Y-75740820D01*
X76629188Y-75860518D01*
X76616928Y-75985000D01*
X76616928Y-77685000D01*
X76629188Y-77809482D01*
X76665498Y-77929180D01*
X76724463Y-78039494D01*
X76757705Y-78080000D01*
X73827637Y-78080000D01*
X74025269Y-77932588D01*
X74220178Y-77716355D01*
X74369157Y-77466252D01*
X74466481Y-77191891D01*
X74345814Y-76962000D01*
X73152000Y-76962000D01*
X73152000Y-76982000D01*
X72898000Y-76982000D01*
X72898000Y-76962000D01*
X72878000Y-76962000D01*
X72878000Y-76708000D01*
X72898000Y-76708000D01*
X72898000Y-75514845D01*
X73152000Y-75514845D01*
X73152000Y-76708000D01*
X74345814Y-76708000D01*
X74466481Y-76478109D01*
X74369157Y-76203748D01*
X74220178Y-75953645D01*
X74025269Y-75737412D01*
X73791920Y-75563359D01*
X73529099Y-75438175D01*
X73381890Y-75393524D01*
X73152000Y-75514845D01*
X72898000Y-75514845D01*
X72668110Y-75393524D01*
X72520901Y-75438175D01*
X72258080Y-75563359D01*
X72024731Y-75737412D01*
X71829822Y-75953645D01*
X71760195Y-76070534D01*
X71638475Y-75888368D01*
X71431632Y-75681525D01*
X71245000Y-75556822D01*
X71245000Y-73062323D01*
X71248676Y-73025000D01*
X71245000Y-72987677D01*
X71245000Y-72987667D01*
X71234003Y-72876014D01*
X71190546Y-72732753D01*
X71163549Y-72682246D01*
X71119974Y-72600723D01*
X71048799Y-72513997D01*
X71025001Y-72484999D01*
X70996003Y-72461201D01*
X67124250Y-68589449D01*
X67169482Y-68480250D01*
X67240000Y-68125732D01*
X67240000Y-67764268D01*
X67169482Y-67409750D01*
X67031156Y-67075801D01*
X66830338Y-66775256D01*
X66574744Y-66519662D01*
X66274199Y-66318844D01*
X65940250Y-66180518D01*
X65862236Y-66165000D01*
X70027764Y-66165000D01*
X69949750Y-66180518D01*
G37*
G04 #@! TD.AperFunction*
D21*
X64869750Y-66180518D02*
X64535801Y-66318844D01*
X64235256Y-66519662D01*
X63979662Y-66775256D01*
X63778844Y-67075801D01*
X63640518Y-67409750D01*
X63570000Y-67764268D01*
X63570000Y-68125732D01*
X63640518Y-68480250D01*
X63778844Y-68814199D01*
X63979662Y-69114744D01*
X64235256Y-69370338D01*
X64535801Y-69571156D01*
X64869750Y-69709482D01*
X65224268Y-69780000D01*
X65585732Y-69780000D01*
X65940250Y-69709482D01*
X66049449Y-69664250D01*
X66680820Y-70295621D01*
X66650226Y-70316063D01*
X66506063Y-70460226D01*
X66392795Y-70629744D01*
X66314774Y-70818102D01*
X66275000Y-71018061D01*
X66275000Y-71221939D01*
X66314774Y-71421898D01*
X66392795Y-71610256D01*
X66506063Y-71779774D01*
X66650226Y-71923937D01*
X66819744Y-72037205D01*
X67008102Y-72115226D01*
X67185001Y-72150413D01*
X67185000Y-75346928D01*
X67095000Y-75346928D01*
X66970518Y-75359188D01*
X66850820Y-75395498D01*
X66740506Y-75454463D01*
X66643815Y-75533815D01*
X66564463Y-75630506D01*
X66505498Y-75740820D01*
X66469188Y-75860518D01*
X66456928Y-75985000D01*
X66456928Y-77685000D01*
X66469188Y-77809482D01*
X66505498Y-77929180D01*
X66564463Y-78039494D01*
X66597705Y-78080000D01*
X63667637Y-78080000D01*
X63865269Y-77932588D01*
X64060178Y-77716355D01*
X64209157Y-77466252D01*
X64306481Y-77191891D01*
X64185814Y-76962000D01*
X62992000Y-76962000D01*
X62992000Y-76982000D01*
X62738000Y-76982000D01*
X62738000Y-76962000D01*
X62718000Y-76962000D01*
X62718000Y-76708000D01*
X62738000Y-76708000D01*
X62738000Y-75514845D01*
X62992000Y-75514845D01*
X62992000Y-76708000D01*
X64185814Y-76708000D01*
X64306481Y-76478109D01*
X64209157Y-76203748D01*
X64060178Y-75953645D01*
X63865269Y-75737412D01*
X63631920Y-75563359D01*
X63369099Y-75438175D01*
X63221890Y-75393524D01*
X62992000Y-75514845D01*
X62738000Y-75514845D01*
X62508110Y-75393524D01*
X62360901Y-75438175D01*
X62098080Y-75563359D01*
X61864731Y-75737412D01*
X61669822Y-75953645D01*
X61600195Y-76070534D01*
X61478475Y-75888368D01*
X61271632Y-75681525D01*
X61085000Y-75556822D01*
X61085000Y-69616388D01*
X61194199Y-69571156D01*
X61494744Y-69370338D01*
X61750338Y-69114744D01*
X61951156Y-68814199D01*
X62089482Y-68480250D01*
X62160000Y-68125732D01*
X62160000Y-67764268D01*
X62089482Y-67409750D01*
X61951156Y-67075801D01*
X61750338Y-66775256D01*
X61494744Y-66519662D01*
X61194199Y-66318844D01*
X60860250Y-66180518D01*
X60782236Y-66165000D01*
X64947764Y-66165000D01*
X64869750Y-66180518D01*
G04 #@! TA.AperFunction,Conductor*
D22*
G36*
X64869750Y-66180518D02*
G01*
X64535801Y-66318844D01*
X64235256Y-66519662D01*
X63979662Y-66775256D01*
X63778844Y-67075801D01*
X63640518Y-67409750D01*
X63570000Y-67764268D01*
X63570000Y-68125732D01*
X63640518Y-68480250D01*
X63778844Y-68814199D01*
X63979662Y-69114744D01*
X64235256Y-69370338D01*
X64535801Y-69571156D01*
X64869750Y-69709482D01*
X65224268Y-69780000D01*
X65585732Y-69780000D01*
X65940250Y-69709482D01*
X66049449Y-69664250D01*
X66680820Y-70295621D01*
X66650226Y-70316063D01*
X66506063Y-70460226D01*
X66392795Y-70629744D01*
X66314774Y-70818102D01*
X66275000Y-71018061D01*
X66275000Y-71221939D01*
X66314774Y-71421898D01*
X66392795Y-71610256D01*
X66506063Y-71779774D01*
X66650226Y-71923937D01*
X66819744Y-72037205D01*
X67008102Y-72115226D01*
X67185001Y-72150413D01*
X67185000Y-75346928D01*
X67095000Y-75346928D01*
X66970518Y-75359188D01*
X66850820Y-75395498D01*
X66740506Y-75454463D01*
X66643815Y-75533815D01*
X66564463Y-75630506D01*
X66505498Y-75740820D01*
X66469188Y-75860518D01*
X66456928Y-75985000D01*
X66456928Y-77685000D01*
X66469188Y-77809482D01*
X66505498Y-77929180D01*
X66564463Y-78039494D01*
X66597705Y-78080000D01*
X63667637Y-78080000D01*
X63865269Y-77932588D01*
X64060178Y-77716355D01*
X64209157Y-77466252D01*
X64306481Y-77191891D01*
X64185814Y-76962000D01*
X62992000Y-76962000D01*
X62992000Y-76982000D01*
X62738000Y-76982000D01*
X62738000Y-76962000D01*
X62718000Y-76962000D01*
X62718000Y-76708000D01*
X62738000Y-76708000D01*
X62738000Y-75514845D01*
X62992000Y-75514845D01*
X62992000Y-76708000D01*
X64185814Y-76708000D01*
X64306481Y-76478109D01*
X64209157Y-76203748D01*
X64060178Y-75953645D01*
X63865269Y-75737412D01*
X63631920Y-75563359D01*
X63369099Y-75438175D01*
X63221890Y-75393524D01*
X62992000Y-75514845D01*
X62738000Y-75514845D01*
X62508110Y-75393524D01*
X62360901Y-75438175D01*
X62098080Y-75563359D01*
X61864731Y-75737412D01*
X61669822Y-75953645D01*
X61600195Y-76070534D01*
X61478475Y-75888368D01*
X61271632Y-75681525D01*
X61085000Y-75556822D01*
X61085000Y-69616388D01*
X61194199Y-69571156D01*
X61494744Y-69370338D01*
X61750338Y-69114744D01*
X61951156Y-68814199D01*
X62089482Y-68480250D01*
X62160000Y-68125732D01*
X62160000Y-67764268D01*
X62089482Y-67409750D01*
X61951156Y-67075801D01*
X61750338Y-66775256D01*
X61494744Y-66519662D01*
X61194199Y-66318844D01*
X60860250Y-66180518D01*
X60782236Y-66165000D01*
X64947764Y-66165000D01*
X64869750Y-66180518D01*
G37*
G04 #@! TD.AperFunction*
D21*
X93384847Y-71576959D02*
X93424621Y-71776918D01*
X93502642Y-71965276D01*
X93615910Y-72134794D01*
X93760073Y-72278957D01*
X93929591Y-72392225D01*
X94117949Y-72470246D01*
X94317908Y-72510020D01*
X94380046Y-72510020D01*
X95761411Y-73891386D01*
X95761410Y-74894087D01*
X95757734Y-74931410D01*
X95761410Y-74968732D01*
X95761410Y-74968742D01*
X95772407Y-75080395D01*
X95815864Y-75223656D01*
X95886436Y-75355686D01*
X95917489Y-75393524D01*
X95981409Y-75471411D01*
X96010413Y-75495214D01*
X96936928Y-76421730D01*
X96936928Y-77685000D01*
X96949188Y-77809482D01*
X96985498Y-77929180D01*
X97044463Y-78039494D01*
X97077705Y-78080000D01*
X94147637Y-78080000D01*
X94345269Y-77932588D01*
X94540178Y-77716355D01*
X94689157Y-77466252D01*
X94786481Y-77191891D01*
X94665814Y-76962000D01*
X93472000Y-76962000D01*
X93472000Y-76982000D01*
X93218000Y-76982000D01*
X93218000Y-76962000D01*
X93198000Y-76962000D01*
X93198000Y-76708000D01*
X93218000Y-76708000D01*
X93218000Y-75514845D01*
X93472000Y-75514845D01*
X93472000Y-76708000D01*
X94665814Y-76708000D01*
X94786481Y-76478109D01*
X94689157Y-76203748D01*
X94540178Y-75953645D01*
X94345269Y-75737412D01*
X94111920Y-75563359D01*
X93849099Y-75438175D01*
X93701890Y-75393524D01*
X93472000Y-75514845D01*
X93218000Y-75514845D01*
X92988110Y-75393524D01*
X92840901Y-75438175D01*
X92578080Y-75563359D01*
X92344731Y-75737412D01*
X92149822Y-75953645D01*
X92080195Y-76070534D01*
X91958475Y-75888368D01*
X91751632Y-75681525D01*
X91565000Y-75556822D01*
X91565000Y-72427325D01*
X91568676Y-72390000D01*
X91565000Y-72352675D01*
X91565000Y-72352667D01*
X91554003Y-72241014D01*
X91510546Y-72097753D01*
X91439974Y-71965724D01*
X91345001Y-71849999D01*
X91316003Y-71826201D01*
X90999822Y-71510020D01*
X93384847Y-71510020D01*
X93384847Y-71576959D01*
G04 #@! TA.AperFunction,Conductor*
D22*
G36*
X93384847Y-71576959D02*
G01*
X93424621Y-71776918D01*
X93502642Y-71965276D01*
X93615910Y-72134794D01*
X93760073Y-72278957D01*
X93929591Y-72392225D01*
X94117949Y-72470246D01*
X94317908Y-72510020D01*
X94380046Y-72510020D01*
X95761411Y-73891386D01*
X95761410Y-74894087D01*
X95757734Y-74931410D01*
X95761410Y-74968732D01*
X95761410Y-74968742D01*
X95772407Y-75080395D01*
X95815864Y-75223656D01*
X95886436Y-75355686D01*
X95917489Y-75393524D01*
X95981409Y-75471411D01*
X96010413Y-75495214D01*
X96936928Y-76421730D01*
X96936928Y-77685000D01*
X96949188Y-77809482D01*
X96985498Y-77929180D01*
X97044463Y-78039494D01*
X97077705Y-78080000D01*
X94147637Y-78080000D01*
X94345269Y-77932588D01*
X94540178Y-77716355D01*
X94689157Y-77466252D01*
X94786481Y-77191891D01*
X94665814Y-76962000D01*
X93472000Y-76962000D01*
X93472000Y-76982000D01*
X93218000Y-76982000D01*
X93218000Y-76962000D01*
X93198000Y-76962000D01*
X93198000Y-76708000D01*
X93218000Y-76708000D01*
X93218000Y-75514845D01*
X93472000Y-75514845D01*
X93472000Y-76708000D01*
X94665814Y-76708000D01*
X94786481Y-76478109D01*
X94689157Y-76203748D01*
X94540178Y-75953645D01*
X94345269Y-75737412D01*
X94111920Y-75563359D01*
X93849099Y-75438175D01*
X93701890Y-75393524D01*
X93472000Y-75514845D01*
X93218000Y-75514845D01*
X92988110Y-75393524D01*
X92840901Y-75438175D01*
X92578080Y-75563359D01*
X92344731Y-75737412D01*
X92149822Y-75953645D01*
X92080195Y-76070534D01*
X91958475Y-75888368D01*
X91751632Y-75681525D01*
X91565000Y-75556822D01*
X91565000Y-72427325D01*
X91568676Y-72390000D01*
X91565000Y-72352675D01*
X91565000Y-72352667D01*
X91554003Y-72241014D01*
X91510546Y-72097753D01*
X91439974Y-71965724D01*
X91345001Y-71849999D01*
X91316003Y-71826201D01*
X90999822Y-71510020D01*
X93384847Y-71510020D01*
X93384847Y-71576959D01*
G37*
G04 #@! TD.AperFunction*
M02*
