M48
INCH,TZ
T1C0.0157
T2C0.0394
T3C0.0433
T4C0.0472
%
G90
G05
T1
X20000Y-28000
X23250Y-28000
X26500Y-28000
X30250Y-28000
X32250Y-28035
X37173Y-28140
X41000Y-28000
X42750Y-21500
X44250Y-18750
X45000Y-28000
X48250Y-23250
X49000Y-28000
X49750Y-18750
X52750Y-26750
X53750Y-21500
X55250Y-18750
X59250Y-21500
X60750Y-18750
T2
X14750Y-13750
X14750Y-14750
X14750Y-15750
X14750Y-16750
X14750Y-19250
X14750Y-20250
X14750Y-21250
X14750Y-22250
X14750Y-23250
X14750Y-24250
X14750Y-25250
X14750Y-26250
X14750Y-27250
X14750Y-28250
X14750Y-30250
X15750Y-30250
X16750Y-30250
X18750Y-30250
X19750Y-30250
X20750Y-30250
X22750Y-30250
X23750Y-30250
X24750Y-30250
X26750Y-30250
X27750Y-30250
X28750Y-30250
X30750Y-30250
X31750Y-30250
X32750Y-30250
X34750Y-30250
X35750Y-30250
X36750Y-30250
X38750Y-30250
X39750Y-30250
X40750Y-30250
X42750Y-30250
X43750Y-30250
X44750Y-30250
X46750Y-30250
X47750Y-30250
X48750Y-30250
X50750Y-30250
X51750Y-30250
X52750Y-30250
X54750Y-30250
X55750Y-30250
X57750Y-30250
X58750Y-30250
X60750Y-30250
X61750Y-30250
X63750Y-30250
X64750Y-16250
X64750Y-17250
X64750Y-19750
X64750Y-20750
X64750Y-30250
T3
X41750Y-14250
X42750Y-14250
X43750Y-14250
X47250Y-14250
X48250Y-14250
X49250Y-14250
X52750Y-14250
X53750Y-14250
X54750Y-14250
X55750Y-23250
X55750Y-27250
X58250Y-14250
X58750Y-23250
X58750Y-27250
X59250Y-14250
X60250Y-14250
X61750Y-23250
X61750Y-27250
X64750Y-23250
X64750Y-27250
T4
X19750Y-15250
X19750Y-20250
X19750Y-21750
X19750Y-26750
X21750Y-15250
X21750Y-20250
X21750Y-21750
X21750Y-26750
X23750Y-15250
X23750Y-20250
X23750Y-21750
X23750Y-26750
X25750Y-15250
X25750Y-20250
X25750Y-21750
X25750Y-26750
X27750Y-15250
X27750Y-20250
X27750Y-21750
X27750Y-26750
X29750Y-15250
X29750Y-20250
X29750Y-21750
X29750Y-26750
X31750Y-15250
X31750Y-20250
X31750Y-21750
X31750Y-26750
X33750Y-15250
X33750Y-20250
X33750Y-21750
X33750Y-26750
X35750Y-15250
X35750Y-20250
X35750Y-21750
X35750Y-26750
X37750Y-15250
X37750Y-20250
X37750Y-21750
X37750Y-26750
X41250Y-16250
X41250Y-21250
X44250Y-16250
X44250Y-21250
X46750Y-16250
X46750Y-21250
X49750Y-16250
X49750Y-21250
X52250Y-16250
X52250Y-21250
X55250Y-16250
X55250Y-21250
X57750Y-16250
X57750Y-21250
X60750Y-16250
X60750Y-21250
T0
M30
